<?xml version="1.0" encoding="utf-8"?>
<!-- Generator: Adobe Illustrator 27.5.0, SVG Export Plug-In . SVG Version: 6.00 Build 0)  -->
<svg version="1.1" id="Layer_1" xmlns="http://www.w3.org/2000/svg" xmlns:xlink="http://www.w3.org/1999/xlink" x="0px" y="0px"
	 viewBox="0 0 1920 1080" style="enable-background:new 0 0 1920 1080;" xml:space="preserve">
<g>
	<defs>
		<rect id="SVGID_1_" width="1920" height="1080"/>
	</defs>
	<clipPath id="SVGID_00000098904102224567833130000016517117900057367993_">
		<use xlink:href="#SVGID_1_"  style="overflow:visible;"/>
	</clipPath>
	
		<rect style="clip-path:url(#SVGID_00000098904102224567833130000016517117900057367993_);fill-rule:evenodd;clip-rule:evenodd;fill:#FFFFFF;" width="1920" height="1080"/>
	<g style="clip-path:url(#SVGID_00000098904102224567833130000016517117900057367993_);">
		<path style="fill:#240D16;" d="M98.255,26.29c15.448-8.717,30.901-17.437,46.349-26.154c0.11-0.221,0.221-0.441,0.331-0.662
			c-25.93,0-51.869,0-77.799,0c6.51,11.034,13.022,22.072,19.533,33.106C91.35,32.002,94.801,28.357,98.255,26.29z"/>
		<path style="fill:#240D16;" d="M1656.561,1069.132c-2.096,3.31-4.194,6.621-6.29,9.932c0,0.331,0,0.662,0,0.993
			c5.076,0,10.153,0,15.229,0C1664.728,1076.94,1659.531,1070.094,1656.561,1069.132z"/>
		<path style="fill:#240D16;" d="M1200.027,1057.214c-11.365,3.31-22.734,6.621-34.099,9.932c-0.221,0.221-0.442,0.442-0.662,0.662
			c1.214,4.083,2.428,8.167,3.642,12.249c13.351,0,26.707,0,40.058,0c0.11-0.221,0.221-0.441,0.331-0.662
			c-2.538-7.172-5.077-14.347-7.615-21.519C1201.131,1057.656,1200.579,1057.435,1200.027,1057.214z"/>
		<path style="fill:#240D16;" d="M863.338,227.244c2.592,1.03,7.056-1.416,9.932-2.648c4.893-2.097,28.319-10.789,30.458-13.573
			c1.13-4.093-3.599-11.986-4.966-15.891c-4.745-14.014-9.491-28.031-14.236-42.045c-16.883-51.199-33.77-102.413-50.652-153.612
			c-12.248,0-24.5,0-36.748,0c13.131,46.013,26.266,92.04,39.396,138.053C845.46,167.429,854.4,197.341,863.338,227.244z"/>
		<path style="fill:#240D16;" d="M1876.385,89.853c11.145,3.641,22.293,7.284,33.437,10.925c4.344,1.381,8.688,4.128,13.905,4.304
			c0-31.337,0-62.684,0-94.021c-0.221-0.11-0.441-0.221-0.662-0.331c-2.869,6.51-5.739,13.022-8.608,19.533
			c-3.354,7.773-9.189,16.605-10.594,25.492c-0.441,0.331-0.883,0.662-1.324,0.993c-0.993-0.331-1.986-0.662-2.979-0.993
			c-2.235-3.42-0.424-10.516,0.662-15.229c2.427-13.682,4.856-27.369,7.283-41.052c-12.358,0-24.72,0-37.079,0
			c-2.869,28.468-5.739,56.945-8.608,85.414C1862.954,87.724,1873.203,88.846,1876.385,89.853z"/>
		<path style="fill:#240D16;" d="M1324.837,124.284c14.345-33.103,28.693-66.216,43.038-99.318
			c-3.948-4.903-13.012-7.317-18.54-10.594c-8.496-4.965-16.995-9.932-25.492-14.898c-14.565,0-29.135,0-43.7,0
			c-9.158,18.207-18.32,36.419-27.478,54.625c23.724,23.393,47.454,46.792,71.178,70.185
			C1324.175,124.284,1324.506,124.284,1324.837,124.284z M1285.772,58.071c-1.62-3.753,2.462-8.548,3.973-11.587
			c4.919-9.897,8.391-20.449,14.236-29.464c8.704,2.108,17.842,10.142,24.83,14.898c-6.51,12.469-13.022,24.941-19.533,37.41
			C1301.443,65.576,1293.606,61.823,1285.772,58.071z"/>
		<path style="fill:#240D16;" d="M1907.174,1079.395c2.729,1.996,12.376,0.764,16.553,0.662c0-13.131,0-26.266,0-39.396
			c-1.876,0-3.752,0-5.628,0C1914.458,1053.571,1910.815,1066.485,1907.174,1079.395z"/>
		<path style="fill:#240D16;" d="M1731.711,75.618c2.979-25.379,5.959-50.765,8.939-76.144c-39.061,0-78.134,0-117.196,0
			c-1.655,16.22-3.311,32.446-4.966,48.666c13.462,17.434,26.928,34.874,40.39,52.308
			C1683.153,92.172,1707.436,83.893,1731.711,75.618z"/>
		<path style="fill:#240D16;" d="M1869.433,309.347c-2.416,2.336-4.363,29.006-4.304,34.761c19.31,4.855,38.626,9.712,57.936,14.567
			c2.437-3.419,0.738-30.912,0.662-37.41C1905.631,317.293,1887.529,313.319,1869.433,309.347z"/>
		<path style="fill:#240D16;" d="M1169.57,794.683c20.892-4.609,23.387-25.071,27.147-47.342c1.365-8.082,1.128-19.685-0.993-26.816
			c-5.213-17.522-19.091-27.21-42.376-26.816c-4.855,0.883-9.712,1.766-14.567,2.648c-13.51,4.11-27.628,11.659-32.775,24.167
			c-3.357,8.159-1.177,20.523,1.655,27.478C1114.49,764.771,1143.175,800.505,1169.57,794.683z M1151.692,721.849
			c5.407,3.09,10.815,6.18,16.222,9.27c3.264,5.031-6.081,29.123-7.283,36.748c-5.679,1.193-13.834-5.316-19.202-6.952
			C1140.245,758.149,1149.418,724.533,1151.692,721.849z"/>
		<path style="fill:#240D16;" d="M1537.047,939.356c-3.267-2.007-6.151-5.697-10.925-5.959c-6.069,3.421-12.14,6.842-18.208,10.263
			c9.821,21.737,19.644,43.482,29.464,65.219c2.203,1.023,6.693,0.182,9.27-0.662c3.621-1.753,4.541-7.927,6.29-11.587
			c5.627-12.248,11.257-24.5,16.884-36.748C1564.914,953.692,1544.816,944.128,1537.047,939.356z"/>
		<path style="fill:#240D16;" d="M370.388,341.129c-3.752,10.262-7.504,20.527-11.256,30.789
			c-10.593,28.579-21.189,57.166-31.782,85.745c0,0.11,0,0.221,0,0.331c7.548,4.227,20.68,3.403,29.796,5.297
			c22.4,3.421,44.806,6.842,67.205,10.263c14.455-35.53,28.914-71.071,43.369-106.602c-30.896-12.8-61.801-25.603-92.697-38.403
			C372.523,331.825,371.987,336.994,370.388,341.129z M384.623,401.051c3.159-10.042,4.794-21.614,9.601-30.458
			c10.703,4.634,21.41,9.27,32.113,13.905c1.754,3.981-2.291,10.135-3.642,13.573c-4.634,12.358-9.27,24.721-13.905,37.079
			c-1.155,1.44-28.154-4.227-31.12-5.959c-0.331-0.221-0.662-0.441-0.993-0.662C377.22,419.11,381.994,409.407,384.623,401.051z"/>
		<path style="fill:#240D16;" d="M1089.122,618.227c28.137-12.8,56.283-25.603,84.421-38.403
			c-0.704-7.577-9.879-21.448-13.573-27.809c-9.269-18.096-18.54-36.198-27.809-54.294c-2.787-5.477-9.825-24.407-14.236-26.816
			c-7.364,4.514-26.666,7.582-31.782,12.911c5.517,16.331,11.036,32.666,16.553,48.997c2.414,7.126,7.51,15.875,7.615,24.167
			c-3.048,3.085-21.8,12.015-26.816,12.58c-11.476-22.289-22.955-44.585-34.43-66.874c-4.999,0.519-8.923,3.557-12.911,5.297
			c-8.607,3.862-17.216,7.725-25.823,11.587c16.11,37.075,32.225,74.161,48.335,111.237
			C1062.048,632.22,1084.549,620.501,1089.122,618.227z"/>
		<path style="fill:#240D16;" d="M1898.566,399.065c-17.875-4.855-35.756-9.712-53.632-14.567c-5.08-1.547-22.814-4.237-24.83-7.614
			c2.427-39.503,4.856-79.017,7.283-118.52c0.11-0.11,0.221-0.221,0.331-0.331c32,6.621,64.008,13.243,96.008,19.864
			c0-10.262,0-20.527,0-30.789c-31.117-9.489-62.243-18.982-93.359-28.471c-1.97-3.4-0.261-9.7-0.993-14.567
			c-1.417-9.431-2.423-31.729-0.662-41.052c10.924-1.434,21.851-2.869,32.775-4.304c-0.772,11.145-1.545,22.293-2.317,33.437
			c12.248,4.193,24.5,8.387,36.748,12.58c9.269,3.09,18.54,6.18,27.809,9.27c0-24.827,0-49.662,0-74.489
			c-31.779-9.048-63.567-18.099-95.346-27.147c-1.906-4.385,2.502-24.288,3.642-30.127c3.862-27.586,7.725-55.18,11.587-82.765
			c-24.386,0-48.779,0-73.165,0c0.883,24.055,1.766,48.117,2.649,72.171c1.37,9.007,2.604,26.313,0.993,35.092
			c-43.475,10.262-86.963,20.527-130.438,30.789c-5.571-3.119-9.754-11.83-13.573-16.884
			c-10.262-13.462-20.527-26.928-30.789-40.389c-3.31-4.503-13.538-14.336-14.567-19.533c2.096-20.413,4.194-40.833,6.29-61.246
			c-40.937,0-81.887,0-122.824,0c4.36,4.642,15.09,6.643,21.188,9.27c17.434,7.834,34.874,15.671,52.308,23.505
			c-1.509,6.413-8.145,19.134-11.918,24.167c-34.979-13.682-69.968-27.369-104.946-41.052c-1.457-3.583,3.375-12.127,4.966-15.891
			c-14.786,0-29.576,0-44.362,0c4.303,5.296,8.608,10.595,12.911,15.891c-0.642,5.709-3.987,10.246-5.959,14.898
			c-5.076,12.469-10.153,24.941-15.229,37.41c-13.462,34.206-26.928,68.423-40.39,102.629c-0.221,0-0.441,0-0.662,0
			c-14.515-10.525-24.877-26.224-38.734-37.41c-5.296-5.186-10.594-10.374-15.891-15.56c-8.607-8.607-17.216-17.216-25.823-25.823
			c-11.917-12.248-23.838-24.5-35.755-36.748c9.269-18.317,18.54-36.639,27.809-54.956c-28.137-0.11-56.283-0.221-84.421-0.331
			c4.083,21.517,8.167,43.04,12.249,64.557c-0.221,0.331-0.441,0.662-0.662,0.993c-12.027-1.545-24.058-3.09-36.086-4.635
			c-0.772-4.524-1.545-9.049-2.317-13.573c-3.029-14.635-7.338-31.391-7.283-47.342c-18.758,0-37.522,0-56.28,0
			c9.49,17.765,18.982,35.536,28.471,53.301c2.207,9.821,4.415,19.644,6.621,29.464c2.207,9.048,4.414,18.099,6.621,27.147
			c-33.434,8.386-66.878,16.775-100.311,25.161c-0.11,0-0.221,0-0.331,0c-3.598-6.611-4.592-15.17-6.952-22.843
			c-5.738-19.531-11.477-39.067-17.215-58.598c-1.462-4.692-9.083-23.943-7.945-27.478c1.839-2.745,16.914-5.632,21.188-6.952
			c20.744-6.179,41.495-12.36,62.239-18.539c0.11-0.221,0.221-0.441,0.331-0.662c-48.771,0-97.557,0-146.329,0
			c0,0.11,0,0.221,0,0.331c17.544,59.695,35.094,119.409,52.639,179.104c-3.109,3.373-17.34,6.895-22.512,8.608
			c-3.848-3.27-13.114-39.55-15.56-47.342c-9.654-30.749-18.988-62.082-28.802-93.359c-3.09-10.372-6.18-20.748-9.27-31.12
			c-1.545-5.407-3.09-10.815-4.635-16.222c-9.931,0-19.865,0-29.796,0c18.207,56.054,36.419,112.125,54.625,168.179
			c5.076,14.786,10.153,29.576,15.229,44.362c1.351,3.805,6.359,12.466,5.297,16.222c-2.469,3.547-17.947,8.218-22.843,10.263
			c-15.558,6.51-31.121,13.022-46.68,19.533c-5.529,2.344-11.698,6.459-18.208,7.283c-4.058-3.674-5.163-14.194-6.952-19.864
			c-5.517-18.317-11.036-36.639-16.553-54.956c-18.979-63.668-37.964-127.355-56.943-191.022c-11.696,0-23.396,0-35.092,0
			c0,0.11,0,0.221,0,0.331c24.496,82.647,49,165.318,73.496,247.965c0,0.11,0,0.221,0,0.331c-2.665,1.487-26.226,4.593-29.133,3.642
			c-3.354-2.125-4.004-11.418-5.297-15.56c-4.303-14.565-8.608-29.135-12.911-43.7c-13.106-41.492-24.089-83.922-37.079-126.134
			c-6.51-22.289-13.022-44.585-19.533-66.874c-41.379,0-82.769,0-124.148,0c-1.393,4.236-6.65,7.639-9.601,10.594
			c-7.834,7.945-15.671,15.892-23.505,23.836c-20.634,20.413-41.274,40.833-61.908,61.246c-9.225,9.024-22.716,25.534-33.437,31.782
			c-4.634-3.862-9.27-7.725-13.905-11.587c0-0.331,0-0.662,0-0.993c10.814-11.145,21.63-22.293,32.444-33.437
			c5.076-5.186,10.153-10.374,15.229-15.56c19.149-23.722,43.8-43.002,64.226-65.55c-23.834-0.11-47.675-0.221-71.509-0.331
			c5.283,6.547,15.89,8.333,21.188,14.898c-5.407,5.517-10.815,11.036-16.222,16.553c-4.636-1.067-8.234-5.298-11.918-7.614
			c-12.424-7.811-25.133-16.914-37.741-23.836c-25.489,0-50.986,0-76.475,0c0.331,1.655,0.662,3.311,0.993,4.966
			c-27.255,25.82-54.518,51.648-81.772,77.468c-10.317,8.334-18.734,19.078-29.133,27.478c-3.251,2.626-5.353,6.221-9.27,8.276
			c-3.749-2.182-10.964-7.71-12.911-11.587c-0.11-0.441-0.221-0.883-0.331-1.324c29.682-35.089,59.373-70.188,89.055-105.277
			c-53.958,0-107.931,0-161.889,0c0,0.11,0,0.221,0,0.331c2.759,5.407,5.518,10.815,8.277,16.222
			c-3.899,4.768-18.696,9.708-24.83,12.911c-14.565,7.614-29.135,15.23-43.7,22.843c-6.026,3.51-14.413,9.886-21.85,10.925
			C54.005,41.631,39.877,20.549,25.753-0.526c-10.041,0-20.085,0-30.127,0c0,23.393,0,46.792,0,70.185
			c22.731,8.276,45.468,16.554,68.199,24.83c5.522,2.157,19.669,5.161,22.512,9.27c-3.09,8.386-6.18,16.775-9.27,25.161
			c-10.262-3.421-20.527-6.842-30.789-10.263c-16.883-5.848-33.77-11.698-50.652-17.546c0,14.014,0,28.031,0,42.045
			c14.345,4.855,28.693,9.712,43.038,14.567c2.241,0.783,14.119,4.038,14.567,5.297c-1.986,4.083-3.973,8.167-5.959,12.249
			c-3.47,1.974-10.214-1.047-14.236-2.317c-12.358-3.862-24.72-7.725-37.079-11.587c-0.11,0-0.221,0-0.331,0
			c0,11.145,0,22.293,0,33.437c10.152,2.979,20.306,5.959,30.458,8.939c0.681,4.83-5.424,10.908-6.952,15.56
			c-5.419,3.057-16.602-2.932-23.505-3.311c0,16.993,0,33.991,0,50.983c24.496-13.903,49-27.811,73.496-41.714
			c7.062-4.083,14.126-8.167,21.188-12.249c4.414,0.331,8.829,0.662,13.242,0.993c4.193,0.11,8.387,0.221,12.58,0.331
			c3.236,1.081,19.359,23.321,22.512,27.478c17.876,22.4,35.756,44.806,53.632,67.205c5.186,6.4,10.374,12.802,15.56,19.202
			c1.237,1.584,6.361,5.037,5.628,7.945c-3.31,2.317-6.622,4.635-9.932,6.952c-9.379,6.4-18.761,12.802-28.14,19.202
			c-26.823,17.936-53.115,36.933-80.117,54.956c-8.878,5.926-24.427,19.411-34.099,22.512c-5.415-4.408-10.577-17.468-14.567-23.836
			c-16.993-28.137-33.991-56.283-50.983-84.421c0,125.46,0,250.957,0,376.417C2.245,719.227,5.009,735.25,9.2,748.665
			c4.525,14.485,12.584,32.317,14.236,48.004c-0.221,0.11-0.441,0.221-0.662,0.331c-9.048-2.317-18.099-4.635-27.147-6.952
			c0,21.627,0,43.261,0,64.888c23.724-2.979,47.454-5.959,71.178-8.939c0.11,0,0.221,0,0.331,0
			c2.624,4.264,2.819,10.931,4.304,16.222c3.862,16.11,7.725,32.225,11.587,48.335c8.112,31.673,14.637,63.666,22.843,96.008
			c3.752,16.11,7.504,32.225,11.256,48.335c-7.114,3.516-28.714,4.845-38.072,5.959c-2.694-3.573-2.619-9.67-3.973-14.567
			c-3.31-13.572-6.622-27.148-9.932-40.721c-5.959-24.386-11.919-48.779-17.877-73.165c-3.752-16-7.504-32.004-11.256-48.004
			c-5.699-2.464-31.925,2.448-40.389,2.648c0,25.158,0,50.324,0,75.482c10.152,2.979,20.306,5.959,30.458,8.939
			c-0.662,8.717-1.324,17.437-1.986,26.154c-4.842,1.072-23.214-5.663-28.471-7.614c0,9.269,0,18.54,0,27.809
			c5.517,1.103,11.036,2.207,16.553,3.311c0.331,0.441,0.662,0.883,0.993,1.324c-1.545,7.062-3.09,14.126-4.635,21.188
			c-0.221,0.221-0.441,0.441-0.662,0.662c-4.083-0.441-8.167-0.883-12.249-1.324c0,12.358,0,24.72,0,37.079
			c62.013,0,124.044,0,186.056,0c-2.869-10.483-5.739-20.968-8.608-31.451c3.516-4.327,12.725-6.015,17.877-8.608
			c13.572-6.289,27.148-12.581,40.721-18.87c4.939-2.183,10.134-6.734,16.222-7.283c3.284,2.629,21.833,24.086,22.843,27.478
			c-3.272,5.6-16.804,17.88-22.512,21.188c-5.65-4.37-15.979-22.023-21.188-23.836c-8.496,5.627-16.995,11.257-25.492,16.884
			c2.759,8.165,5.518,16.333,8.276,24.499c21.296,0,42.599,0,63.895,0c0.871-2.849,3.882-3.969,5.959-5.628
			c8.607-7.945,17.216-15.892,25.823-23.836c0.871-3.155-10.383-15.862-12.58-18.87c-11.696-16.772-23.396-33.549-35.092-50.321
			c-28.248,11.476-56.504,22.955-84.752,34.43c-2.792-3.091-8.984-17.796-9.601-22.512c25.489-9.379,50.986-18.761,76.475-28.14
			c3.171-1.199,23.132-9.055,24.499-8.276c22.289,33.875,44.585,67.761,66.874,101.636c-1.58,6.221-11.947,15.278-15.891,20.526
			c0,0.331,0,0.662,0,0.993c65.433,0,130.886,0,196.319,0c0.11-0.221,0.221-0.441,0.331-0.662c0-0.11,0-0.221,0-0.331
			c-6.503-3.36-11.28-9.506-16.884-13.905c-14.896-12.689-29.797-25.383-44.693-38.072c-4.421-3.495-19.568-13.492-21.188-18.208
			c4.414-6.952,8.829-13.905,13.242-20.857c6.09,0.799,17.854,14.602,22.843,18.539c15.227,13.131,30.459,26.266,45.686,39.396
			c5.791,4.567,20.014,14.07,23.174,20.195c0.735,4.716-8.135,9.219-9.601,13.905c25.048,0,50.103,0,75.151,0
			c0.441-9.6,0.883-19.203,1.324-28.802c0.883-14.786,1.766-29.576,2.648-44.362c7.503-1.655,15.009-3.311,22.512-4.966
			c2.121,6.935,0.662,18.307,0.662,26.485c0.11,17.214,0.221,34.432,0.331,51.646c12.138,0,24.279,0,36.417,0
			c-1.876-30.896-3.752-61.801-5.628-92.697c3.73-1.961,12.408-1.683,17.546-1.655c3.287,6.091,0.811,17.41,1.986,25.161
			c1.324,23.062,2.649,46.13,3.973,69.192c13.682,0,27.369,0,41.052,0c-0.772-29.351-1.545-58.711-2.317-88.062
			c6.812-4.002,20.032-1.895,28.802-3.311c14.345-1.434,28.693-2.869,43.038-4.304c7.614-0.662,15.23-1.324,22.843-1.986
			c2.521,4.971,5.072,30.071,4.966,37.41c-24.496,2.648-49,5.297-73.496,7.945c2.207,17.434,4.414,34.874,6.621,52.308
			c128.88,0,257.799,0,386.679,0c-0.82-11.983-9.253-25.211-12.249-36.748c0-0.11,0-0.221,0-0.331
			c9.348-5.49,22.631-7.208,33.437-10.594c18.427-5.738,36.86-11.477,55.287-17.215c0.11,0,0.221,0,0.331,0
			c7.503,21.627,15.009,43.261,22.512,64.888c32.993,0,65.995,0,98.987,0c0.07-4.078,12.551-19.311,15.56-23.836
			c1.545-2.317,3.09-4.635,4.635-6.952c4.855,1.545,9.712,3.09,14.567,4.635c4.396,11.97-0.202,14.992-4.635,25.492
			c2.754,1.978,22.338,0.742,27.478,0.662c0.039-3.857,2.375-8.189,3.642-11.918c3.31-10.262,6.621-20.527,9.932-30.789
			c7.062-3.31,14.126-6.622,21.188-9.932c2.979,0.993,5.959,1.987,8.939,2.98c2.086,3.697-1.84,9.947-3.311,13.573
			c-4.414,12.027-8.829,24.058-13.243,36.086c19.2,0,38.405,0,57.605,0c0.552-1.434,1.104-2.869,1.655-4.304
			c3.2-4.745,6.401-9.491,9.601-14.236c3.102,0.171,24.33,17.089,24.499,18.539c32.551,0,65.112,0,97.663,0
			c3.033-2.962,7.716-13.974,10.263-18.208c7.614-12.579,15.229-25.162,22.843-37.741c4.61-2.556,15.083-2.303,21.519-2.317
			c10.152,13.131,20.306,26.266,30.458,39.396c4.334,5.659,12.169,11.864,14.567,18.87c21.406,0,42.819,0,64.226,0
			c-10.372-21.186-20.748-42.378-31.12-63.564c1.545-10.814,3.09-21.63,4.635-32.444c2.538-22.51,5.077-45.027,7.614-67.536
			c0.221-0.221,0.441-0.441,0.662-0.662c9.49,1.434,18.982,2.869,28.471,4.304c1.863,4.43-2.186,39.69-3.311,46.68
			c-5.575,34.634-1.695,76.298-1.655,113.223c17.324,0,34.653,0,51.977,0c3.751-38.951,7.504-77.914,11.256-116.865
			c25.82-1.655,51.648-3.311,77.468-4.966c0-26.041,0-52.09,0-78.13c-29.792,2.648-59.594,5.297-89.386,7.945
			c-3.825-2.221-11.562-18.559-14.236-23.174c0-0.441,0-0.883,0-1.324c34.537-3.972,69.085-7.946,103.622-11.918
			c0-8.276,0-16.554,0-24.83c-10.372,1.434-20.748,2.869-31.12,4.304c-35.641,5.186-71.292,10.374-106.933,15.56
			c-2.957-3.496-17.224-24.141-17.546-28.14c51.861-8.496,103.738-16.995,155.599-25.492c0-11.365,0-22.734,0-34.099
			c-44.137,7.614-88.287,15.23-132.425,22.843c-11.476,2.096-22.955,4.194-34.43,6.29c-4.603,1.008-11.17,3.365-15.891,2.648
			c-3.752-8.717-7.504-17.437-11.256-26.154c0-0.11,0-0.221,0-0.331c6.069-1.324,12.14-2.649,18.208-3.973
			c17.655-3.531,35.315-7.063,52.97-10.594c40.937-7.945,81.887-15.892,122.824-23.836c0-39.061,0-78.134,0-117.196
			c-0.863,0.425-6.881,19.99-7.615,23.174c-4.701,2.08-15.932-2.982-20.857-4.635c-20.744-6.179-41.495-12.36-62.24-18.539
			c-0.331-0.331-0.662-0.662-0.993-0.993c4.855-6.841,9.712-13.685,14.567-20.526c6.51,1.655,13.022,3.311,19.532,4.966
			c18.959,5.227,39.849,7.759,57.274,15.229c0.11-8.276,0.221-16.554,0.331-24.83c-17.655-5.517-35.315-11.036-52.97-16.553
			c-0.727-3.777,6.66-16.74,8.607-20.526c3.872-0.513,8.882,1.391,12.58,2.317c10.593,2.317,21.189,4.635,31.782,6.952
			c0-9.82,0-19.644,0-29.464c-5.421,0.685-22.002-4.543-27.809-6.621c-0.09-6.835,7.493-14.201,9.601-20.857
			c3.857-2.234,13.653,0.911,18.208,2.317c0-31.448,0-62.905,0-94.352C1918.107,406.457,1904.466,400.829,1898.566,399.065z
			 M1776.074,537.117c4.745-9.048,9.491-18.099,14.236-27.147c16.22-31.448,32.446-62.905,48.666-94.352
			c6.4,2.317,12.802,4.635,19.202,6.952c-20.855,45.351-41.716,90.715-62.571,136.066c-3.345,0.551-21.087-8.354-24.499-10.594
			C1771.661,543.672,1774.351,540.502,1776.074,537.117z M1667.155,154.741c11.413,1.732,25.42,10.184,35.755,14.567
			c22.4,9.269,44.806,18.54,67.205,27.809c1.845,10.296,0.545,25.347-0.993,35.424c-0.772,16.441-1.545,32.887-2.318,49.328
			c-1.986,46.013-3.973,92.04-5.959,138.052c-31.889,16.441-63.788,32.887-95.677,49.328c-4.492,2.617-30.14,17.596-33.437,16.884
			c-40.165-52.744-80.342-105.503-120.506-158.247c4.855-5.517,9.712-11.036,14.567-16.553
			c11.653-14.562,25.469-27.273,37.079-41.714c18.009-22.4,39.953-41.603,57.936-63.895
			C1636.254,188.732,1651.707,171.734,1667.155,154.741z M1573.464,680.798c-44.468,10.372-88.95,20.748-133.418,31.12
			c-3.105-1.84-12.547-17.33-13.905-21.188c4.114-3.552,27.388-7.498,34.43-9.601c30.786-8.386,61.58-16.775,92.366-25.161
			c23.503-39.282,47.013-78.576,70.516-117.858c14.124-0.662,28.252-1.324,42.376-1.986c0.552,0,1.104,0,1.655,0
			c0.11,0.11,0.221,0.221,0.331,0.331C1636.369,584.564,1604.912,632.688,1573.464,680.798z M1584.058,797.993
			c-3.417,0.653-24.009-12.026-27.809-14.567c0.802-6.856,14.889-27.301,18.871-33.768c8.739,1.28,18.628,11.311,27.147,14.567
			C1603.227,766.463,1586.724,796.154,1584.058,797.993z M1515.529,528.841c-1.377,0.806-6.385,5.249-8.608,4.304
			c-7.172-26.703-14.347-53.414-21.519-80.117c0-0.221,0-0.441,0-0.662c-10.041,0.912-16.721,9.959-26.816,10.594
			c-4.303-11.696-8.608-23.396-12.911-35.092c-1.284-3.48-5.074-8.753-3.973-12.911c22.51-7.503,45.026-15.009,67.536-22.512
			c0.552,0,1.104,0,1.655,0c10.041,40.827,20.085,81.666,30.127,122.493C1533.318,520.547,1523.967,523.898,1515.529,528.841z
			 M1580.417,535.462c0.331,0,0.662,0,0.993,0c0,0.331,0,0.662,0,0.993c-13.797,27.189-32.044,52.813-48.666,77.799
			c-3.33,5.006-13.289,24.406-18.208,25.823c-6.4-7.614-12.802-15.23-19.202-22.843c10.814-17.324,21.63-34.653,32.444-51.977
			c4.193-6.4,8.387-12.802,12.58-19.202C1553.709,542.525,1567.065,538.993,1580.417,535.462z M1443.026,539.103
			c-0.221,0.331-0.441,0.662-0.662,0.993c-22.179,2.979-44.365,5.959-66.543,8.939c-0.331-0.11-0.662-0.221-0.993-0.331
			c-2.347-4.574-4.366-18.989-4.304-25.161c20.744-4.965,41.495-9.932,62.24-14.898
			C1436.127,509.781,1441.433,534.04,1443.026,539.103z M1430.115,387.808c-3.421-8.276-6.842-16.554-10.263-24.83
			c0.21-1.324-0.026-0.985,0.662-1.655c23.834-6.289,47.675-12.581,71.509-18.87c0.441,0.11,0.883,0.221,1.324,0.331
			c1.759,2.897,3.888,7.042,3.973,11.256C1474.921,365.295,1452.514,376.553,1430.115,387.808z M1425.48,479.181
			c-19.2,5.076-38.405,10.153-57.605,15.229c-1.811-2.305-8.686-23.807-7.946-26.485c2.116-3.329,11.399-3.721,15.56-4.966
			c13.903-3.862,27.811-7.725,41.714-11.587c0.552,0.221,1.104,0.441,1.655,0.662
			C1421.065,461.082,1423.273,470.133,1425.48,479.181z M1353.308,447.731c-0.11,0-0.221,0-0.331,0
			c-1.8-3.191-9.668-22.113-8.939-24.83c2.13-3.467,10.591-4.662,14.567-6.29c13.021-5.186,26.045-10.374,39.065-15.56
			c0.331,0,0.662,0,0.993,0c2.477,2.486,9.765,21.024,9.932,25.492C1390.168,433.605,1371.736,440.669,1353.308,447.731z
			 M1354.633,616.572c-14.786,5.076-29.576,10.153-44.362,15.229c-2.716-2.056-6.979-8.139-7.614-11.918
			c2.037-2.305,5.889-2.665,8.939-3.973c12.469-5.186,24.941-10.374,37.41-15.56c0.331,0,0.662,0,0.993,0
			C1352.207,604.353,1354.451,611.283,1354.633,616.572z M1382.442,376.883c-2.179,2.613-6.779,3.688-9.932,5.297
			c-11.255,5.296-22.513,10.595-33.768,15.891c-2.315-0.392-12.41-23.426-12.58-27.478c10.703-4.855,21.41-9.712,32.113-14.567
			c0.662,0,1.324,0,1.986,0c7.393,6.62,14.788,13.243,22.181,19.864C1382.442,376.221,1382.442,376.552,1382.442,376.883z
			 M1339.073,551.022c2.096,11.255,4.194,22.513,6.29,33.768c-1.139,1.847-19.538,8.557-23.174,8.608
			c-8.827-45.13-17.657-90.274-26.485-135.404c4.025-4.459,15.888-3.576,21.519-6.29c0.331,0,0.662,0,0.993,0
			c0.11,0,0.221,0,0.331,0c4.423,7.932,4.165,20.625,6.29,30.127C1329.582,504.891,1334.328,527.96,1339.073,551.022z
			 M1309.277,665.569c22.069-4.414,44.144-8.829,66.212-13.242c0.552,0.11,1.104,0.221,1.655,0.331
			c1.498,5.556,7.672,29.101,6.621,33.437c-30.455,5.738-60.918,11.477-91.373,17.215c-0.331-0.11-0.662-0.221-0.993-0.331
			c-1.876-10.593-3.752-21.189-5.628-31.782C1290.077,666.792,1302.373,667.067,1309.277,665.569z M1382.442,603.991
			c-2.333-5.044-2.389-21.459-2.317-28.14c22.069-1.545,44.144-3.09,66.212-4.635c1.435,0,2.869,0,4.304,0
			c0.221,0.331,0.442,0.662,0.662,0.993c1.214,9.82,2.428,19.644,3.642,29.464c-4.712,2.129-18.759,0.991-25.161,0.993
			C1414.005,603.109,1398.221,603.55,1382.442,603.991z M1387.408,630.807c24.717-0.993,49.441-1.987,74.158-2.98
			c0.772,0,1.545,0,2.318,0c0.221,0.11,0.441,0.221,0.662,0.331c0.662,7.724,1.324,15.45,1.986,23.174
			c-4.693,2.367-11.992,1.609-17.877,2.648c-14.786,1.766-29.576,3.531-44.362,5.297c-5.627-9.048-11.257-18.099-16.884-27.147
			C1387.408,631.69,1387.408,631.249,1387.408,630.807z M1688.011,554.994c7.614-0.331,15.23-0.662,22.843-0.993
			c4.855,0,9.712,0,14.567,0c0.11,0.441,0.221,0.883,0.331,1.324c-24.386,43.475-48.779,86.963-73.165,130.438
			c-13.241,1.324-26.486,2.649-39.727,3.973c-0.221-0.441-0.441-0.883-0.662-1.324
			C1637.467,643.944,1662.743,599.463,1688.011,554.994z M1716.814,512.95c1.663-2.763,6.495-3.946,9.27-5.628
			c12.138-7.503,24.279-15.009,36.417-22.512c0.552,0,1.104,0,1.655,0c2.207,5.517,4.414,11.036,6.621,16.553
			c-10.041,9.048-20.085,18.099-30.127,27.147c-3.497,2.808-6.958,8.628-11.918,9.601
			C1726.807,536.226,1716.29,514.916,1716.814,512.95z M1563.864,106.737c3.482,1.164,10.225,15.775,12.58,19.533
			c11.807,18.758,23.617,37.522,35.424,56.28c-0.495,1.692-29.218,13.446-33.106,13.905c-3.03-3.874-4.02-10.034-5.959-14.898
			c-5.407-14.345-10.815-28.693-16.222-43.038c-2.37-6.418-7.649-14.199-7.945-21.519
			C1553.71,113.58,1558.788,110.158,1563.864,106.737z M1500.3,120.973c5.848,2.096,11.698,4.194,17.546,6.29
			c8.276,27.696,16.554,55.4,24.83,83.096c-3.613,2.659-27.676,1.759-34.43,1.655c-3.038-5.823-1.419-14.949-2.648-22.512
			c-1.434-14.786-2.869-29.576-4.304-44.362C1500.501,138.87,1497.911,126.179,1500.3,120.973z M1486.395,235.189
			c2.538,7.724,5.077,15.45,7.614,23.174c3.31,10.041,6.622,20.085,9.932,30.127c1.053,3.316,2.913,6.38,2.979,10.594
			c-4.87,3.344-18.164,11.021-24.167,11.918c-0.221-0.11-0.441-0.221-0.662-0.331c-1.766-10.924-3.531-21.851-5.297-32.775
			c-2.353-11.377-5.733-24.111-5.628-36.748c4.414-1.986,8.829-3.973,13.242-5.959
			C1485.071,235.189,1485.733,235.189,1486.395,235.189z M1451.965,151.762c1.545-2.317,3.09-4.635,4.635-6.952
			c3.09-0.552,6.18-1.104,9.27-1.655c3.239,0.297,13.247,26.06,13.573,30.789c-4.359,3.003-11.808,7.834-17.546,8.608
			C1460.115,180.204,1451.106,155.137,1451.965,151.762z M1394.029,102.434c3.862-14.345,7.725-28.693,11.587-43.038
			c1.655-5.738,3.311-11.477,4.966-17.215c4.666,0.77,30.044,12.352,32.113,15.229c1.537,4.407-2.802,12.724-3.973,16.884
			c-4.083,14.786-8.167,29.576-12.249,44.362c-1.655,6.179-3.311,12.36-4.966,18.539c-1.044,0.89-6.285-0.825-7.945-1.324
			c-8.607-2.538-17.216-5.077-25.823-7.614C1387.16,120.806,1391.895,109.7,1394.029,102.434z M1246.376,146.465
			c2.358-5.97,7.264-7.48,12.911-10.263c23.745-0.766,22.28,25.94,4.304,29.796C1250.858,168.729,1241.997,157.549,1246.376,146.465
			z M1264.253,210.029c8.754-4.523,28.515-2.833,39.727-4.635c39.503-4.083,79.017-8.167,118.52-12.249c1.435,0,2.869,0,4.304,0
			c0.221,13.241,0.441,26.486,0.662,39.727c0.11,28.358,0.221,56.725,0.331,85.083c-12.248,0.11-24.5,0.221-36.748,0.331
			c-1.832-4.146-0.112-14.265,0.662-19.202c1.214-21.406,2.428-42.819,3.642-64.226c-2.084-1.717-21.001,0.606-25.492,0.662
			c-23.503,1.103-47.013,2.207-70.516,3.311c-5.296,53.185-10.594,106.386-15.891,159.571c-1.656,2.696-7.255,2.641-10.594,3.642
			c-9.379,2.648-18.761,5.297-28.14,7.945c-0.11-0.11-0.221-0.221-0.331-0.331C1251.01,343.122,1257.633,276.565,1264.253,210.029z
			 M1185.46,106.075c2.27-7.716,7.499-9.808,14.567-12.911c25.277-0.615,25.791,32.236,4.304,35.092
			C1192.787,129.791,1181.792,118.546,1185.46,106.075z M1134.477,131.898c0.331,0,0.662,0,0.993,0
			c4.04,3.38,5.757,12.468,7.945,17.546c6.179,14.345,12.36,28.693,18.539,43.038c3.936-0.421,6.175-2.994,8.939-4.635
			c12.579-6.952,25.162-13.905,37.741-20.857c1.546-0.251,15.209,15.949,16.222,18.871c-3.617,4.049-16.915,8.453-22.512,10.925
			c-14.124,6.731-28.252,13.464-42.376,20.195c-5.393,2.382-11.559,7.553-18.208,7.945c-4.203-4.248-7.676-17.961-10.263-24.167
			c-5.848-13.903-11.698-27.81-17.546-41.714c-1.85-4.365-5.367-9.074-5.628-14.567
			C1117.04,140.285,1125.76,136.091,1134.477,131.898z M1002.384,214.663c4.802-11.4,7.901-25.719,14.898-35.424
			c17.657,7.349,34.464,18.315,50.652,27.809c31.516,18.482,63.801,35.451,95.015,53.963c12.689,7.283,25.383,14.567,38.072,21.85
			c4.083,2.427,8.167,4.856,12.249,7.283c-16.882,41.82-33.77,83.652-50.652,125.472c-0.552,0.221-1.104,0.441-1.655,0.662
			c-9.49-6.069-18.982-12.139-28.471-18.208c1.287-10.151,8.705-20.626,12.58-29.464c9.489-21.627,18.982-43.261,28.471-64.888
			c-3.384-5.149-31.791-17.57-39.065-21.85c-32.551-18.317-65.112-36.639-97.663-54.956c-3.2,6.4-6.401,12.802-9.601,19.202
			c-7.732,13.279-15.433,28.054-21.188,42.707c33.655,17.986,67.319,35.977,100.974,53.963c-0.842,7.787-8.2,22.355-11.918,28.802
			c-8.604-2.067-23.846-14.982-31.782-19.864c-20.855-13.241-41.716-26.486-62.571-39.727c-7.668-4.817-25.002-13.234-30.127-19.533
			C981.195,266.532,991.791,240.594,1002.384,214.663z M1110.972,311.995c-7.562-0.944-14.195-6.173-20.526-8.939
			c-15.117-6.731-30.238-13.464-45.355-20.195c-0.962-4.996-1.161-15.108,0.331-19.533c5.237,1.196,9.736,5.659,13.905,8.276
			c12.469,7.834,24.941,15.671,37.41,23.505c4.682,3.046,14.014,6.27,16.553,11.256
			C1113.786,308.159,1111.984,310.599,1110.972,311.995z M1060.981,380.525c-1.401,6.872-13.005,17.605-17.215,23.174
			c-23.503-7.614-47.013-15.23-70.516-22.843c-0.331-0.441-0.662-0.883-0.993-1.324c3.641-11.365,7.284-22.734,10.925-34.099
			c8.809,1.107,17.302,7.288,24.83,10.594C1025.667,364.192,1043.327,372.36,1060.981,380.525z M968.946,500.7
			c2.284-3.115,8.851-4.328,12.58-5.959c11.476-5.076,22.955-10.153,34.43-15.229c39.723-17.655,79.459-35.315,119.182-52.97
			c0.552,0,1.104,0,1.655,0c29.682,58.592,59.373,117.201,89.055,175.794c-3.374,3.737-11.868,4.672-16.884,6.621
			c-11.696,4.193-23.396,8.387-35.093,12.58c-42.151,14.565-84.314,29.135-126.465,43.7c-3.749-0.639-4.284-5.885-5.628-8.939
			c-4.634-9.6-9.27-19.203-13.905-28.802c-13.462-28.579-26.928-57.166-40.389-85.745c-6.289-13.572-12.581-27.148-18.87-40.721
			C968.726,500.921,968.836,500.811,968.946,500.7z M1013.971,648.023c0.552,0.221,1.104,0.441,1.655,0.662
			c9.269,49.765,18.54,99.544,27.809,149.309c0,0.11,0,0.221,0,0.331c-10.151,2.759-20.306,5.518-30.458,8.276
			c-13.682,3.531-27.369,7.063-41.052,10.594c-8.607,2.096-17.216,4.194-25.823,6.29c-2.823-4.983-6.324-26.811-6.952-33.768
			c-4.317-1.705-25.852,3.436-32.113,4.635c-29.682,4.303-59.373,8.608-89.055,12.911c-4.031-5.338-4.298-21.262-5.959-29.133
			c-4.083-23.062-8.167-46.13-12.249-69.192c36.523-8.607,73.058-17.216,109.581-25.823c0.221,0.11,0.441,0.221,0.662,0.331
			c1.876,12.579,3.752,25.162,5.628,37.741c-7.334,3.842-19.573,2.681-28.471,4.304c-17.434,2.427-34.874,4.856-52.308,7.283
			c-0.221,0.221-0.441,0.441-0.662,0.662c1.986,12.358,3.973,24.72,5.959,37.079c1.117,1.387,25.001-3.888,29.133-4.966
			c30.013-6.51,60.035-13.022,90.049-19.533c0.11,0,0.221,0,0.331,0c3.09,14.565,6.18,29.135,9.27,43.7
			c4.16,1.754,24.442-4.827,29.796-6.29c2.215-0.605,8.765-0.775,9.601-2.648c-6.51-33.434-13.022-66.878-19.533-100.312
			c-0.221-0.221-0.441-0.441-0.662-0.662c-10.262,1.545-20.527,3.09-30.789,4.635c-1.323-0.827-6.171-20.281-5.628-22.181
			c1.983-2.868,10.754-2.694,14.567-3.642C982.187,655.086,998.081,651.553,1013.971,648.023z M923.26,598.032
			c6.587,4.281,8.89,24.214,8.608,36.748c-0.331,0.221-0.662,0.441-0.993,0.662c-28.358,0.883-56.725,1.766-85.083,2.648
			c-2.57-4.735-2.821-11.087-4.304-16.884c-3.752-15.448-7.505-30.901-11.256-46.349c-2.096-9.048-4.194-18.099-6.29-27.147
			c5.157,0.789,33.547,12.842,35.424,15.891c3.2,13.793,6.401,27.59,9.601,41.383c0.441,0.441,0.883,0.883,1.324,1.324
			C880.339,602.731,913.561,591.728,923.26,598.032z M916.308,551.684c10.041-5.517,20.085-11.036,30.127-16.553
			c0.221,0,0.441,0,0.662,0c-1.545,10.593-3.09,21.189-4.635,31.782c0,0.221,0,0.441,0,0.662
			c-9.771-1.454-17.129-10.85-25.823-14.236C916.528,552.787,916.418,552.236,916.308,551.684z M961.332,434.157
			c-2.427,24.827-4.856,49.662-7.283,74.489c-0.221,0.221-0.441,0.441-0.662,0.662c-2.728,0.759-18.073-3.515-19.202-5.628
			c3.862-26.924,7.725-53.855,11.587-80.779C951.667,424.087,956.921,430.852,961.332,434.157z M846.785,429.191
			c12.138-46.013,24.279-92.04,36.417-138.052c3.75-2.144,8.663-2.121,13.574-3.311c16.662-3.421,33.328-6.842,49.99-10.263
			c0.552,0,1.104,0,1.655,0c0.221,0.331,0.441,0.662,0.662,0.993c-7.283,36.854-14.567,73.72-21.85,110.574
			c-7.18,28.86-10.871,59.089-17.215,89.055c-3.752,20.082-7.504,40.171-11.256,60.253c-2.003,0.833-19.145-3.151-20.526-4.966
			c0.883-6.179,1.766-12.36,2.648-18.539c2.648-15.227,5.297-30.459,7.945-45.686c6.179-32.33,12.36-64.67,18.539-97.001
			c5.296-22.731,10.594-45.468,15.891-68.199c0-0.11,0-0.221,0-0.331c-6.841,0.221-13.685,0.441-20.526,0.662
			c-3.457,6.101-4.101,14.324-6.29,21.519c-4.701,15.453-8.11,31.634-12.911,47.673c-9.762,32.609-16.42,66.268-25.161,100.312
			c-3.641,15.338-7.284,30.68-10.925,46.018c-0.221,0.221-0.441,0.441-0.662,0.662c-5.684-0.479-16.797-2.673-19.864-6.29
			C833.542,485.916,840.164,457.549,846.785,429.191z M699.463,189.834c2.979,14.345,5.959,28.693,8.939,43.038
			c1.298,5.538,1.106,13.503,4.635,16.884c14.896,13.131,29.797,26.266,44.693,39.396c15.227,14.565,30.459,29.135,45.686,43.7
			c11.807,11.365,23.617,22.734,35.424,34.099c0.846,3.341-5.501,9.731-6.952,11.918c-6.841,10.924-13.685,21.851-20.526,32.775
			c-26.151,42.261-52.31,84.535-78.462,126.796c-0.441,0.11-0.883,0.221-1.324,0.331c-16.662-15.448-33.328-30.901-49.99-46.349
			c-6.289-6.289-12.581-12.581-18.87-18.87c-10.523-8.494-21.302-19.609-29.796-30.127c-2.317-2.538-4.635-5.077-6.952-7.614
			c-0.91-3.052,3.042-6.601,4.304-8.939c4.745-8.496,9.491-16.995,14.236-25.492c18.207-34.096,36.419-68.202,54.625-102.298
			c-1.291-8.313-18.702-21.181-22.512-29.133c-5.186-30.124-10.374-60.256-15.56-90.38c11.034-2.869,22.072-5.739,33.106-8.608
			C698.303,172.308,698.324,185.299,699.463,189.834z M721.644,663.582c6.51,8.938,13.022,17.878,19.533,26.816
			c2.79,3.734,8.719,8.147,9.27,13.573c-2.748,3.683-12.751,14.318-16.884,15.891c-16.331-21.517-32.666-43.04-48.997-64.557
			c-3.698-5.01-15.641-16.556-16.553-22.512c5.303-6.934,18.157-13.816,25.492-19.202c16.839-12.364,34.259-24.884,50.652-38.072
			c0.552,0,1.104,0,1.655,0c14.234,19.2,28.473,38.405,42.707,57.605c-1.277,9.748-11.501,16.667-14.898,25.492
			c-7.64-1.227-24.048-25.315-32.113-30.127c-9.489,7.614-18.982,15.23-28.471,22.843
			C714.253,656.255,718.982,659.834,721.644,663.582z M551.809,564.926c-6.884-2.925-19.22-5.175-23.836-10.594
			c-1.37-7.17-3.386-26.818-1.655-33.437c7.062,2.538,14.126,5.077,21.188,7.614c15.889,5.959,31.784,11.919,47.673,17.877
			c12.138,4.524,24.279,9.049,36.417,13.574c5.844,2.276,12.22,3.527,17.215,6.621c0.331,12.358,0.662,24.72,0.993,37.079
			c-13.021,15.448-26.045,30.901-39.065,46.349c-15.889-1.876-31.784-3.752-47.673-5.628c-0.11-0.441-0.221-0.883-0.331-1.324
			c11.145-12.469,22.293-24.941,33.437-37.41c4.068-5.039,12.485-10.08,14.567-16.553
			C591.097,581.039,571.45,572.981,551.809,564.926z M345.227,804.946c-2.096-4.303-4.194-8.608-6.29-12.911
			c4.017-5.157,14.51-7.871,20.526-10.925c16.772-8.496,33.549-16.995,50.321-25.492c0.552,0,1.104,0,1.655,0
			c2.529,4.347,10.377,25.26,10.594,30.458C396.434,792.365,370.826,798.656,345.227,804.946z M399.521,860.564
			c-0.978,7.167-8.416,14.811-11.918,20.526c-11.365,19.089-22.734,38.184-34.099,57.274c-0.662,0.331-1.324,0.662-1.986,0.993
			c-4.193-3.2-8.387-6.401-12.58-9.601c-1.326-1.888-9.756-26.246-9.27-28.14c14.896-19.972,29.797-39.95,44.693-59.922
			C378.942,842.623,396.626,856.864,399.521,860.564z M333.971,616.903c5.738-5.628,11.477-11.257,17.215-16.884
			c4.843,3.09,9.965,16.708,13.242,22.181c10.926,18.244,22.333,36.751,32.113,55.949c0,0.11,0,0.221,0,0.331
			c-4.414-4.083-8.829-8.167-13.242-12.249c-16.441-15.889-32.887-31.784-49.328-47.673
			C333.971,618.006,333.971,617.455,333.971,616.903z M272.394,625.841c-5.484,4.396-21.629,22.017-27.478,23.174
			c-4.764-3.669-7.754-10.914-13.242-13.573c-0.221-0.552-0.441-1.104-0.662-1.655c29.13-28.248,58.27-56.504,87.4-84.752
			c4.998,1.724,19.118,14.593,21.519,19.202C317.42,587.436,294.904,606.642,272.394,625.841z M404.156,612.599
			c-6.292-10.017-12.042-20.337-18.208-30.789c-1.523-2.581-4.103-5.223-4.635-8.608c4.88-5.737,15.695-6.777,21.85-11.256
			c0.331,0,0.662,0,0.993,0c8.938,15.669,17.878,31.342,26.816,47.011c26.151,41.599,52.31,83.211,78.461,124.81
			c-1.592,2.105-17.747,13.207-19.533,12.911c-3.723-2.153-5.973-8.905-8.277-12.58c-6.731-10.482-13.464-20.968-20.195-31.451
			C442.34,672.635,423.245,642.612,404.156,612.599z M503.805,669.542c-18.223-29.077-36.457-58.063-54.294-87.731
			c-6.49-10.795-14.439-21.044-19.864-32.775c3.189-4.808,13.531-6.492,18.208-9.932c0.552,0,1.104,0,1.655,0
			c24.702,39.88,47.767,80.196,72.502,119.844c6.621,10.703,13.243,21.41,19.864,32.113c2.633,4.221,8.035,9.233,8.608,14.898
			c-4.414,3.752-8.829,7.504-13.242,11.256c-0.331-0.11-0.662-0.221-0.993-0.331c-2.798-1.611-4.425-5.664-6.29-8.276
			C520.911,695.933,512.285,683.072,503.805,669.542z M608.752,388.14c0.143,6.172-2.207,22.25-4.635,28.14
			c-22.951-2.538-45.909-5.077-68.861-7.614c-1.279-5.071,0.503-23.286,1.986-28.471
			C561.077,382.842,584.918,385.491,608.752,388.14z M550.816,342.122c2.096-9.82,4.194-19.644,6.29-29.464
			c24.055,5.407,48.117,10.815,72.171,16.222c0.221,0.11,0.441,0.221,0.662,0.331c-1.545,8.827-3.09,17.657-4.635,26.485
			c-4.084,1.783-11.985-1.073-16.222-1.986c-14.014-2.538-28.031-5.077-42.045-7.614
			C562.118,345.03,553.245,345.742,550.816,342.122z M570.68,444.751c9.82,0,19.644,0,29.464,0
			c2.209,4.823,1.084,19.123,0.993,25.823c-6.13,3.37-16.698,2.02-24.499,3.311c-16.11,1.766-32.225,3.531-48.335,5.297
			c-0.221-0.331-0.441-0.662-0.662-0.993c-0.662-10.814-1.324-21.63-1.986-32.444C540.662,445.413,555.673,445.082,570.68,444.751z
			 M661.391,64.031c1.525,4.839,7.506,17.144,6.29,21.85c-6.4,2.207-12.802,4.414-19.202,6.621
			c-4.309,2.557-17.17,29.535-20.857,35.755c-15.447,26.061-29.795,53.043-45.355,79.455c-6.51,11.586-13.022,23.175-19.533,34.761
			c19.531,7.172,39.067,14.347,58.598,21.519c4.703,1.703,20.37,5.372,22.512,8.608c1.033,4.592-6.053,20.637-7.614,26.154
			c-4.699,1.879-27.061-7.929-32.775-9.932c-30.455-10.814-60.918-21.63-91.373-32.444c0.5-4.758,4.477-8.726,6.621-12.249
			c5.959-10.041,11.919-20.085,17.877-30.127c18.869-31.448,37.743-62.905,56.611-94.352c7.724-12.469,15.45-24.941,23.174-37.41
			c14.565-6.179,29.135-12.36,43.7-18.539C660.508,63.81,660.949,63.92,661.391,64.031z M479.307,149.775
			c42.592-43.696,85.197-87.405,127.79-131.1c5.754,1.516,12.912,13.25,17.546,17.215c-0.11,0.552-0.221,1.104-0.331,1.655
			c-44.247,42.261-88.508,84.535-132.756,126.796c-4.974-1.402-8.505-9.682-12.249-12.911
			C479.307,150.879,479.307,150.327,479.307,149.775z M469.706,310.009c9.239,3.678,37.731,11.965,42.707,17.877
			c-18.538,63.668-37.081,127.355-55.618,191.022c-0.221,0.221-0.441,0.441-0.662,0.662
			c-55.833-10.372-111.684-20.748-167.517-31.12c-0.221-0.11-0.441-0.221-0.662-0.331c19.862-74.812,39.729-149.647,59.591-224.459
			c10.749,0.575,29.014,10.077,38.734,13.905C414.085,288.379,441.9,299.195,469.706,310.009z M437.593,133.222
			c4.704,7.403,4.957,19.472,7.614,28.471c5.076,20.413,10.153,40.833,15.229,61.246c-0.11,0.221-0.221,0.441-0.331,0.662
			c-9.6,2.317-19.203,4.635-28.802,6.952c-3.259-2.942-4.817-17.526-6.29-22.843c-3.31-13.572-6.622-27.148-9.932-40.721
			c-2.144-8.212-5.723-17.492-5.959-26.816c8.938-2.317,17.878-4.635,26.816-6.952C436.49,133.222,437.041,133.222,437.593,133.222z
			 M407.135,16.027c5.093,0.405,8.673,4.701,12.249,6.952c11.586,6.952,23.175,13.905,34.761,20.857
			c0.221,0.331,0.441,0.662,0.662,0.993c-0.644,3.319-10.758,14.711-13.573,16.222c-16.662-9.158-33.328-18.32-49.99-27.478
			C393.055,26.7,403.003,21.422,407.135,16.027z M371.381,52.443c5.144,0.691,9.616,4.64,13.574,6.952
			c13.903,7.614,27.81,15.23,41.714,22.843c1.343,3.101-6.787,18.466-9.27,20.195c-20.744-10.041-41.495-20.085-62.24-30.127
			c-0.221-0.552-0.441-1.104-0.662-1.655C360.124,64.583,365.753,58.512,371.381,52.443z M339.93,155.735
			c9.49-2.317,18.982-4.635,28.471-6.952c0.331,0.11,0.662,0.221,0.993,0.331c2.556,1.753,4.834,19.099,5.959,23.505
			c5.186,22.841,10.374,45.689,15.56,68.53c-6.213,3.664-21.741,6.846-29.796,7.945c-0.11,0-0.221,0-0.331,0
			c-3.229-5.1-3.328-13.775-4.966-20.195c-3.752-16.662-7.504-33.328-11.256-49.99C343.068,173.001,338.349,161.865,339.93,155.735z
			 M260.144,254.06c1.876-23.062,3.752-46.13,5.628-69.192c9.173-5.555,24.335-2.424,34.761-6.621c0.883,0,1.766,0,2.648,0
			c0.11,0.11,0.221,0.221,0.331,0.331c-3.531,34.537-7.063,69.085-10.594,103.622c-11.476-0.11-22.955-0.221-34.43-0.331
			C256.429,277.251,259.229,259.691,260.144,254.06z M274.38,511.625c6.49,1.097,16.349,10.84,21.519,14.567
			c-1.383,6.067-15.076,20.022-19.202,25.492c-16.882,22.069-33.77,44.144-50.652,66.212c-0.552,0.11-1.104,0.221-1.655,0.331
			c-5.848-4.524-11.698-9.049-17.546-13.573c0-0.331,0-0.662,0-0.993C229.353,572.985,251.87,542.301,274.38,511.625z
			 M111.498,178.247c-4.669-5.17-7.9-13.654-10.925-20.195c6.51-4.083,13.022-8.167,19.533-12.249c0.552,0,1.104,0,1.655,0
			c3.139,6.097,9.202,14.524,9.601,22.181C126.17,172.177,117.883,175.659,111.498,178.247z M156.522,96.475
			c-7.834-6.952-15.671-13.905-23.505-20.857c4.01-6.302,13.18-10.807,19.202-15.229c13.793-10.703,27.59-21.41,41.383-32.113
			c0.552,0,1.104,0,1.655,0c3.531,4.965,7.063,9.932,10.594,14.898c-1.032,5.424-7.844,9.086-10.925,12.911
			c-12.027,13.241-24.058,26.486-36.086,39.727C158.067,96.033,157.294,96.254,156.522,96.475z M199.229,244.79
			c-2.961-2.152-3.838-17.329-4.966-22.181c-4.634-24.386-9.27-48.779-13.905-73.164c2.448-3.798,24.171-5.495,29.796-7.945
			c0.552,0,1.104,0,1.655,0c0.221,0.11,0.441,0.221,0.662,0.331c5.959,31.889,11.919,63.788,17.877,95.677
			C219.977,239.934,209.601,242.362,199.229,244.79z M187.311,418.928c5.194,0.842,8.669,7.375,12.249,10.263
			c11.807,10.593,23.617,21.189,35.424,31.782c-0.531,5.836-9.224,14.879-12.249,19.864c-3.67-0.977-5.35-4.528-7.945-6.621
			c-9.158-8.496-18.32-16.995-27.478-25.492c-3.6-2.901-11.396-7.693-12.911-12.249
			C178.703,430.626,183.008,424.776,187.311,418.928z M157.515,459.318c6.2,1.617,10.639,9.22,15.229,12.911
			c12.138,10.593,24.279,21.189,36.417,31.782c3.929,3.16,15.04,11.31,16.553,15.891c-5.296,4.745-10.595,9.491-15.891,14.236
			c-0.441,0-0.883,0-1.324,0c-4.965-4.745-9.932-9.491-14.898-14.236c-16.441-14.565-32.887-29.135-49.328-43.7
			C145.543,469.925,153.76,463.867,157.515,459.318z M35.023,580.817c-0.41-1.863,10.473-8.391,12.249-9.601
			c12.469-8.938,24.941-17.878,37.41-26.816c0-0.221,0-0.441,0-0.662c-9.379-10.593-18.761-21.189-28.14-31.782
			c-9.578,1.28-20.911,19.323-30.458,21.188c-6.289-6.841-12.581-13.685-18.87-20.526c0-0.441,0-0.883,0-1.324
			c18.427-16,36.86-32.004,55.287-48.004c0.331,0,0.662,0,0.993,0c5.186,5.738,10.374,11.477,15.56,17.215
			c11.243,13.946,24.17,26.635,35.424,40.721c5.855,7.329,17.913,16.301,21.519,24.83c0.11,0.331,0.221,0.662,0.331,0.993
			c-17.655,15.227-35.315,30.459-52.97,45.686c-5.234,4.166-14.12,15.626-20.526,17.215
			C53.563,600.24,44.291,590.527,35.023,580.817z M70.446,668.879c-1.322-4.235-7.939-19.786-6.952-23.174
			c2.334-3.954,24.309-12.476,29.796-14.898c28.468-14.014,56.945-28.031,85.414-42.045c0.331,0.11,0.662,0.221,0.993,0.331
			c3.821,2.386,9.656,25.386,11.918,31.12c7.724,21.076,15.45,42.157,23.174,63.233c3.862,10.924,7.725,21.851,11.587,32.775
			c-3.166,3.858-21.092,7.811-26.816,9.932c-0.662-0.11-1.324-0.221-1.986-0.331c-9.489-29.903-18.982-59.815-28.471-89.718
			c-0.331-0.331-0.662-0.662-0.993-0.993c-21.076,8.496-42.157,16.995-63.233,25.492c-1.709,3.961,4.237,17.72,5.628,22.181
			c6.179,20.855,12.36,41.716,18.539,62.571c-0.11,0.662-0.221,1.324-0.331,1.986c-10.593,2.979-21.189,5.959-31.782,8.939
			c-3.546-3.045-6.229-19.556-7.945-25.161C82.806,710.375,76.625,689.624,70.446,668.879z M106.532,856.922
			c-0.662-0.11-1.324-0.221-1.986-0.331c-2.59-8.047-8.845-16.561-9.27-25.492c41.71-15.007,83.432-30.018,125.141-45.024
			c11.157-4.37,28.575-7.706,37.741-14.236c2.828,0.313,10.896,19.695,11.587,23.505c-3.678,4.267-36.247,13.804-44.031,16.884
			C185.991,827.125,146.255,842.026,106.532,856.922z M128.382,910.554c-1.572-1.035-9.456-21.997-9.601-25.161
			c57.268-20.634,114.553-41.274,171.821-61.908c0.441,0.11,0.883,0.221,1.324,0.331c3.356,7.142,8.352,17.234,8.939,25.823
			c-42.813,15.227-85.639,30.459-128.452,45.686c-10.593,3.752-21.189,7.504-31.782,11.256
			C137.61,907.658,131.377,911.4,128.382,910.554z M318.411,911.216c-59.254,15.117-118.526,30.238-177.78,45.355
			c-3.31-6.841-6.622-13.685-9.932-20.526c3.651-4.286,37.092-11.043,45.355-13.573c30.455-8.496,60.918-16.995,91.373-25.492
			c12.199-3.678,27.119-4.927,37.741-10.925c0.552,0.11,1.104,0.221,1.655,0.331c3.365,2.025,9.554,18.701,11.587,23.174
			C318.411,910.113,318.411,910.664,318.411,911.216z M297.223,759.259c-17.986-11.365-35.977-22.734-53.963-34.099
			c0-0.441,0-0.883,0-1.324c20.634-17.655,41.274-35.315,61.908-52.97c5.567,1.022,14.083,11.686,18.539,15.229
			c18.427,15.669,36.86,31.342,55.287,47.011c-3.407,4.467-9.953,7.317-14.567,10.594c-14.345,10.152-28.693,20.306-43.038,30.458
			C314.161,772.822,303.405,763.142,297.223,759.259z M421.702,1072.443c-12.689,0.772-25.383,1.545-38.072,2.317
			c-3.375-1.972-13.407-21.787-16.222-26.485c-10.593-17.765-21.189-35.536-31.782-53.301c-3.443-5.603-13.452-17.579-13.905-24.499
			c4.303-2.317,8.608-4.635,12.911-6.952c0.552,0,1.104,0,1.655,0c28.358,35.972,56.725,71.954,85.083,107.926
			c0.11,0.221,0.221,0.441,0.331,0.662C421.702,1072.222,421.702,1072.333,421.702,1072.443z M404.487,991.333
			c-3.885-0.475-21.346-12.962-23.174-15.891c48.109-68.964,96.233-137.949,144.343-206.913
			c3.743,0.657,22.788,13.966,24.499,16.884c0.616,3.711-7.153,10.792-9.27,13.905c-9.379,13.131-18.761,26.266-28.14,39.396
			C476.662,889.582,440.569,940.465,404.487,991.333z M553.133,1038.344c-0.331,0.11-0.662,0.221-0.993,0.331
			c-24.275-18.096-48.558-36.198-72.833-54.294c-6.096-4.579-22.663-14.198-26.154-19.864c4.855-6.51,9.712-13.022,14.567-19.533
			c6.677,0.728,20.261,13.6,25.823,17.546c17.544,12.689,35.094,25.383,52.639,38.072c7.299,5.213,17.218,9.981,22.843,16.884
			C563.728,1024.438,558.43,1031.392,553.133,1038.344z M588.226,994.313c-0.441,0.11-0.883,0.221-1.324,0.331
			c-7.283-5.186-14.567-10.374-21.85-15.56c-16.114-11.35-31.752-23.13-47.673-34.43c-7.819-5.55-28.84-17.819-33.437-24.83
			c5.296-6.51,10.594-13.022,15.891-19.533c5.327,0.895,21.698,14.91,26.816,18.539c17.875,12.579,35.756,25.162,53.632,37.741
			c7.21,5.112,17.386,9.706,22.843,16.553C601.382,981.621,591.447,986.596,588.226,994.313z M641.196,939.356
			c-0.552,0.441-1.104,0.883-1.655,1.324c-19.972-14.455-39.95-28.914-59.922-43.369c-15.266-10.879-32.906-20.571-46.349-33.437
			c1.176-6.332,10.706-15.991,14.236-21.519c5.122,0.569,24.415,15.981,29.464,19.533c18.096,12.027,36.198,24.058,54.294,36.086
			c7.959,5.077,19.664,10.279,25.492,17.546C655.521,924.965,644.608,931.152,641.196,939.356z M667.35,868.509
			c-1.896,1.066-5.824,5.161-8.939,4.304c-21.737-15.779-43.482-31.563-65.219-47.342c-5.61-4.084-18.542-10.334-21.85-15.891
			c4.965-5.848,9.932-11.698,14.898-17.546c35.641,19.862,71.292,39.729,106.933,59.591c0.331,0.441,0.662,0.883,0.993,1.324
			C689.701,858.487,674.145,864.688,667.35,868.509z M618.353,719.532c0-0.441,0-0.883,0-1.324
			c15.227-12.689,30.459-25.383,45.686-38.072c0.331,0.11,0.662,0.221,0.993,0.331c2.933,1.713,4.783,6.727,6.621,9.601
			c6.621,9.931,13.243,19.865,19.864,29.795c-0.592,3.845-12.805,13.134-15.891,16.222c6.083,11.497,20.89,21.233,29.133,31.451
			c5.848,6.289,11.698,12.581,17.546,18.87c0.331,0.221,0.662,0.441,0.993,0.662c9.821-9.489,19.644-18.982,29.464-28.471
			c0.441,0,0.883,0,1.324,0c3.531,5.076,7.063,10.153,10.594,15.229c0.351,1.828-8.275,12.566-9.601,14.567
			c-9.379,14.124-18.761,28.252-28.14,42.376c-0.552,0.221-1.104,0.441-1.655,0.662
			C689.645,794.135,653.993,756.828,618.353,719.532z M835.86,952.599c-0.331,0.221-0.662,0.441-0.993,0.662
			c-35.751,1.766-71.513,3.531-107.264,5.297c-0.221-0.331-0.441-0.662-0.662-0.993c-0.441-10.152-0.883-20.306-1.324-30.458
			c6.141-3.297,17.637-0.456,25.492-1.655c26.372-1.324,52.752-2.649,79.124-3.973c1.766,0,3.531,0,5.297,0
			C838.387,927.447,835.911,945.264,835.86,952.599z M837.846,891.353c-8.259,4.461-23.285,1.069-33.768,2.648
			c-25.71,1.655-51.427,3.311-77.137,4.966c-0.331-12.91-0.662-25.824-0.993-38.734c34.648-1.545,69.306-3.09,103.953-4.635
			c2.317,0,4.635,0,6.952,0C839.867,861.462,837.935,882.801,837.846,891.353z M1006.025,1063.835
			c-0.331,0.221-0.662,0.441-0.993,0.662c-13.572-0.221-27.148-0.441-40.721-0.662c-33.213-0.993-66.436-1.986-99.649-2.979
			c-1.347-3.003-0.662-9.116-0.662-13.242c0.221-13.793,0.441-27.59,0.662-41.383c0.441-30.675,0.883-61.36,1.324-92.035
			c0.221-13.462,0.441-26.928,0.662-40.389c0.221-4.855,0.441-9.712,0.662-14.567c33.985-3.752,67.981-7.504,101.967-11.256
			c0.662,0,1.324,0,1.986,0c-0.221,14.014-0.441,28.031-0.662,42.045c0.204,1.131,0.092,1.25-0.331,2.317
			c-21.186,0.552-42.378,1.104-63.564,1.655c0,43.806,0,87.625,0,131.431c19.2-0.552,38.405-1.104,57.605-1.655
			c0.331-0.11,0.662-0.221,0.993-0.331c1.766-31.558,3.531-63.125,5.297-94.683c2.423-1.102,38.612-0.242,41.714,0.993
			c0.331,0.331,0.662,0.662,0.993,0.993C1010.881,975.107,1008.453,1019.478,1006.025,1063.835z M1026.22,834.41
			c1.985-8.833,8.236-11.177,15.891-14.567c26.092-0.648,26.156,32.85,4.635,37.41C1034.975,859.747,1023.418,846.88,1026.22,834.41
			z M1047.077,1008.879c-2.941-5.333-1.188-14.299-2.318-21.519c-1.545-19.089-3.09-38.184-4.635-57.274
			c0.331-0.331,0.662-0.662,0.993-0.993c7.614,0.441,15.23,0.883,22.843,1.324c4.745,26.151,9.491,52.31,14.236,78.462
			C1072.575,1011.425,1054.875,1008.944,1047.077,1008.879z M1083.163,709.931c8.751-20.258,30.662-22.766,54.956-27.478
			c6.179-0.662,12.36-1.324,18.54-1.986c36.944-0.278,50.77,15.619,57.936,44.693c2.43,9.858,1.708,24.948,0,34.761
			c-4.407,25.327-8.677,48.897-32.113,54.956c-15.3,3.956-31.071-4.036-41.383-8.277c-28.214-11.604-47.922-24.947-57.605-55.287
			C1079.658,739.296,1077.949,721.999,1083.163,709.931z M1264.253,983.388c-7.062,0.662-14.126,1.324-21.188,1.986
			c-2.809-1.946-4.537-23.572-5.628-28.802c-3.09-18.648-6.18-37.302-9.27-55.949c-1.655-10.372-3.311-20.748-4.966-31.12
			c-3.993-1.583-20.939,0.786-26.485,1.655c-23.282,1.766-46.572,3.531-69.854,5.297c-0.221,0.221-0.441,0.441-0.662,0.662
			c3.641,33.103,7.284,66.216,10.925,99.318c13.131-2.538,26.266-5.077,39.396-7.614c-1.986-14.896-3.973-29.797-5.959-44.693
			c-0.801-3.831-2.601-10.398-1.655-14.236c8.276-1.214,16.554-2.428,24.83-3.642c5.076,27.144,10.153,54.297,15.229,81.441
			c-8.625,4.527-22.646,3.423-32.775,5.628c-22.4,3.862-44.806,7.725-67.205,11.587c-1.324-10.482-2.649-20.968-3.973-31.451
			c-3.09-26.924-6.18-53.855-9.27-80.779c-1.214-10.482-2.428-20.968-3.642-31.451c-0.718-3.945-2.425-10.19-1.324-14.236
			c52.634-4.745,105.283-9.491,157.916-14.236c0.441,0.11,0.883,0.221,1.324,0.331c2.989,2.191,2.938,30.06,3.973,36.417
			c3.531,37.627,7.063,75.265,10.594,112.892C1264.474,982.725,1264.363,983.057,1264.253,983.388z M1261.936,574.196
			c-5.407-22.62-10.815-45.247-16.222-67.868c-3.001-10.609-8.815-26.122-8.939-37.741c6.731-1.214,13.464-2.428,20.195-3.642
			c0.883,0.11,1.766,0.221,2.648,0.331c11.255,45.682,22.513,91.377,33.768,137.059c-2.232,3.033-17.622,6.828-22.181,8.277
			C1267.15,605.705,1264.17,582.264,1261.936,574.196z M1278.489,741.382c0.11-0.331,0.221-0.662,0.331-0.993
			c38.179-7.172,76.369-14.347,114.547-21.519c0.552,0,1.104,0,1.655,0c2.207,10.593,4.414,21.189,6.621,31.782
			c-8.993,4.76-26.638,4.63-37.741,6.952c-26.372,4.524-52.752,9.049-79.124,13.573
			C1282.682,761.247,1280.585,751.313,1278.489,741.382z M1287.758,798.655c8.165-1.324,16.333-2.649,24.499-3.973
			c0.441,0,0.883,0,1.324,0c2.069,3.947,3.115,23.102,2.318,28.14c-5.002,2.557-20.227,4.112-26.816,4.304
			C1287.425,822.574,1286.274,804.01,1287.758,798.655z M1349.336,883.738c0.552,6.841,1.104,13.685,1.655,20.526
			c-0.11,0.221-0.221,0.441-0.331,0.662c-18.427,3.641-36.86,7.284-55.287,10.925c-1.583-1.055-7.154-34.303-6.952-38.072
			C1308.724,879.765,1329.033,881.752,1349.336,883.738z M1335.762,1025.101c-4.492,2.745-38.55,4.722-46.349,4.966
			c-0.221-0.331-0.442-0.662-0.662-0.993c-2.055-4.86-0.754-14.729-0.662-20.857c13.418-7.205,38.293-5.339,52.639-11.918
			c0.441,0,0.883,0,1.324,0C1343.479,1003.148,1336.884,1017.303,1335.762,1025.101z M1361.916,960.875
			c-21.186,2.979-42.378,5.959-63.564,8.939c-1.546-3.953-3.75-13.91-2.648-18.208c20.082-4.634,40.171-9.27,60.253-13.905
			c0.883,0.11,1.766,0.221,2.648,0.331c1.434,7.283,2.869,14.567,4.304,21.85C1362.578,960.213,1362.247,960.544,1361.916,960.875z
			 M1417.534,978.422c-1.089,1.662-23.578,8.056-26.485,7.283c-2.317-7.062-4.635-14.126-6.952-21.188
			c0.11-0.11,0.221-0.221,0.331-0.331c7.945-2.317,15.892-4.635,23.836-6.952c0.993,0.11,1.987,0.221,2.98,0.331
			C1412.467,961.809,1418.512,975.128,1417.534,978.422z M1392.374,917.506c-0.772-0.11-1.545-0.221-2.317-0.331
			c-2.428-9.048-4.856-18.099-7.283-27.147c3.921-3.85,13.709-5.014,19.202-6.952c15.117-5.296,30.238-10.594,45.355-15.891
			c-3.751-12.469-7.504-24.941-11.256-37.41c-0.221-0.11-0.441-0.221-0.662-0.331c-28.248,9.6-56.504,19.203-84.752,28.802
			c-2.223-3.272-9.072-33.215-7.945-37.41c36.192-12.8,72.396-25.603,108.588-38.403c3.761,2.512,7.196,21.14,8.938,26.816
			c7.724,26.482,15.45,52.972,23.174,79.455C1453.071,898.304,1422.718,907.907,1392.374,917.506z M1606.901,973.456
			c-11.586,23.172-23.175,46.351-34.761,69.523c-6.379,1.194-46.292,2.991-51.315,0.993c-3.854-2.249-13.739-24.103-16.884-29.464
			c-10.522-17.935-19.832-36.761-30.458-54.956c-3.974-6.804-10.88-15.44-12.58-23.505c3.383-5.528,12.899-9.167,18.208-12.911
			c14.676-9.931,29.356-19.865,44.031-29.796c6.375,0.244,16.733,9.207,21.85,12.249c21.406,12.469,42.82,24.941,64.226,37.41
			C1614.8,953.134,1610.833,965.885,1606.901,973.456z M1608.557,910.554c-0.552,0.441-1.104,0.883-1.655,1.324
			c-10.611-10.346-17.858-25.524-26.485-37.741c-3.091-4.378-9.713-10.415-10.594-16.222c23.282-31.448,46.572-62.905,69.854-94.352
			c10.593,3.31,21.189,6.622,31.782,9.932c-2.444,8.487-13.44,19.898-18.539,27.147c-13.131,19.31-26.266,38.626-39.396,57.936
			c1.82,10.076,12.865,16.28,13.905,26.816C1621.138,893.78,1614.846,902.168,1608.557,910.554z M1665.499,1011.528
			c-0.441,0-0.883,0-1.324,0c-10.924-22.4-21.851-44.806-32.775-67.205c-3.452-7.798-11.239-16.766-12.249-25.823
			c4.166-5.05,22.863-6.586,29.796-9.932c4.049,0.421,9.288,15.345,11.256,19.202c10.18,19.951,21.728,39.954,29.796,61.246
			C1681.833,996.519,1673.665,1004.024,1665.499,1011.528z M1756.541,856.591c-0.23,6.868-5.816,27.011-8.608,32.444
			c-0.11,0.331-0.221,0.662-0.331,0.993c-8.557-1.084-16.293-7.088-23.505-10.263c-19.641-8.827-39.288-17.657-58.929-26.485
			c-0.834-3.88,6.724-21.728,9.27-25.823c0.441-0.441,0.883-0.883,1.324-1.324C1702.451,836.668,1730.905,844.791,1756.541,856.591z
			 M1769.121,613.923c-20.303,35.53-40.612,71.071-60.915,106.602c-3.613-1.287-18.619-28.728-21.188-33.768
			c0.908-6.856,13.094-22.589,16.884-28.802c12.154-19.929,24.359-39.556,36.417-59.26c4.868-7.955,11.101-22.509,17.877-28.14
			c9.931,2.538,19.865,5.077,29.796,7.614C1789.436,581.962,1772.127,608.834,1769.121,613.923z M1874.068,656.299
			c5.508,1.647,21.046,3.728,23.836,7.283c-6.069,9.931-12.14,19.865-18.208,29.796c-5.427,0.787-11.802-4.033-16.222-5.959
			c-11.365-4.965-22.734-9.932-34.099-14.898c-0.11,0-0.221,0-0.331,0c-3.751,14.234-7.504,28.473-11.256,42.707
			c-3.72,0.908-24.187-3.458-27.478-5.297c-0.221-0.221-0.441-0.441-0.662-0.662c-1.398-4.979,3.28-14.949,4.635-19.864
			c4.414-16.662,8.829-33.328,13.242-49.99c7.283,1.766,14.567,3.531,21.85,5.297
			C1844.271,648.574,1859.172,652.437,1874.068,656.299z M1897.242,455.676c-4.635,8.165-9.27,16.333-13.905,24.499
			c-17.655,31.668-35.315,63.346-52.97,95.015c-7.287-0.952-14.287-6.957-20.526-9.932c-0.646-4.758,15.411-30.434,18.539-35.755
			c17.765-32.331,35.536-64.67,53.301-97.001c4.967,0.631,20.537,5.822,23.505,8.608
			C1904.402,446.694,1899.787,451.422,1897.242,455.676z"/>
		<path style="fill:#240D16;" d="M659.073,423.894c-2.138,3.583-5.691,7.758-6.621,12.249c16.993,16,33.991,32.004,50.983,48.004
			c5.726,4.612,13.229,15.637,19.864,18.208c3.018-2.469,4.264-7.47,6.29-10.925c4.634-8.276,9.27-16.554,13.905-24.83
			c17.655-31.227,35.315-62.463,52.97-93.69c-9.931-10.152-19.865-20.306-29.796-30.458c-12.358-13.462-24.72-26.928-37.079-40.389
			c-0.331,0-0.662,0-0.993,0c-19.85,28.895-34.905,61.501-52.97,92.035C670.109,404.029,664.59,413.963,659.073,423.894z
			 M699.794,413.631c10.12-19.635,20.408-40.672,32.775-58.598c4.857,1.214,18.201,13.567,21.188,17.546
			c-1.31,7.384-9.853,18.136-13.573,24.499c-9.489,16.993-18.982,33.991-28.471,50.983c-8.536-1.248-13.638-11.141-21.188-14.236
			C688.782,429.942,697.813,417.473,699.794,413.631z"/>
		<path style="fill:#240D16;" d="M108.849,331.859c-16,8.607-32.004,17.216-48.004,25.823c1.527,7.399,11.036,16.797,14.567,23.836
			c5.052,0.379,17.717-10.894,22.181-13.905c20.303-13.793,40.612-27.59,60.915-41.383c0.11-0.552,0.221-1.104,0.331-1.655
			c-14.455-18.096-28.914-36.198-43.369-54.294c-3.338-4.322-12.695-18.857-17.546-20.195
			c-26.372,15.007-52.752,30.018-79.124,45.024c-0.221,0-0.441,0-0.662,0c1.195,4.565,14.41,25.754,17.877,28.14
			c3.659,0.949,12.161-5.553,15.56-7.283c10.814-5.296,21.63-10.595,32.444-15.891c3.866-1.978,8.133-5.708,13.242-5.959
			c7.283,10.593,14.567,21.189,21.85,31.782C116.688,328.894,112.289,329.851,108.849,331.859z"/>
		<path style="fill:#240D16;" d="M1062.306,28.276c-15.558,5.076-31.121,10.153-46.68,15.229c-1.497,3.564,1.871,10.263,2.98,13.905
			c2.979,11.696,5.959,23.396,8.939,35.092c0.441,0.331,0.883,0.662,1.324,0.993c16.331-4.855,32.667-9.712,48.997-14.567
			c1.959-4.566-8.937-32.898-10.925-39.396C1065.881,36.07,1065.557,29.537,1062.306,28.276z"/>
		<path style="fill:#240D16;" d="M1724.759,332.521c-0.814-5.353,0.993-20.334-1.655-23.174
			c-13.903,10.703-27.811,21.41-41.714,32.113c-4.492,3.399-10.092,10.869-16.222,11.918c-10.703-9.931-21.41-19.865-32.113-29.796
			c-3.522-1.198-8.553,3.253-11.256,4.635c-9.931,5.186-19.865,10.374-29.796,15.56c16.441,32.551,32.887,65.112,49.328,97.663
			c3.367,1.49,18.211-8.46,21.85-10.594c21.186-11.255,42.378-22.513,63.564-33.768c2.177-4.037,0.595-13.334,0.331-19.202
			C1726.304,362.76,1725.531,347.638,1724.759,332.521z"/>
		<path style="fill:#240D16;" d="M1868.44,1010.866c-0.993,23.062-1.986,46.13-2.98,69.192c11.586,0,23.175,0,34.761,0
			c0.331-22.951,0.662-45.91,0.993-68.861c7.503,0.11,15.009,0.221,22.512,0.331c0-8.055,0-16.112,0-24.167
			c-17.986-0.552-35.977-1.104-53.963-1.655C1867.134,988.512,1869.257,1005.436,1868.44,1010.866z"/>
		<path style="fill:#240D16;" d="M1635.042,272.93c4.743,0.607,6.903,4.86,9.932,7.283c9.048,7.834,18.099,15.671,27.147,23.505
			c6.563-0.804,12.9-9.926,17.546-13.574c15.007-11.807,30.018-23.617,45.024-35.424c0.883-11.476,1.766-22.955,2.649-34.43
			c-10.822-7.227-26.045-10.451-38.403-15.56c-4.93-2.038-10.601-5.912-16.553-6.29c-20.522,18.35-39.617,38.048-58.929,57.605
			c-11.586,11.917-23.175,23.838-34.761,35.755c0.77,3.958,4.764,8.375,7.283,10.925
			C1608.997,292.795,1622.021,282.861,1635.042,272.93z"/>
	</g>
</g>
</svg>
