<?xml version="1.0" encoding="utf-8"?>
<!-- Generator: Adobe Illustrator 27.5.0, SVG Export Plug-In . SVG Version: 6.00 Build 0)  -->
<svg version="1.1" xmlns="http://www.w3.org/2000/svg" xmlns:xlink="http://www.w3.org/1999/xlink" x="0px" y="0px"
	 viewBox="0 0 800 500" style="enable-background:new 0 0 800 500;" xml:space="preserve">
<g id="_x31_12">
	<g>
		<rect style="fill:#000034;" width="800" height="500"/>
		<g>
			<g style="opacity:0.39;">
				<path style="fill:#EDDBF3;" d="M19.265,5.521c0.768,0,1.536-0.293,2.121-0.879c1.172-1.171,1.172-3.071,0-4.242l-0.4-0.4h-8.484
					l4.642,4.642C17.729,5.228,18.497,5.521,19.265,5.521z"/>
			</g>
			<g style="opacity:0.42;">
				<path style="fill:#8399AD;" d="M57.339,5.521c0.767,0,1.536-0.293,2.121-0.879c1.171-1.171,1.171-3.071,0-4.243L59.061,0h-8.485
					l4.643,4.643C55.803,5.228,56.571,5.521,57.339,5.521z"/>
			</g>
			<g style="opacity:0.51;">
				<path style="fill:#BDC9D4;" d="M95.411,5.521c0.768,0,1.536-0.293,2.121-0.879c1.172-1.171,1.172-3.071,0-4.242l-0.4-0.4h-8.484
					l4.642,4.642C93.876,5.228,94.643,5.521,95.411,5.521z"/>
			</g>
			<g style="opacity:0.92;">
				<path style="fill:#D0D8E0;" d="M133.485,5.521c0.768,0,1.536-0.293,2.122-0.879c1.171-1.171,1.171-3.071-0.001-4.243L135.207,0
					h-8.485l4.643,4.643C131.95,5.228,132.718,5.521,133.485,5.521z"/>
			</g>
			<g style="opacity:0.7;">
				<path style="fill:#C5CFD8;" d="M171.558,5.521c0.768,0,1.536-0.293,2.121-0.879c1.172-1.171,1.172-3.071,0-4.242l-0.4-0.4
					h-8.484l4.642,4.642C170.022,5.228,170.79,5.521,171.558,5.521z"/>
			</g>
			<g style="opacity:0.77;">
				<path style="fill:#CFA2FE;" d="M169.436,4.642c0.586,0.586,1.354,0.879,2.122,0.879c0.768,0,1.536-0.293,2.121-0.878L178.321,0
					h-8.485l-0.399,0.399C168.265,1.571,168.265,3.471,169.436,4.642z"/>
			</g>
			<g style="opacity:0.96;">
				<path style="fill:#DAB8FE;" d="M207.512,4.642c0.586,0.586,1.354,0.879,2.121,0.879c0.768,0,1.536-0.293,2.121-0.879L216.396,0
					h-8.484l-0.4,0.4C206.34,1.571,206.34,3.471,207.512,4.642z"/>
			</g>
			<g style="opacity:0.71;">
				<path style="fill:#B1BECB;" d="M245.583,4.642c0.586,0.586,1.354,0.879,2.122,0.879c0.768,0,1.536-0.293,2.121-0.878L254.469,0
					h-8.486l-0.399,0.399C244.412,1.571,244.412,3.471,245.583,4.642z"/>
			</g>
			<g style="opacity:0.57;">
				<path style="fill:#869BAF;" d="M283.659,4.642c0.585,0.586,1.354,0.879,2.121,0.879c0.768,0,1.536-0.293,2.121-0.879L292.543,0
					h-8.484l-0.4,0.4C282.487,1.571,282.487,3.471,283.659,4.642z"/>
			</g>
			<g style="opacity:0.86;">
				<path style="fill:#E5CBED;" d="M361.927,5.521c0.768,0,1.536-0.293,2.121-0.879c1.171-1.171,1.171-3.071,0-4.243L363.648,0
					h-8.485l4.643,4.643C360.391,5.228,361.159,5.521,361.927,5.521z"/>
			</g>
			<g style="opacity:0.49;">
				<path style="fill:#F4EAF8;" d="M400.002,5.521c0.767,0,1.535-0.293,2.121-0.879c1.172-1.171,1.172-3.071,0-4.243L401.724,0
					h-8.485l4.643,4.643C398.466,5.228,399.234,5.521,400.002,5.521z"/>
			</g>
			<g style="opacity:0.4;">
				<path style="fill:#D2A8FE;" d="M397.881,4.642c0.585,0.586,1.353,0.879,2.121,0.879c0.767,0,1.535-0.293,2.121-0.879L406.765,0
					h-8.483l-0.4,0.4C396.709,1.571,396.709,3.471,397.881,4.642z"/>
			</g>
			<g style="opacity:0.4;">
				<path style="fill:#CEA0FE;" d="M435.953,4.642c0.586,0.586,1.353,0.879,2.121,0.879s1.535-0.293,2.121-0.879L444.838,0h-8.484
					l-0.4,0.4C434.781,1.571,434.781,3.471,435.953,4.642z"/>
			</g>
			<g style="opacity:0.3;">
				<path style="fill:#F6EDF9;" d="M474.026,4.642c0.586,0.586,1.353,0.879,2.121,0.879c0.768,0,1.535-0.293,2.121-0.879L482.91,0
					h-8.483l-0.4,0.4C472.854,1.571,472.854,3.471,474.026,4.642z"/>
			</g>
			<g style="opacity:0.88;">
				<path style="fill:#E0C1EA;" d="M512.099,4.642c0.586,0.586,1.354,0.879,2.121,0.879c0.768,0,1.535-0.293,2.121-0.878L520.983,0
					h-8.485l-0.399,0.399C510.927,1.571,510.927,3.471,512.099,4.642z"/>
			</g>
			<g style="opacity:0.38;">
				<path style="fill:#ABBAC7;" d="M550.173,4.642c0.586,0.586,1.353,0.879,2.121,0.879c0.768,0,1.535-0.293,2.121-0.879L559.057,0
					h-8.483l-0.4,0.4C549.001,1.571,549.001,3.471,550.173,4.642z"/>
			</g>
			<g style="opacity:0.63;">
				<path style="fill:#D8B4FE;" d="M628.44,5.521c0.768,0,1.535-0.293,2.121-0.879c1.172-1.171,1.172-3.071,0-4.243L630.162,0
					h-8.485l4.643,4.643C626.905,5.228,627.673,5.521,628.44,5.521z"/>
			</g>
			<g style="opacity:0.45;">
				<path style="fill:#D0A4FE;" d="M626.319,4.642c0.586,0.586,1.354,0.879,2.121,0.879c0.768,0,1.535-0.293,2.121-0.878L635.204,0
					h-8.485l-0.4,0.399C625.147,1.571,625.147,3.471,626.319,4.642z"/>
			</g>
			<g style="opacity:0.32;">
				<path style="fill:#B6C3CF;" d="M704.589,5.521c0.768,0,1.535-0.293,2.121-0.879c1.172-1.171,1.172-3.071,0-4.243L706.31,0
					h-8.485l4.643,4.643C703.054,5.228,703.821,5.521,704.589,5.521z"/>
			</g>
			<g style="opacity:0.92;">
				<path style="fill:#C3CED7;" d="M742.661,5.521c0.768,0,1.535-0.293,2.121-0.879c1.172-1.171,1.172-3.071,0-4.242l-0.4-0.4
					h-8.483l4.642,4.642C741.126,5.228,741.894,5.521,742.661,5.521z"/>
			</g>
			<g style="opacity:0.53;">
				<path style="fill:#F5ECF9;" d="M740.54,4.642c0.586,0.586,1.354,0.879,2.121,0.879c0.768,0,1.535-0.293,2.121-0.878L749.425,0
					h-8.485l-0.399,0.399C739.368,1.571,739.368,3.471,740.54,4.642z"/>
			</g>
			<g style="opacity:0.92;">
				<path style="fill:#E8D2FE;" d="M778.614,0.4c-1.172,1.171-1.172,3.071,0,4.242c0.586,0.586,1.354,0.879,2.121,0.879
					c0.768,0,1.535-0.293,2.121-0.879L787.498,0h-8.483L778.614,0.4z"/>
			</g>
			<g style="opacity:0.65;">
				<path style="fill:#DFC0FE;" d="M19.265,43.595c0.768,0,1.536-0.293,2.121-0.878c1.172-1.172,1.172-3.071,0-4.243L0,17.087v8.485
					l17.143,17.144C17.729,43.301,18.497,43.595,19.265,43.595z"/>
			</g>
			<g style="opacity:0.83;">
				<path style="fill:#F0E1F5;" d="M17.144,4.643l38.074,38.074c0.585,0.585,1.354,0.878,2.121,0.878
					c0.767,0,1.536-0.293,2.121-0.879c1.171-1.171,1.171-3.071,0-4.243L21.386,0.399c-0.154-0.155-0.323-0.286-0.5-0.399h-3.242
					c-0.177,0.114-0.346,0.245-0.501,0.4C15.972,1.571,15.972,3.471,17.144,4.643z"/>
			</g>
			<g style="opacity:0.57;">
				<path style="fill:#CFA2FE;" d="M55.217,4.642L93.29,42.716c0.586,0.585,1.354,0.879,2.122,0.879
					c0.768,0,1.536-0.293,2.121-0.878c1.172-1.172,1.172-3.071,0-4.243L59.46,0.4c-0.155-0.155-0.324-0.287-0.501-0.4h-3.242
					c-0.177,0.114-0.345,0.245-0.5,0.399C54.046,1.571,54.046,3.471,55.217,4.642z"/>
			</g>
			<g style="opacity:0.58;">
				<path style="fill:#DFC2FE;" d="M93.29,38.473c-1.172,1.172-1.172,3.072,0,4.243c0.586,0.585,1.354,0.879,2.122,0.879
					c0.768,0,1.536-0.293,2.121-0.878l38.074-38.074c1.172-1.171,1.172-3.071,0.001-4.242c-0.155-0.155-0.324-0.287-0.501-0.4
					h-3.242c-0.177,0.114-0.345,0.245-0.499,0.399L93.29,38.473z"/>
			</g>
			<g style="opacity:0.77;">
				<path style="fill:#D1A7FE;" d="M131.364,4.642l38.072,38.074c0.586,0.585,1.354,0.879,2.122,0.879
					c0.768,0,1.536-0.293,2.121-0.878c1.172-1.172,1.172-3.071,0.001-4.243L135.607,0.4c-0.155-0.155-0.324-0.287-0.501-0.4h-3.242
					c-0.177,0.114-0.345,0.245-0.499,0.399C130.192,1.571,130.192,3.471,131.364,4.642z"/>
			</g>
			<g style="opacity:0.31;">
				<path style="fill:#D7DEE5;" d="M169.436,38.473c-1.172,1.172-1.172,3.072,0,4.243c0.586,0.585,1.354,0.879,2.122,0.879
					c0.768,0,1.536-0.293,2.121-0.878l38.075-38.074c1.172-1.171,1.172-3.071,0.001-4.242c-0.155-0.155-0.324-0.287-0.501-0.4
					h-3.242c-0.177,0.114-0.345,0.245-0.5,0.399L169.436,38.473z"/>
			</g>
			<g style="opacity:0.76;">
				<path style="fill:#D5AEFE;" d="M207.511,4.642l38.072,38.074c0.586,0.585,1.354,0.879,2.122,0.879
					c0.768,0,1.536-0.293,2.121-0.878c1.172-1.172,1.172-3.071,0.001-4.243L211.754,0.4c-0.155-0.155-0.324-0.287-0.501-0.4h-3.242
					c-0.177,0.114-0.345,0.245-0.5,0.399C206.34,1.571,206.34,3.471,207.511,4.642z"/>
			</g>
			<g style="opacity:0.36;">
				<path style="fill:#F2E5F6;" d="M245.584,38.473c-1.172,1.172-1.172,3.072-0.001,4.243c0.586,0.585,1.354,0.879,2.122,0.879
					c0.768,0,1.536-0.293,2.121-0.878l38.075-38.074c1.172-1.171,1.172-3.071,0-4.242c-0.155-0.155-0.324-0.287-0.501-0.4h-3.243
					c-0.176,0.114-0.345,0.245-0.499,0.399L245.584,38.473z"/>
			</g>
			<g style="opacity:0.56;">
				<path style="fill:#899EB1;" d="M283.659,38.474c-1.171,1.171-1.171,3.071,0,4.243c0.585,0.585,1.354,0.878,2.121,0.878
					c0.768,0,1.536-0.293,2.122-0.879l38.072-38.074c1.171-1.171,1.171-3.071,0-4.243c-0.154-0.155-0.323-0.286-0.5-0.399h-3.242
					c-0.177,0.114-0.346,0.245-0.501,0.4L283.659,38.474z"/>
			</g>
			<g style="opacity:0.93;">
				<path style="fill:#EBEFF2;" d="M321.731,38.473c-1.172,1.172-1.172,3.072,0,4.243c0.586,0.585,1.354,0.879,2.121,0.879
					c0.768,0,1.536-0.293,2.121-0.878l38.074-38.074c1.172-1.171,1.172-3.071,0-4.242c-0.155-0.155-0.324-0.287-0.501-0.4h-3.242
					c-0.177,0.114-0.345,0.245-0.499,0.399L321.731,38.473z"/>
			</g>
			<g style="opacity:0.87;">
				<path style="fill:#C690FD;" d="M359.806,38.473c-1.172,1.172-1.172,3.072-0.001,4.243c0.586,0.585,1.354,0.879,2.122,0.879
					c0.768,0,1.536-0.293,2.121-0.878l38.075-38.074c1.172-1.171,1.172-3.071,0-4.242c-0.155-0.155-0.323-0.287-0.501-0.4h-3.242
					c-0.177,0.114-0.345,0.245-0.5,0.399L359.806,38.473z"/>
			</g>
			<g style="opacity:0.9;">
				<path style="fill:#F6EDF9;" d="M397.88,4.642l38.073,38.074c0.586,0.585,1.353,0.879,2.121,0.879s1.535-0.293,2.121-0.878
					c1.172-1.172,1.172-3.071,0-4.243L402.123,0.4c-0.155-0.155-0.323-0.287-0.501-0.4h-3.242c-0.177,0.114-0.345,0.245-0.5,0.399
					C396.709,1.571,396.709,3.471,397.88,4.642z"/>
			</g>
			<g style="opacity:0.75;">
				<path style="fill:#DFC0FE;" d="M435.953,38.474c-1.172,1.171-1.172,3.071,0,4.242c0.586,0.585,1.353,0.879,2.121,0.879
					s1.535-0.293,2.121-0.879l38.073-38.074c1.172-1.171,1.172-3.071,0-4.242c-0.155-0.155-0.323-0.287-0.501-0.4h-3.24
					c-0.178,0.114-0.346,0.246-0.501,0.4L435.953,38.474z"/>
			</g>
			<g style="opacity:0.69;">
				<path style="fill:#C997FD;" d="M474.026,38.474c-1.172,1.171-1.172,3.071,0,4.243c0.586,0.585,1.353,0.878,2.121,0.878
					c0.768,0,1.535-0.293,2.121-0.879l38.072-38.074c1.172-1.171,1.172-3.071,0-4.243c-0.154-0.155-0.323-0.286-0.5-0.399H512.6
					c-0.178,0.114-0.346,0.245-0.501,0.4L474.026,38.474z"/>
			</g>
			<g style="opacity:0.83;">
				<path style="fill:#C7D1DA;" d="M512.099,38.473c-1.172,1.172-1.172,3.072,0,4.243c0.586,0.585,1.354,0.879,2.121,0.879
					c0.768,0,1.535-0.293,2.121-0.878l38.074-38.074c1.172-1.171,1.172-3.071,0-4.242c-0.155-0.155-0.323-0.287-0.501-0.4h-3.241
					c-0.177,0.114-0.346,0.245-0.5,0.399L512.099,38.473z"/>
			</g>
			<g style="opacity:0.56;">
				<path style="fill:#C3CED7;" d="M550.173,4.642l38.072,38.074c0.586,0.585,1.354,0.879,2.121,0.879
					c0.768,0,1.535-0.293,2.121-0.878c1.172-1.172,1.172-3.071,0-4.243L554.415,0.4c-0.155-0.155-0.323-0.287-0.501-0.4h-3.241
					c-0.177,0.114-0.346,0.245-0.5,0.399C549.001,1.571,549.001,3.471,550.173,4.642z"/>
			</g>
			<g style="opacity:0.79;">
				<path style="fill:#F6EDF9;" d="M588.245,4.643l38.074,38.074c0.586,0.585,1.354,0.878,2.121,0.878
					c0.768,0,1.535-0.293,2.121-0.879c1.172-1.171,1.172-3.071,0-4.243L592.487,0.399c-0.154-0.155-0.323-0.286-0.5-0.399h-3.241
					c-0.177,0.114-0.346,0.245-0.501,0.4C587.073,1.571,587.073,3.471,588.245,4.643z"/>
			</g>
			<g style="opacity:0.39;">
				<path style="fill:#CFD7DF;" d="M626.319,4.643l38.074,38.074c0.586,0.585,1.354,0.878,2.121,0.878
					c0.768,0,1.535-0.293,2.121-0.879c1.172-1.171,1.172-3.071,0-4.243L630.561,0.399c-0.154-0.155-0.323-0.286-0.5-0.399h-3.241
					c-0.178,0.114-0.346,0.245-0.501,0.4C625.147,1.571,625.147,3.471,626.319,4.643z"/>
			</g>
			<g style="opacity:0.74;">
				<path style="fill:#F1E2F5;" d="M664.394,4.643l38.074,38.074c0.586,0.585,1.354,0.878,2.121,0.878
					c0.768,0,1.535-0.293,2.121-0.879c1.172-1.171,1.172-3.071,0-4.243L668.636,0.399c-0.154-0.155-0.323-0.286-0.5-0.399h-3.241
					c-0.178,0.114-0.346,0.245-0.501,0.4C663.222,1.571,663.222,3.471,664.394,4.643z"/>
			</g>
			<g style="opacity:0.73;">
				<path style="fill:#E4CBFE;" d="M702.468,4.642l38.072,38.074c0.586,0.585,1.354,0.879,2.121,0.879
					c0.768,0,1.535-0.293,2.121-0.878c1.172-1.172,1.172-3.071,0-4.243L706.71,0.4c-0.155-0.155-0.324-0.287-0.501-0.4h-3.241
					c-0.177,0.114-0.346,0.245-0.5,0.399C701.296,1.571,701.296,3.471,702.468,4.642z"/>
			</g>
			<g style="opacity:0.54;">
				<path style="fill:#F2E5F6;" d="M740.54,4.643l38.074,38.074c0.586,0.585,1.354,0.878,2.121,0.878
					c0.768,0,1.535-0.293,2.121-0.879c1.172-1.171,1.172-3.071,0-4.243L744.782,0.399c-0.154-0.155-0.323-0.286-0.5-0.399h-3.241
					c-0.178,0.114-0.346,0.245-0.501,0.4C739.368,1.571,739.368,3.471,740.54,4.643z"/>
			</g>
			<g style="opacity:0.49;">
				<path style="fill:#CFA2FE;" d="M778.614,38.474c-1.172,1.171-1.172,3.071,0,4.243c0.586,0.585,1.354,0.878,2.121,0.878
					c0.768,0,1.535-0.293,2.121-0.879L800,25.571v-8.484L778.614,38.474z"/>
			</g>
			<g style="opacity:0.43;">
				<path style="fill:#D0D8E0;" d="M19.265,81.669c0.768,0,1.536-0.293,2.121-0.878c1.172-1.172,1.172-3.071,0-4.243L0,55.16v8.486
					L17.143,80.79C17.729,81.376,18.497,81.669,19.265,81.669z"/>
			</g>
			<g style="opacity:0.92;">
				<path style="fill:#D1A7FE;" d="M21.386,38.474c-1.171-1.172-3.071-1.172-4.242,0c-1.172,1.171-1.172,3.071,0,4.242L55.218,80.79
					c0.585,0.586,1.354,0.879,2.121,0.879c0.767,0,1.536-0.293,2.121-0.879c1.172-1.172,1.172-3.071,0-4.243L21.386,38.474z"/>
			</g>
			<g style="opacity:0.36;">
				<path style="fill:#CAD4DC;" d="M59.46,38.474c-1.171-1.172-3.071-1.172-4.243-0.001c-1.172,1.172-1.172,3.072,0,4.243
					L93.29,80.79c0.586,0.586,1.354,0.879,2.122,0.879c0.768,0,1.536-0.293,2.121-0.878c1.172-1.172,1.172-3.071,0-4.243
					L59.46,38.474z"/>
			</g>
			<g style="opacity:0.96;">
				<path style="fill:#E8D0EF;" d="M131.364,38.474L93.29,76.547c-1.172,1.172-1.172,3.071,0,4.243
					c0.586,0.586,1.354,0.879,2.121,0.879c0.768,0,1.536-0.293,2.121-0.879l38.074-38.074c1.172-1.171,1.172-3.071,0-4.242
					C134.436,37.301,132.535,37.301,131.364,38.474z"/>
			</g>
			<g style="opacity:0.94;">
				<path style="fill:#A1B1C1;" d="M135.607,38.474c-1.171-1.172-3.071-1.172-4.243-0.001c-1.172,1.172-1.172,3.072-0.001,4.243
					l38.072,38.074c0.586,0.586,1.354,0.879,2.122,0.879c0.768,0,1.536-0.293,2.121-0.878c1.172-1.172,1.172-3.071,0.001-4.243
					L135.607,38.474z"/>
			</g>
			<g style="opacity:0.42;">
				<path style="fill:#EEDCF3;" d="M173.679,38.473c-1.171-1.171-3.071-1.171-4.243,0.001c-1.171,1.171-1.171,3.071,0,4.243
					l38.075,38.074c0.586,0.585,1.354,0.878,2.121,0.878c0.768,0,1.536-0.293,2.122-0.879c1.171-1.172,1.171-3.071-0.001-4.243
					L173.679,38.473z"/>
			</g>
			<g style="opacity:0.87;">
				<path style="fill:#CA99FD;" d="M245.583,38.474l-38.072,38.074c-1.171,1.172-1.171,3.071,0,4.243
					c0.586,0.585,1.354,0.878,2.121,0.878c0.768,0,1.536-0.293,2.122-0.879l38.072-38.074c1.171-1.171,1.171-3.071-0.001-4.243
					C248.655,37.302,246.755,37.301,245.583,38.474z"/>
			</g>
			<g style="opacity:0.66;">
				<path style="fill:#CC9CFE;" d="M283.659,38.473l-38.075,38.074c-1.172,1.172-1.172,3.071-0.001,4.243
					c0.586,0.586,1.354,0.879,2.122,0.879c0.768,0,1.536-0.293,2.121-0.878l38.075-38.074c1.172-1.172,1.172-3.071,0-4.243
					C286.73,37.302,284.83,37.301,283.659,38.473z"/>
			</g>
			<g style="opacity:0.65;">
				<path style="fill:#D2A8FE;" d="M287.902,38.474c-1.172-1.172-3.072-1.172-4.243-0.001c-1.172,1.172-1.172,3.072,0,4.243
					l38.072,38.074c0.586,0.586,1.354,0.879,2.121,0.879c0.768,0,1.536-0.293,2.121-0.878c1.172-1.172,1.172-3.071,0-4.243
					L287.902,38.474z"/>
			</g>
			<g style="opacity:0.6;">
				<path style="fill:#DFC0FE;" d="M359.806,38.474l-38.074,38.074c-1.172,1.172-1.172,3.071,0,4.243
					c0.586,0.586,1.354,0.879,2.121,0.879c0.768,0,1.536-0.293,2.121-0.879l38.074-38.074c1.172-1.171,1.172-3.071,0-4.242
					C362.877,37.301,360.977,37.301,359.806,38.474z"/>
			</g>
			<g style="opacity:0.8;">
				<path style="fill:#BA79FD;" d="M397.881,38.473l-38.075,38.074c-1.172,1.172-1.172,3.071-0.001,4.243
					c0.586,0.586,1.354,0.879,2.122,0.879c0.768,0,1.536-0.293,2.121-0.878l38.075-38.074c1.172-1.172,1.172-3.071,0-4.243
					C400.952,37.302,399.052,37.301,397.881,38.473z"/>
			</g>
			<g style="opacity:0.93;">
				<path style="fill:#D0D8E0;" d="M402.123,38.474c-1.171-1.172-3.071-1.172-4.242-0.001c-1.172,1.172-1.172,3.072,0,4.243
					l38.073,38.074c0.586,0.586,1.353,0.879,2.121,0.879s1.535-0.293,2.121-0.878c1.172-1.172,1.172-3.071,0-4.243L402.123,38.474z"
					/>
			</g>
			<g style="opacity:0.97;">
				<path style="fill:#CFA3FE;" d="M440.195,38.474c-1.172-1.172-3.07-1.172-4.242-0.001c-1.172,1.172-1.172,3.072,0,4.243
					l38.073,38.074c0.586,0.586,1.353,0.879,2.121,0.879c0.768,0,1.535-0.293,2.121-0.878c1.172-1.172,1.172-3.071,0-4.243
					L440.195,38.474z"/>
			</g>
			<g style="opacity:0.38;">
				<path style="fill:#D4ACFE;" d="M478.269,38.474c-1.172-1.172-3.07-1.172-4.242-0.001c-1.172,1.172-1.172,3.072,0,4.243
					l38.072,38.074c0.586,0.586,1.354,0.879,2.121,0.879c0.768,0,1.535-0.293,2.121-0.878c1.172-1.172,1.172-3.071,0-4.243
					L478.269,38.474z"/>
			</g>
			<g style="opacity:0.71;">
				<path style="fill:#BDC9D4;" d="M550.173,38.474l-38.074,38.074c-1.172,1.172-1.172,3.071,0,4.243
					c0.586,0.586,1.354,0.879,2.121,0.879c0.768,0,1.535-0.293,2.121-0.879l38.074-38.074c1.172-1.171,1.172-3.071,0-4.242
					C553.243,37.301,551.345,37.301,550.173,38.474z"/>
			</g>
			<g style="opacity:0.68;">
				<path style="fill:#C289FD;" d="M554.415,38.474c-1.172-1.172-3.07-1.172-4.242-0.001c-1.172,1.172-1.172,3.072,0,4.243
					l38.072,38.074c0.586,0.586,1.354,0.879,2.121,0.879c0.768,0,1.535-0.293,2.121-0.878c1.172-1.172,1.172-3.071,0-4.243
					L554.415,38.474z"/>
			</g>
			<g style="opacity:0.96;">
				<path style="fill:#E7CEEE;" d="M592.487,38.474c-1.172-1.172-3.07-1.172-4.242,0c-1.172,1.171-1.172,3.071,0,4.242
					l38.074,38.074c0.586,0.586,1.354,0.879,2.121,0.879c0.768,0,1.535-0.293,2.121-0.879c1.172-1.172,1.172-3.071,0-4.243
					L592.487,38.474z"/>
			</g>
			<g style="opacity:0.93;">
				<path style="fill:#F7EFFA;" d="M630.561,38.474c-1.172-1.172-3.07-1.172-4.242,0c-1.172,1.171-1.172,3.071,0,4.242
					l38.074,38.074c0.586,0.586,1.354,0.879,2.121,0.879c0.768,0,1.535-0.293,2.121-0.879c1.172-1.172,1.172-3.071,0-4.243
					L630.561,38.474z"/>
			</g>
			<g style="opacity:0.59;">
				<path style="fill:#849AAE;" d="M702.468,38.474l-38.074,38.074c-1.172,1.172-1.172,3.071,0,4.243
					c0.586,0.586,1.354,0.879,2.121,0.879c0.768,0,1.535-0.293,2.121-0.879l38.074-38.074c1.172-1.171,1.172-3.071,0-4.242
					C705.538,37.301,703.64,37.301,702.468,38.474z"/>
			</g>
			<g style="opacity:0.89;">
				<path style="fill:#F1E3F6;" d="M740.54,38.474l-38.072,38.074c-1.172,1.172-1.172,3.071,0,4.243
					c0.586,0.585,1.354,0.878,2.121,0.878c0.768,0,1.535-0.293,2.121-0.879l38.072-38.074c1.172-1.171,1.172-3.071,0-4.243
					C743.61,37.302,741.712,37.301,740.54,38.474z"/>
			</g>
			<g style="opacity:0.42;">
				<path style="fill:#D0D8E0;" d="M778.614,38.474L740.54,76.547c-1.172,1.172-1.172,3.071,0,4.243
					c0.586,0.586,1.354,0.879,2.121,0.879c0.768,0,1.535-0.293,2.121-0.879l38.074-38.074c1.172-1.171,1.172-3.071,0-4.242
					C781.685,37.301,779.786,37.301,778.614,38.474z"/>
			</g>
			<g style="opacity:0.6;">
				<path style="fill:#D6DDE4;" d="M782.856,38.474c-1.172-1.172-3.07-1.172-4.242-0.001c-1.172,1.172-1.172,3.072,0,4.243
					L800,64.103v-8.485L782.856,38.474z"/>
			</g>
			<g style="opacity:0.45;">
				<path style="fill:#D1D9E1;" d="M19.265,119.742c0.768,0,1.536-0.293,2.121-0.879c1.172-1.171,1.172-3.071,0-4.242L0,93.234
					v8.484l17.144,17.143C17.729,119.449,18.497,119.742,19.265,119.742z"/>
			</g>
			<g style="opacity:0.64;">
				<path style="fill:#B1BECB;" d="M55.218,76.547L17.144,114.62c-1.172,1.171-1.172,3.071,0,4.242
					c0.586,0.586,1.353,0.879,2.122,0.879c0.768,0,1.536-0.293,2.121-0.879L59.46,80.79c1.172-1.172,1.172-3.071,0-4.243
					C58.289,75.376,56.389,75.376,55.218,76.547z"/>
			</g>
			<g style="opacity:0.3;">
				<path style="fill:#C0CBD5;" d="M93.29,76.547l-38.072,38.073c-1.172,1.171-1.172,3.071,0,4.242
					c0.585,0.586,1.354,0.879,2.121,0.879c0.767,0,1.536-0.293,2.121-0.879L97.532,80.79c1.172-1.172,1.172-3.071,0-4.243
					C96.361,75.376,94.461,75.376,93.29,76.547z"/>
			</g>
			<g style="opacity:0.61;">
				<path style="fill:#F1E3F6;" d="M131.364,76.547L93.29,114.62c-1.172,1.171-1.172,3.071,0,4.242
					c0.586,0.586,1.354,0.879,2.122,0.879c0.768,0,1.536-0.293,2.121-0.879l38.074-38.072c1.172-1.172,1.172-3.071,0.001-4.243
					C134.436,75.376,132.536,75.376,131.364,76.547z"/>
			</g>
			<g style="opacity:0.54;">
				<path style="fill:#C6D0D9;" d="M169.436,76.547l-38.072,38.073c-1.172,1.171-1.172,3.071,0,4.242
					c0.585,0.586,1.354,0.879,2.121,0.879c0.768,0,1.536-0.293,2.121-0.879l38.072-38.072c1.172-1.172,1.172-3.071,0-4.243
					C172.508,75.376,170.607,75.376,169.436,76.547z"/>
			</g>
			<g style="opacity:0.53;">
				<path style="fill:#E4E9ED;" d="M207.512,76.547l-38.075,38.073c-1.172,1.171-1.172,3.071,0,4.242
					c0.586,0.586,1.354,0.879,2.122,0.879c0.768,0,1.536-0.293,2.121-0.879l38.075-38.072c1.172-1.172,1.172-3.071,0.001-4.243
					C210.583,75.376,208.683,75.376,207.512,76.547z"/>
			</g>
			<g style="opacity:0.48;">
				<path style="fill:#F5EBF8;" d="M245.584,76.547l-38.072,38.073c-1.172,1.171-1.172,3.071,0,4.242
					c0.586,0.586,1.354,0.879,2.121,0.879c0.768,0,1.536-0.293,2.121-0.879l38.072-38.072c1.172-1.172,1.172-3.071,0-4.243
					C248.655,75.376,246.755,75.376,245.584,76.547z"/>
			</g>
			<g style="opacity:0.78;">
				<path style="fill:#D2A8FE;" d="M249.826,76.547c-1.171-1.171-3.071-1.171-4.243,0.001c-1.171,1.172-1.171,3.071,0.001,4.243
					l38.075,38.072c0.585,0.586,1.354,0.879,2.121,0.879c0.768,0,1.536-0.293,2.122-0.879c1.171-1.171,1.171-3.071,0-4.242
					L249.826,76.547z"/>
			</g>
			<g style="opacity:0.41;">
				<path style="fill:#BBC7D2;" d="M287.901,76.547c-1.171-1.172-3.071-1.172-4.242,0c-1.172,1.172-1.172,3.071,0,4.243
					l38.072,38.072c0.586,0.586,1.353,0.879,2.121,0.879c0.768,0,1.536-0.293,2.121-0.879c1.172-1.171,1.172-3.071,0-4.242
					L287.901,76.547z"/>
			</g>
			<g style="opacity:0.73;">
				<path style="fill:#CFD7DF;" d="M325.974,76.547c-1.171-1.171-3.071-1.171-4.243,0.001c-1.171,1.172-1.171,3.071,0,4.243
					l38.074,38.072c0.585,0.586,1.353,0.879,2.121,0.879c0.768,0,1.536-0.293,2.121-0.879c1.171-1.171,1.171-3.071,0-4.242
					L325.974,76.547z"/>
			</g>
			<g style="opacity:0.76;">
				<path style="fill:#CCD5DD;" d="M364.048,76.547c-1.171-1.171-3.071-1.171-4.243,0.001c-1.171,1.172-1.171,3.071,0.001,4.243
					l38.075,38.072c0.585,0.586,1.353,0.879,2.121,0.879c0.767,0,1.535-0.293,2.121-0.879c1.172-1.171,1.172-3.071,0-4.242
					L364.048,76.547z"/>
			</g>
			<g style="opacity:0.47;">
				<path style="fill:#F1E2F5;" d="M435.953,76.547l-38.072,38.073c-1.172,1.171-1.172,3.071,0,4.242
					c0.585,0.586,1.353,0.879,2.121,0.879c0.767,0,1.535-0.293,2.121-0.879l38.072-38.072c1.172-1.172,1.172-3.071,0-4.243
					C439.023,75.376,437.125,75.376,435.953,76.547z"/>
			</g>
			<g style="opacity:0.96;">
				<path style="fill:#C895FD;" d="M474.026,76.547l-38.073,38.073c-1.172,1.171-1.172,3.071,0,4.242
					c0.586,0.586,1.353,0.879,2.121,0.879s1.535-0.293,2.121-0.879l38.073-38.072c1.172-1.172,1.172-3.071,0-4.243
					C477.097,75.376,475.198,75.376,474.026,76.547z"/>
			</g>
			<g style="opacity:0.73;">
				<path style="fill:#C5CFD8;" d="M512.099,76.547l-38.072,38.073c-1.172,1.171-1.172,3.071,0,4.242
					c0.586,0.586,1.353,0.879,2.121,0.879c0.768,0,1.535-0.293,2.121-0.879l38.072-38.072c1.172-1.172,1.172-3.071,0-4.243
					C515.169,75.376,513.271,75.376,512.099,76.547z"/>
			</g>
			<g style="opacity:0.3;">
				<path style="fill:#D9B6FE;" d="M516.341,76.547c-1.172-1.171-3.07-1.171-4.242,0.001c-1.172,1.172-1.172,3.071,0,4.243
					l38.074,38.072c0.586,0.586,1.353,0.879,2.121,0.879c0.768,0,1.535-0.293,2.121-0.879c1.172-1.171,1.172-3.071,0-4.242
					L516.341,76.547z"/>
			</g>
			<g style="opacity:0.88;">
				<path style="fill:#DDBEFE;" d="M588.245,76.547l-38.072,38.073c-1.172,1.171-1.172,3.071,0,4.242
					c0.586,0.586,1.353,0.879,2.121,0.879c0.768,0,1.535-0.293,2.121-0.879l38.072-38.072c1.172-1.172,1.172-3.071,0-4.243
					C591.315,75.376,589.417,75.376,588.245,76.547z"/>
			</g>
			<g style="opacity:0.72;">
				<path style="fill:#ECD9F2;" d="M626.319,76.547l-38.074,38.073c-1.172,1.171-1.172,3.071,0,4.242
					c0.586,0.586,1.354,0.879,2.121,0.879c0.768,0,1.535-0.293,2.121-0.879l38.074-38.072c1.172-1.172,1.172-3.071,0-4.243
					C629.39,75.376,627.491,75.376,626.319,76.547z"/>
			</g>
			<g style="opacity:0.56;">
				<path style="fill:#C997FD;" d="M630.561,76.547c-1.172-1.171-3.07-1.171-4.242,0.001c-1.172,1.172-1.172,3.071,0,4.243
					l38.074,38.072c0.586,0.586,1.354,0.879,2.121,0.879c0.768,0,1.535-0.293,2.121-0.879c1.172-1.171,1.172-3.071,0-4.242
					L630.561,76.547z"/>
			</g>
			<g style="opacity:0.83;">
				<path style="fill:#C3CED7;" d="M702.468,76.547l-38.074,38.073c-1.172,1.171-1.172,3.071,0,4.242
					c0.586,0.586,1.354,0.879,2.121,0.879c0.768,0,1.535-0.293,2.121-0.879L706.71,80.79c1.172-1.172,1.172-3.071,0-4.243
					C705.538,75.376,703.64,75.376,702.468,76.547z"/>
			</g>
			<g style="opacity:0.6;">
				<path style="fill:#DAE0E6;" d="M706.71,76.547c-1.172-1.172-3.07-1.172-4.242,0c-1.172,1.172-1.172,3.071,0,4.243l38.072,38.072
					c0.586,0.586,1.354,0.879,2.121,0.879c0.768,0,1.535-0.293,2.121-0.879c1.172-1.171,1.172-3.071,0-4.242L706.71,76.547z"/>
			</g>
			<g style="opacity:0.96;">
				<path style="fill:#D8B4FE;" d="M778.614,76.547L740.54,114.62c-1.172,1.171-1.172,3.071,0,4.242
					c0.586,0.586,1.354,0.879,2.121,0.879c0.768,0,1.535-0.293,2.121-0.879l38.074-38.072c1.172-1.172,1.172-3.071,0-4.243
					C781.685,75.376,779.786,75.376,778.614,76.547z"/>
			</g>
			<g style="opacity:0.59;">
				<path style="fill:#F7EFFA;" d="M782.856,76.547c-1.172-1.172-3.07-1.172-4.242,0c-1.172,1.172-1.172,3.071,0,4.243L800,102.176
					v-8.484L782.856,76.547z"/>
			</g>
			<g style="opacity:0.64;">
				<path style="fill:#EEDCF3;" d="M21.386,114.62c-1.171-1.171-3.071-1.171-4.243,0L0,131.764v8.485l21.386-21.387
					C22.558,117.691,22.558,115.791,21.386,114.62z"/>
			</g>
			<g style="opacity:0.41;">
				<path style="fill:#9EAFBF;" d="M55.218,114.621l-38.074,38.074c-1.172,1.171-1.172,3.07,0,4.242
					c0.585,0.586,1.353,0.879,2.121,0.879c0.768,0,1.536-0.293,2.121-0.879l38.074-38.074c1.172-1.171,1.172-3.071,0-4.242
					C58.29,113.449,56.389,113.448,55.218,114.621z"/>
			</g>
			<g style="opacity:0.9;">
				<path style="fill:#AFBDCA;" d="M93.29,114.621l-38.072,38.074c-1.171,1.171-1.171,3.07,0,4.243
					c0.585,0.585,1.354,0.878,2.121,0.878c0.767,0,1.536-0.293,2.121-0.879l38.072-38.074c1.171-1.171,1.171-3.071,0-4.242
					C96.361,113.449,94.461,113.449,93.29,114.621z"/>
			</g>
			<g style="opacity:0.92;">
				<path style="fill:#F5EBF8;" d="M131.364,114.621L93.29,152.694c-1.172,1.171-1.172,3.07,0,4.242
					c0.586,0.586,1.353,0.879,2.121,0.879c0.768,0,1.536-0.293,2.121-0.879l38.074-38.074c1.172-1.171,1.172-3.071,0-4.242
					C134.436,113.449,132.536,113.448,131.364,114.621z"/>
			</g>
			<g style="opacity:0.67;">
				<path style="fill:#E2E8EC;" d="M135.607,114.621c-1.171-1.171-3.071-1.172-4.243,0c-1.172,1.171-1.172,3.071-0.001,4.242
					l38.072,38.074c0.586,0.586,1.354,0.879,2.122,0.879c0.768,0,1.536-0.293,2.121-0.878c1.172-1.172,1.172-3.071,0.001-4.243
					L135.607,114.621z"/>
			</g>
			<g style="opacity:0.73;">
				<path style="fill:#D6DDE4;" d="M173.679,114.62c-1.171-1.171-3.071-1.171-4.243,0c-1.171,1.171-1.171,3.071,0,4.242
					l38.075,38.074c0.586,0.585,1.354,0.878,2.121,0.878c0.768,0,1.536-0.293,2.122-0.879c1.171-1.172,1.171-3.071-0.001-4.243
					L173.679,114.62z"/>
			</g>
			<g style="opacity:0.73;">
				<path style="fill:#B1BECB;" d="M245.583,114.621l-38.072,38.074c-1.171,1.171-1.171,3.07,0,4.243
					c0.586,0.585,1.354,0.878,2.121,0.878c0.768,0,1.536-0.293,2.122-0.879l38.072-38.074c1.171-1.171,1.171-3.071-0.001-4.242
					C248.655,113.449,246.755,113.449,245.583,114.621z"/>
			</g>
			<g style="opacity:0.34;">
				<path style="fill:#DEE4E9;" d="M283.659,114.62l-38.075,38.073c-1.172,1.172-1.172,3.071-0.001,4.243
					c0.586,0.586,1.354,0.879,2.122,0.879c0.768,0,1.536-0.293,2.121-0.878l38.075-38.074c1.172-1.171,1.172-3.071,0-4.242
					C286.73,113.449,284.83,113.449,283.659,114.62z"/>
			</g>
			<g style="opacity:0.65;">
				<path style="fill:#D7DEE5;" d="M287.902,114.621c-1.172-1.171-3.072-1.172-4.243,0c-1.172,1.171-1.172,3.071,0,4.242
					l38.072,38.074c0.586,0.586,1.354,0.879,2.121,0.879c0.768,0,1.536-0.293,2.121-0.878c1.172-1.172,1.172-3.071,0-4.243
					L287.902,114.621z"/>
			</g>
			<g style="opacity:0.38;">
				<path style="fill:#DAB7FE;" d="M359.806,114.621l-38.074,38.074c-1.172,1.171-1.172,3.07,0,4.242
					c0.586,0.586,1.353,0.879,2.121,0.879c0.768,0,1.536-0.293,2.121-0.879l38.074-38.074c1.172-1.171,1.172-3.071,0-4.242
					C362.877,113.449,360.977,113.448,359.806,114.621z"/>
			</g>
			<g style="opacity:0.86;">
				<path style="fill:#F2E5F6;" d="M397.881,114.62l-38.075,38.073c-1.172,1.172-1.172,3.071-0.001,4.243
					c0.586,0.586,1.354,0.879,2.122,0.879c0.768,0,1.536-0.293,2.121-0.878l38.075-38.074c1.172-1.171,1.172-3.071,0-4.242
					C400.952,113.449,399.052,113.449,397.881,114.62z"/>
			</g>
			<g style="opacity:0.4;">
				<path style="fill:#C997FD;" d="M402.123,114.621c-1.171-1.171-3.071-1.172-4.242,0c-1.172,1.171-1.172,3.071,0,4.242
					l38.073,38.074c0.586,0.586,1.353,0.879,2.121,0.879s1.535-0.293,2.121-0.878c1.172-1.172,1.172-3.071,0-4.243L402.123,114.621z
					"/>
			</g>
			<g style="opacity:0.96;">
				<path style="fill:#CFD7DF;" d="M440.195,114.621c-1.172-1.172-3.07-1.172-4.242,0c-1.172,1.171-1.172,3.071,0,4.242
					l38.073,38.074c0.586,0.586,1.353,0.879,2.121,0.879c0.768,0,1.535-0.293,2.121-0.879c1.172-1.172,1.172-3.071,0-4.242
					L440.195,114.621z"/>
			</g>
			<g style="opacity:0.85;">
				<path style="fill:#7D94A9;" d="M478.269,114.621c-1.172-1.172-3.07-1.171-4.242,0c-1.172,1.171-1.172,3.071,0,4.242
					l38.072,38.074c0.586,0.586,1.354,0.879,2.121,0.879c0.768,0,1.535-0.293,2.121-0.878c1.172-1.172,1.172-3.071,0-4.243
					L478.269,114.621z"/>
			</g>
			<g style="opacity:0.72;">
				<path style="fill:#CCD5DD;" d="M516.341,114.621c-1.172-1.172-3.07-1.172-4.242,0c-1.172,1.171-1.172,3.071,0,4.242
					l38.074,38.074c0.586,0.586,1.353,0.879,2.121,0.879c0.768,0,1.535-0.293,2.121-0.879c1.172-1.172,1.172-3.071,0-4.242
					L516.341,114.621z"/>
			</g>
			<g style="opacity:0.88;">
				<path style="fill:#7D94A9;" d="M588.245,114.621l-38.072,38.074c-1.172,1.171-1.172,3.07,0,4.243
					c0.586,0.585,1.353,0.878,2.121,0.878c0.768,0,1.535-0.293,2.121-0.879l38.072-38.074c1.172-1.171,1.172-3.071,0-4.242
					C591.315,113.449,589.417,113.449,588.245,114.621z"/>
			</g>
			<g style="opacity:0.94;">
				<path style="fill:#E5CEFE;" d="M592.487,114.621c-1.172-1.172-3.07-1.172-4.242,0c-1.172,1.171-1.172,3.071,0,4.242
					l38.074,38.074c0.586,0.586,1.354,0.879,2.121,0.879c0.768,0,1.535-0.293,2.121-0.879c1.172-1.172,1.172-3.071,0-4.242
					L592.487,114.621z"/>
			</g>
			<g style="opacity:0.57;">
				<path style="fill:#DBE2E7;" d="M664.394,114.621l-38.074,38.074c-1.172,1.171-1.172,3.07,0,4.242
					c0.586,0.586,1.354,0.879,2.121,0.879c0.768,0,1.535-0.293,2.121-0.879l38.074-38.074c1.172-1.171,1.172-3.071,0-4.242
					C667.464,113.449,665.565,113.449,664.394,114.621z"/>
			</g>
			<g style="opacity:0.61;">
				<path style="fill:#BDC9D4;" d="M702.468,114.621l-38.074,38.074c-1.172,1.171-1.172,3.07,0,4.242
					c0.586,0.586,1.354,0.879,2.121,0.879c0.768,0,1.535-0.293,2.121-0.879l38.074-38.074c1.172-1.171,1.172-3.071,0-4.242
					C705.538,113.449,703.64,113.449,702.468,114.621z"/>
			</g>
			<g style="opacity:0.5;">
				<path style="fill:#EFDFF4;" d="M706.71,114.621c-1.172-1.172-3.07-1.171-4.242,0c-1.172,1.171-1.172,3.071,0,4.242
					l38.072,38.074c0.586,0.586,1.354,0.879,2.121,0.879c0.768,0,1.535-0.293,2.121-0.878c1.172-1.172,1.172-3.071,0-4.243
					L706.71,114.621z"/>
			</g>
			<g style="opacity:0.51;">
				<path style="fill:#F3E7F7;" d="M744.782,114.621c-1.172-1.172-3.07-1.172-4.242,0c-1.172,1.171-1.172,3.071,0,4.242
					l38.074,38.074c0.586,0.586,1.354,0.879,2.121,0.879c0.768,0,1.535-0.293,2.121-0.879c1.172-1.172,1.172-3.071,0-4.242
					L744.782,114.621z"/>
			</g>
			<g style="opacity:0.94;">
				<path style="fill:#D8B4FE;" d="M782.856,114.621c-1.172-1.172-3.07-1.171-4.242,0c-1.172,1.171-1.172,3.071,0,4.242L800,140.249
					v-8.484L782.856,114.621z"/>
			</g>
			<g style="opacity:0.47;">
				<path style="fill:#97A9BA;" d="M21.386,152.693c-1.171-1.171-3.071-1.171-4.243,0.001L0,169.837v8.486l21.386-21.387
					C22.558,155.765,22.558,153.866,21.386,152.693z"/>
			</g>
			<g style="opacity:0.5;">
				<path style="fill:#E0E5EA;" d="M55.218,152.693l-38.074,38.073c-1.172,1.172-1.172,3.071,0,4.243
					c0.586,0.586,1.353,0.879,2.122,0.879c0.768,0,1.536-0.292,2.121-0.878l38.074-38.073c1.172-1.172,1.172-3.071,0-4.243
					C58.289,151.523,56.389,151.522,55.218,152.693z"/>
			</g>
			<g style="opacity:0.43;">
				<path style="fill:#F5ECF9;" d="M59.46,152.694c-1.171-1.172-3.071-1.172-4.243-0.001c-1.172,1.172-1.172,3.071,0,4.243
					l38.072,38.073c0.586,0.586,1.354,0.879,2.122,0.879c0.768,0,1.536-0.292,2.121-0.878c1.172-1.172,1.172-3.071,0-4.243
					L59.46,152.694z"/>
			</g>
			<g style="opacity:0.41;">
				<path style="fill:#EEDCF3;" d="M97.532,152.693c-1.171-1.171-3.071-1.171-4.243,0.001c-1.171,1.171-1.171,3.07,0,4.243
					l38.074,38.073c0.585,0.586,1.354,0.878,2.121,0.878c0.768,0,1.536-0.292,2.122-0.879c1.171-1.171,1.171-3.071-0.001-4.243
					L97.532,152.693z"/>
			</g>
			<g style="opacity:0.91;">
				<path style="fill:#E4CBFE;" d="M135.607,152.694c-1.171-1.172-3.071-1.172-4.243-0.001c-1.172,1.172-1.172,3.071-0.001,4.243
					l38.072,38.073c0.586,0.586,1.354,0.879,2.122,0.879c0.768,0,1.536-0.292,2.121-0.878c1.172-1.172,1.172-3.071,0.001-4.243
					L135.607,152.694z"/>
			</g>
			<g style="opacity:0.76;">
				<path style="fill:#EBD8F2;" d="M173.679,152.693c-1.171-1.171-3.071-1.171-4.243,0.001c-1.171,1.171-1.171,3.07,0,4.243
					l38.075,38.073c0.586,0.586,1.354,0.878,2.121,0.878c0.768,0,1.536-0.292,2.122-0.879c1.171-1.171,1.171-3.071-0.001-4.243
					L173.679,152.693z"/>
			</g>
			<g style="opacity:0.48;">
				<path style="fill:#C48DFD;" d="M245.583,152.694l-38.072,38.073c-1.171,1.171-1.171,3.071,0,4.243
					c0.586,0.586,1.354,0.878,2.121,0.878c0.768,0,1.536-0.292,2.122-0.879l38.072-38.073c1.171-1.172,1.171-3.071-0.001-4.243
					C248.655,151.523,246.755,151.522,245.583,152.694z"/>
			</g>
			<g style="opacity:0.87;">
				<path style="fill:#BBC7D2;" d="M249.826,152.693c-1.171-1.171-3.071-1.171-4.243,0.001c-1.171,1.171-1.171,3.07,0.001,4.243
					l38.075,38.073c0.585,0.586,1.354,0.878,2.121,0.878c0.768,0,1.536-0.292,2.122-0.879c1.171-1.171,1.171-3.071,0-4.243
					L249.826,152.693z"/>
			</g>
			<g style="opacity:0.81;">
				<path style="fill:#FAF5FC;" d="M287.902,152.694c-1.172-1.172-3.072-1.172-4.243-0.001c-1.172,1.172-1.172,3.071,0,4.243
					l38.072,38.073c0.586,0.586,1.354,0.879,2.121,0.879c0.768,0,1.536-0.292,2.121-0.878c1.172-1.172,1.172-3.071,0-4.243
					L287.902,152.694z"/>
			</g>
			<g style="opacity:0.6;">
				<path style="fill:#A4B4C3;" d="M359.806,152.693l-38.074,38.073c-1.172,1.172-1.172,3.071,0,4.243
					c0.586,0.586,1.354,0.879,2.121,0.879c0.768,0,1.536-0.292,2.121-0.878l38.074-38.073c1.172-1.172,1.172-3.071,0-4.243
					C362.877,151.523,360.977,151.522,359.806,152.693z"/>
			</g>
			<g style="opacity:0.53;">
				<path style="fill:#EEDCF3;" d="M397.881,152.693l-38.075,38.073c-1.172,1.172-1.172,3.071-0.001,4.243
					c0.586,0.586,1.354,0.879,2.122,0.879c0.768,0,1.536-0.292,2.121-0.878l38.075-38.073c1.172-1.172,1.172-3.071,0-4.243
					C400.952,151.523,399.052,151.522,397.881,152.693z"/>
			</g>
			<g style="opacity:0.73;">
				<path style="fill:#A7B6C5;" d="M402.123,152.694c-1.171-1.172-3.071-1.172-4.242-0.001c-1.172,1.172-1.172,3.071,0,4.243
					l38.073,38.073c0.586,0.586,1.353,0.879,2.121,0.879s1.535-0.292,2.121-0.878c1.172-1.172,1.172-3.071,0-4.243L402.123,152.694z
					"/>
			</g>
			<g style="opacity:0.67;">
				<path style="fill:#F3E7F7;" d="M474.026,152.694l-38.073,38.073c-1.172,1.171-1.172,3.071,0,4.242
					c0.586,0.586,1.353,0.879,2.121,0.879s1.535-0.292,2.121-0.879l38.073-38.073c1.172-1.172,1.172-3.071,0-4.242
					C477.097,151.522,475.198,151.522,474.026,152.694z"/>
			</g>
			<g style="opacity:0.93;">
				<path style="fill:#D6B0FE;" d="M512.099,152.694l-38.072,38.073c-1.172,1.171-1.172,3.071,0,4.243
					c0.586,0.586,1.353,0.878,2.121,0.878c0.768,0,1.535-0.292,2.121-0.879l38.072-38.073c1.172-1.172,1.172-3.071,0-4.243
					C515.169,151.523,513.271,151.522,512.099,152.694z"/>
			</g>
			<g style="opacity:0.78;">
				<path style="fill:#C3CED7;" d="M516.341,152.693c-1.172-1.171-3.07-1.171-4.242,0.001c-1.172,1.171-1.172,3.07,0,4.243
					l38.074,38.073c0.586,0.586,1.353,0.878,2.121,0.878c0.768,0,1.535-0.292,2.121-0.879c1.172-1.171,1.172-3.071,0-4.243
					L516.341,152.693z"/>
			</g>
			<g style="opacity:0.44;">
				<path style="fill:#CC9CFE;" d="M588.245,152.694l-38.072,38.073c-1.172,1.171-1.172,3.071,0,4.243
					c0.586,0.586,1.353,0.878,2.121,0.878c0.768,0,1.535-0.292,2.121-0.879l38.072-38.073c1.172-1.172,1.172-3.071,0-4.243
					C591.315,151.523,589.417,151.522,588.245,152.694z"/>
			</g>
			<g style="opacity:0.63;">
				<path style="fill:#D3AAFE;" d="M626.319,152.693l-38.074,38.073c-1.172,1.172-1.172,3.071,0,4.243
					c0.586,0.586,1.354,0.879,2.121,0.879c0.768,0,1.535-0.292,2.121-0.878l38.074-38.073c1.172-1.172,1.172-3.071,0-4.243
					C629.39,151.522,627.491,151.523,626.319,152.693z"/>
			</g>
			<g style="opacity:0.96;">
				<path style="fill:#DFBFE9;" d="M630.561,152.693c-1.172-1.171-3.07-1.171-4.242,0.001c-1.172,1.171-1.172,3.07,0,4.243
					l38.074,38.073c0.586,0.586,1.354,0.878,2.121,0.878c0.768,0,1.535-0.292,2.121-0.879c1.172-1.171,1.172-3.071,0-4.243
					L630.561,152.693z"/>
			</g>
			<g style="opacity:0.31;">
				<path style="fill:#F1E2F5;" d="M702.468,152.693l-38.074,38.073c-1.172,1.172-1.172,3.071,0,4.243
					c0.586,0.586,1.354,0.879,2.121,0.879c0.768,0,1.535-0.292,2.121-0.878l38.074-38.073c1.172-1.172,1.172-3.071,0-4.243
					C705.538,151.522,703.64,151.523,702.468,152.693z"/>
			</g>
			<g style="opacity:0.54;">
				<path style="fill:#DDBEFE;" d="M706.71,152.694c-1.172-1.172-3.07-1.172-4.242-0.001c-1.172,1.172-1.172,3.071,0,4.243
					l38.072,38.073c0.586,0.586,1.354,0.879,2.121,0.879c0.768,0,1.535-0.292,2.121-0.878c1.172-1.172,1.172-3.071,0-4.243
					L706.71,152.694z"/>
			</g>
			<g style="opacity:0.32;">
				<path style="fill:#C2CCD6;" d="M778.614,152.693l-38.074,38.073c-1.172,1.172-1.172,3.071,0,4.243
					c0.586,0.586,1.354,0.879,2.121,0.879c0.768,0,1.535-0.292,2.121-0.878l38.074-38.073c1.172-1.172,1.172-3.071,0-4.243
					C781.685,151.522,779.786,151.523,778.614,152.693z"/>
			</g>
			<g style="opacity:0.45;">
				<path style="fill:#F0E2FF;" d="M782.856,152.694c-1.172-1.172-3.07-1.172-4.242-0.001c-1.172,1.172-1.172,3.071,0,4.243
					L800,178.322v-8.484L782.856,152.694z"/>
			</g>
			<g style="opacity:0.48;">
				<path style="fill:#A4B4C3;" d="M19.265,233.963c0.768,0,1.536-0.293,2.121-0.878c1.172-1.172,1.172-3.071,0-4.243L0,207.454
					v8.485l17.143,17.145C17.729,233.67,18.497,233.963,19.265,233.963z"/>
			</g>
			<g style="opacity:0.78;">
				<path style="fill:#EFDFF4;" d="M55.218,190.767l-38.074,38.075c-1.172,1.171-1.172,3.071,0,4.243
					c0.585,0.586,1.354,0.878,2.121,0.878c0.768,0,1.536-0.293,2.121-0.879l38.074-38.075c1.172-1.171,1.172-3.071,0-4.242
					C58.289,189.596,56.389,189.596,55.218,190.767z"/>
			</g>
			<g style="opacity:0.37;">
				<path style="fill:#BBC7D2;" d="M93.29,190.767l-38.072,38.075c-1.171,1.171-1.171,3.071,0,4.243
					c0.585,0.586,1.354,0.878,2.121,0.878c0.767,0,1.536-0.293,2.121-0.879l38.072-38.075c1.171-1.171,1.171-3.071,0-4.243
					C96.361,189.596,94.461,189.596,93.29,190.767z"/>
			</g>
			<g style="opacity:0.93;">
				<path style="fill:#BFCAD5;" d="M131.364,190.767L93.29,228.842c-1.172,1.171-1.172,3.071,0,4.243
					c0.586,0.586,1.354,0.878,2.121,0.878c0.768,0,1.536-0.293,2.121-0.879l38.074-38.075c1.172-1.171,1.172-3.071,0-4.242
					C134.436,189.596,132.535,189.596,131.364,190.767z"/>
			</g>
			<g style="opacity:0.61;">
				<path style="fill:#D7DEE5;" d="M169.436,190.767l-38.072,38.075c-1.171,1.171-1.171,3.071,0.001,4.243
					c0.585,0.586,1.354,0.878,2.121,0.878c0.768,0,1.536-0.293,2.122-0.879l38.072-38.075c1.171-1.171,1.171-3.071-0.001-4.243
					C172.508,189.596,170.608,189.596,169.436,190.767z"/>
			</g>
			<g style="opacity:0.88;">
				<path style="fill:#B2C0CC;" d="M207.512,190.767l-38.075,38.075c-1.172,1.171-1.172,3.071,0,4.242
					c0.586,0.586,1.354,0.879,2.122,0.879c0.768,0,1.536-0.293,2.121-0.878l38.075-38.075c1.172-1.171,1.172-3.071,0.001-4.242
					S208.683,189.595,207.512,190.767z"/>
			</g>
			<g style="opacity:0.8;">
				<path style="fill:#F5ECF9;" d="M245.583,190.767l-38.072,38.075c-1.171,1.171-1.171,3.071,0,4.243
					c0.586,0.586,1.354,0.878,2.121,0.878c0.768,0,1.536-0.293,2.122-0.879l38.072-38.075c1.171-1.171,1.171-3.071-0.001-4.243
					C248.655,189.596,246.755,189.596,245.583,190.767z"/>
			</g>
			<g style="opacity:0.52;">
				<path style="fill:#F4E9F7;" d="M283.659,190.767l-38.075,38.075c-1.172,1.171-1.172,3.071-0.001,4.242
					c0.586,0.586,1.354,0.879,2.122,0.879c0.768,0,1.536-0.293,2.121-0.878l38.075-38.075c1.172-1.171,1.172-3.071,0-4.242
					C286.73,189.596,284.83,189.595,283.659,190.767z"/>
			</g>
			<g style="opacity:0.78;">
				<path style="fill:#93A6B7;" d="M287.902,190.767c-1.172-1.171-3.072-1.171-4.243-0.001c-1.172,1.172-1.172,3.071,0,4.243
					l38.072,38.075c0.586,0.586,1.354,0.879,2.121,0.879c0.768,0,1.536-0.293,2.121-0.878c1.172-1.172,1.172-3.071,0-4.243
					L287.902,190.767z"/>
			</g>
			<g style="opacity:0.61;">
				<path style="fill:#CDD6DE;" d="M325.974,190.767c-1.17-1.171-3.071-1.172-4.242,0c-1.172,1.171-1.172,3.071,0,4.242
					l38.074,38.075c0.585,0.586,1.353,0.879,2.121,0.879c0.768,0,1.536-0.293,2.121-0.878c1.172-1.172,1.172-3.071,0-4.243
					L325.974,190.767z"/>
			</g>
			<g style="opacity:0.93;">
				<path style="fill:#D0D8E0;" d="M397.881,190.767l-38.075,38.075c-1.172,1.171-1.172,3.071-0.001,4.242
					c0.586,0.586,1.354,0.879,2.122,0.879c0.768,0,1.536-0.293,2.121-0.878l38.075-38.075c1.172-1.171,1.172-3.071,0-4.242
					C400.952,189.596,399.052,189.595,397.881,190.767z"/>
			</g>
			<g style="opacity:0.34;">
				<path style="fill:#B9C5D1;" d="M402.123,190.767c-1.171-1.171-3.071-1.171-4.242-0.001c-1.172,1.172-1.172,3.071,0,4.243
					l38.073,38.075c0.586,0.586,1.353,0.879,2.121,0.879s1.535-0.293,2.121-0.878c1.172-1.172,1.172-3.071,0-4.243L402.123,190.767z
					"/>
			</g>
			<g style="opacity:0.31;">
				<path style="fill:#CFA3FE;" d="M440.195,190.767c-1.172-1.171-3.07-1.171-4.242-0.001c-1.172,1.172-1.172,3.071,0,4.243
					l38.073,38.075c0.586,0.586,1.353,0.879,2.121,0.879c0.768,0,1.535-0.293,2.121-0.878c1.172-1.172,1.172-3.071,0-4.243
					L440.195,190.767z"/>
			</g>
			<g style="opacity:0.81;">
				<path style="fill:#D5AEFE;" d="M512.099,190.767l-38.072,38.075c-1.172,1.171-1.172,3.071,0,4.243
					c0.586,0.586,1.353,0.878,2.121,0.878c0.768,0,1.535-0.293,2.121-0.879l38.072-38.075c1.172-1.171,1.172-3.071,0-4.243
					C515.169,189.596,513.271,189.596,512.099,190.767z"/>
			</g>
			<g style="opacity:0.95;">
				<path style="fill:#C9D2DB;" d="M550.173,190.767l-38.074,38.075c-1.172,1.171-1.172,3.071,0,4.243
					c0.586,0.586,1.354,0.878,2.121,0.878c0.768,0,1.535-0.293,2.121-0.879l38.074-38.075c1.172-1.171,1.172-3.071,0-4.242
					C553.243,189.596,551.345,189.596,550.173,190.767z"/>
			</g>
			<g style="opacity:0.58;">
				<path style="fill:#CC9CFE;" d="M554.415,190.767c-1.172-1.171-3.07-1.171-4.242-0.001c-1.172,1.172-1.172,3.071,0,4.243
					l38.072,38.075c0.586,0.586,1.354,0.879,2.121,0.879c0.768,0,1.535-0.293,2.121-0.878c1.172-1.172,1.172-3.071,0-4.243
					L554.415,190.767z"/>
			</g>
			<g style="opacity:0.49;">
				<path style="fill:#D7B2FE;" d="M626.319,190.767l-38.074,38.075c-1.172,1.171-1.172,3.071,0,4.243
					c0.586,0.586,1.354,0.878,2.121,0.878c0.768,0,1.535-0.293,2.121-0.879l38.074-38.075c1.172-1.171,1.172-3.071,0-4.242
					C629.39,189.596,627.491,189.596,626.319,190.767z"/>
			</g>
			<g style="opacity:0.99;">
				<path style="fill:#F1E3F6;" d="M630.561,190.767c-1.172-1.171-3.07-1.171-4.242,0c-1.172,1.171-1.172,3.071,0,4.242
					l38.074,38.075c0.586,0.586,1.354,0.879,2.121,0.879c0.768,0,1.535-0.293,2.121-0.878c1.172-1.172,1.172-3.071,0-4.243
					L630.561,190.767z"/>
			</g>
			<g style="opacity:0.49;">
				<path style="fill:#F4EAF8;" d="M702.468,190.767l-38.074,38.075c-1.172,1.171-1.172,3.071,0,4.243
					c0.586,0.586,1.354,0.878,2.121,0.878c0.768,0,1.535-0.293,2.121-0.879l38.074-38.075c1.172-1.171,1.172-3.071,0-4.242
					C705.538,189.596,703.64,189.596,702.468,190.767z"/>
			</g>
			<g style="opacity:0.43;">
				<path style="fill:#F3E7F7;" d="M706.71,190.767c-1.172-1.171-3.07-1.171-4.242-0.001c-1.172,1.172-1.172,3.071,0,4.243
					l38.072,38.075c0.586,0.586,1.354,0.879,2.121,0.879c0.768,0,1.535-0.293,2.121-0.878c1.172-1.172,1.172-3.071,0-4.243
					L706.71,190.767z"/>
			</g>
			<g style="opacity:0.94;">
				<path style="fill:#D4DCE3;" d="M744.782,190.767c-1.172-1.171-3.07-1.171-4.242,0c-1.172,1.171-1.172,3.071,0,4.242
					l38.074,38.075c0.586,0.586,1.354,0.879,2.121,0.879c0.768,0,1.535-0.293,2.121-0.878c1.172-1.172,1.172-3.071,0-4.243
					L744.782,190.767z"/>
			</g>
			<g style="opacity:0.45;">
				<path style="fill:#97A9BA;" d="M778.614,228.842c-1.172,1.171-1.172,3.071,0,4.243c0.586,0.586,1.354,0.878,2.121,0.878
					c0.768,0,1.535-0.293,2.121-0.879L800,215.939v-8.485L778.614,228.842z"/>
			</g>
			<g style="opacity:0.46;">
				<path style="fill:#9BADBD;" d="M21.386,228.842c-1.171-1.171-3.071-1.171-4.242,0L0,245.986v8.484l21.386-21.386
					C22.558,231.913,22.558,230.013,21.386,228.842z"/>
			</g>
			<g style="opacity:0.75;">
				<path style="fill:#F5EBF8;" d="M55.218,228.842l-38.074,38.073c-1.172,1.171-1.172,3.07,0,4.242
					c0.586,0.586,1.353,0.879,2.122,0.879c0.768,0,1.536-0.293,2.121-0.879l38.074-38.073c1.172-1.172,1.172-3.071,0-4.243
					C58.289,227.671,56.389,227.67,55.218,228.842z"/>
			</g>
			<g style="opacity:0.48;">
				<path style="fill:#E5EAEE;" d="M59.46,228.842c-1.17-1.171-3.071-1.172-4.242,0c-1.172,1.171-1.172,3.071,0,4.242l38.072,38.073
					c0.586,0.586,1.353,0.879,2.121,0.879c0.768,0,1.536-0.293,2.121-0.879c1.172-1.171,1.172-3.071,0-4.242L59.46,228.842z"/>
			</g>
			<g style="opacity:0.57;">
				<path style="fill:#D6B0FE;" d="M131.364,228.842L93.29,266.915c-1.172,1.171-1.172,3.07,0,4.242
					c0.586,0.586,1.354,0.879,2.122,0.879c0.768,0,1.536-0.293,2.121-0.879l38.074-38.073c1.172-1.172,1.172-3.071,0.001-4.243
					C134.436,227.671,132.536,227.67,131.364,228.842z"/>
			</g>
			<g style="opacity:0.48;">
				<path style="fill:#CFA3FE;" d="M169.436,228.842l-38.072,38.073c-1.172,1.171-1.172,3.071,0,4.242
					c0.585,0.586,1.354,0.879,2.121,0.879c0.768,0,1.536-0.293,2.121-0.879l38.072-38.073c1.172-1.171,1.172-3.071,0-4.242
					C172.508,227.67,170.607,227.67,169.436,228.842z"/>
			</g>
			<g style="opacity:0.98;">
				<path style="fill:#F0E1F5;" d="M173.679,228.842c-1.171-1.171-3.071-1.171-4.243,0c-1.171,1.171-1.171,3.071,0,4.243
					l38.075,38.073c0.586,0.586,1.354,0.879,2.121,0.879c0.768,0,1.536-0.293,2.122-0.879c1.171-1.172,1.171-3.071-0.001-4.242
					L173.679,228.842z"/>
			</g>
			<g style="opacity:0.91;">
				<path style="fill:#F9F3FB;" d="M211.754,228.842c-1.17-1.171-3.071-1.172-4.242,0c-1.172,1.171-1.172,3.071,0,4.242
					l38.072,38.073c0.585,0.586,1.353,0.879,2.121,0.879c0.768,0,1.536-0.293,2.121-0.879c1.172-1.171,1.172-3.071,0-4.242
					L211.754,228.842z"/>
			</g>
			<g style="opacity:0.48;">
				<path style="fill:#B5C2CE;" d="M249.826,228.842c-1.171-1.171-3.071-1.171-4.243,0c-1.171,1.171-1.171,3.071,0.001,4.243
					l38.075,38.073c0.585,0.586,1.354,0.879,2.121,0.879c0.768,0,1.536-0.293,2.122-0.879c1.171-1.172,1.171-3.071,0-4.242
					L249.826,228.842z"/>
			</g>
			<g style="opacity:0.92;">
				<path style="fill:#D3AAFE;" d="M321.731,228.842l-38.072,38.073c-1.172,1.171-1.172,3.071,0,4.242
					c0.585,0.586,1.354,0.879,2.121,0.879c0.768,0,1.536-0.293,2.121-0.879l38.072-38.073c1.172-1.171,1.172-3.071,0-4.242
					C324.803,227.67,322.902,227.67,321.731,228.842z"/>
			</g>
			<g style="opacity:0.98;">
				<path style="fill:#C38BFD;" d="M325.974,228.842c-1.171-1.171-3.071-1.171-4.243,0c-1.171,1.171-1.171,3.071,0,4.243
					l38.074,38.073c0.585,0.586,1.353,0.879,2.121,0.879c0.768,0,1.536-0.293,2.121-0.879c1.171-1.172,1.171-3.071,0-4.242
					L325.974,228.842z"/>
			</g>
			<g style="opacity:0.96;">
				<path style="fill:#EEDCF3;" d="M397.881,228.842l-38.075,38.073c-1.172,1.171-1.172,3.07-0.001,4.242
					c0.586,0.586,1.354,0.879,2.122,0.879c0.768,0,1.536-0.293,2.121-0.879l38.075-38.073c1.172-1.172,1.172-3.071,0-4.243
					C400.952,227.671,399.052,227.67,397.881,228.842z"/>
			</g>
			<g style="opacity:0.84;">
				<path style="fill:#EFDFF4;" d="M402.123,228.842c-1.171-1.171-3.071-1.172-4.242,0c-1.172,1.171-1.172,3.071,0,4.242
					l38.072,38.073c0.586,0.586,1.353,0.879,2.121,0.879s1.535-0.293,2.121-0.879c1.172-1.171,1.172-3.071,0-4.242L402.123,228.842z
					"/>
			</g>
			<g style="opacity:0.37;">
				<path style="fill:#CFA2FE;" d="M440.195,228.842c-1.172-1.171-3.07-1.171-4.242,0c-1.172,1.171-1.172,3.071,0,4.242
					l38.073,38.073c0.586,0.586,1.353,0.879,2.121,0.879c0.768,0,1.535-0.293,2.121-0.879c1.172-1.171,1.172-3.071,0-4.242
					L440.195,228.842z"/>
			</g>
			<g style="opacity:0.77;">
				<path style="fill:#9DAEBE;" d="M512.099,228.842l-38.072,38.073c-1.172,1.171-1.172,3.071,0,4.242
					c0.586,0.586,1.353,0.879,2.121,0.879c0.768,0,1.535-0.293,2.121-0.879l38.072-38.073c1.172-1.171,1.172-3.071,0-4.242
					C515.169,227.67,513.271,227.67,512.099,228.842z"/>
			</g>
			<g style="opacity:0.89;">
				<path style="fill:#DAE0E6;" d="M550.173,228.842l-38.074,38.073c-1.172,1.171-1.172,3.07,0,4.242
					c0.586,0.586,1.354,0.879,2.121,0.879c0.768,0,1.535-0.293,2.121-0.879l38.074-38.073c1.172-1.172,1.172-3.071,0-4.243
					C553.243,227.67,551.345,227.671,550.173,228.842z"/>
			</g>
			<g style="opacity:0.69;">
				<path style="fill:#FBF8FC;" d="M588.245,228.842l-38.072,38.073c-1.172,1.171-1.172,3.071,0,4.242
					c0.586,0.586,1.353,0.879,2.121,0.879c0.768,0,1.535-0.293,2.121-0.879l38.072-38.073c1.172-1.171,1.172-3.071,0-4.242
					C591.315,227.67,589.417,227.67,588.245,228.842z"/>
			</g>
			<g style="opacity:0.4;">
				<path style="fill:#D1A7FE;" d="M592.487,228.842c-1.172-1.171-3.07-1.171-4.242,0c-1.172,1.171-1.172,3.071,0,4.243
					l38.074,38.073c0.586,0.586,1.354,0.879,2.121,0.879c0.768,0,1.535-0.293,2.121-0.879c1.172-1.172,1.172-3.071,0-4.242
					L592.487,228.842z"/>
			</g>
			<g style="opacity:0.9;">
				<path style="fill:#758DA3;" d="M630.561,228.842c-1.172-1.171-3.07-1.171-4.242,0c-1.172,1.171-1.172,3.071,0,4.243
					l38.074,38.073c0.586,0.586,1.354,0.879,2.121,0.879c0.768,0,1.535-0.293,2.121-0.879c1.172-1.172,1.172-3.071,0-4.242
					L630.561,228.842z"/>
			</g>
			<g style="opacity:0.73;">
				<path style="fill:#D0D8E0;" d="M702.468,228.842l-38.074,38.073c-1.172,1.171-1.172,3.07,0,4.242
					c0.586,0.586,1.354,0.879,2.121,0.879c0.768,0,1.535-0.293,2.121-0.879l38.074-38.073c1.172-1.172,1.172-3.071,0-4.243
					C705.538,227.67,703.64,227.671,702.468,228.842z"/>
			</g>
			<g style="opacity:0.92;">
				<path style="fill:#D7B2FE;" d="M740.54,228.842l-38.072,38.073c-1.172,1.171-1.172,3.071,0,4.242
					c0.586,0.586,1.354,0.879,2.121,0.879c0.768,0,1.535-0.293,2.121-0.879l38.072-38.073c1.172-1.171,1.172-3.071,0-4.242
					C743.61,227.67,741.712,227.67,740.54,228.842z"/>
			</g>
			<g style="opacity:0.66;">
				<path style="fill:#D3DBE2;" d="M778.614,228.842l-38.074,38.073c-1.172,1.171-1.172,3.07,0,4.242
					c0.586,0.586,1.354,0.879,2.121,0.879c0.768,0,1.535-0.293,2.121-0.879l38.074-38.073c1.172-1.172,1.172-3.071,0-4.243
					C781.685,227.67,779.786,227.671,778.614,228.842z"/>
			</g>
			<g style="opacity:0.65;">
				<path style="fill:#9BADBD;" d="M782.856,228.842c-1.172-1.171-3.07-1.171-4.242,0c-1.172,1.171-1.172,3.071,0,4.242L800,254.47
					v-8.484L782.856,228.842z"/>
			</g>
			<g style="opacity:0.73;">
				<path style="fill:#7D94A9;" d="M19.265,310.109c0.768,0,1.536-0.293,2.121-0.879c1.172-1.171,1.172-3.071,0-4.242L0,283.602
					v8.485l17.143,17.144C17.729,309.816,18.497,310.109,19.265,310.109z"/>
			</g>
			<g style="opacity:0.72;">
				<path style="fill:#BF84FD;" d="M21.386,266.915c-1.171-1.172-3.071-1.172-4.243,0c-1.171,1.172-1.171,3.071,0,4.242
					l38.074,38.073c0.585,0.586,1.354,0.879,2.121,0.879c0.767,0,1.536-0.293,2.121-0.879c1.171-1.172,1.171-3.071,0-4.242
					L21.386,266.915z"/>
			</g>
			<g style="opacity:0.6;">
				<path style="fill:#F0E1F5;" d="M93.29,266.915l-38.072,38.073c-1.171,1.171-1.171,3.071,0,4.242
					c0.585,0.586,1.354,0.879,2.121,0.879c0.767,0,1.536-0.293,2.121-0.879l38.072-38.073c1.171-1.171,1.171-3.071,0-4.242
					C96.361,265.743,94.461,265.743,93.29,266.915z"/>
			</g>
			<g style="opacity:0.44;">
				<path style="fill:#A7B6C5;" d="M131.364,266.915L93.29,304.988c-1.172,1.171-1.172,3.07,0,4.242
					c0.586,0.586,1.354,0.879,2.122,0.879c0.768,0,1.536-0.293,2.121-0.879l38.074-38.073c1.172-1.171,1.172-3.07,0.001-4.242
					C134.436,265.743,132.536,265.743,131.364,266.915z"/>
			</g>
			<g style="opacity:0.72;">
				<path style="fill:#D6AFFE;" d="M169.436,266.915l-38.072,38.073c-1.171,1.171-1.171,3.071,0.001,4.242
					c0.585,0.586,1.354,0.879,2.121,0.879c0.768,0,1.536-0.293,2.122-0.879l38.072-38.073c1.171-1.171,1.171-3.071-0.001-4.242
					C172.508,265.743,170.608,265.743,169.436,266.915z"/>
			</g>
			<g style="opacity:0.49;">
				<path style="fill:#E9D4FE;" d="M173.679,266.915c-1.171-1.172-3.071-1.172-4.243,0c-1.171,1.172-1.171,3.071,0,4.242
					l38.075,38.073c0.586,0.586,1.354,0.879,2.121,0.879c0.768,0,1.536-0.293,2.122-0.879c1.171-1.172,1.171-3.071-0.001-4.242
					L173.679,266.915z"/>
			</g>
			<g style="opacity:0.74;">
				<path style="fill:#CFA2FE;" d="M211.754,266.915c-1.171-1.172-3.071-1.172-4.243,0c-1.172,1.171-1.172,3.071,0,4.242
					l38.072,38.073c0.586,0.586,1.354,0.879,2.122,0.879c0.768,0,1.536-0.293,2.121-0.879c1.172-1.171,1.172-3.071,0.001-4.242
					L211.754,266.915z"/>
			</g>
			<g style="opacity:0.97;">
				<path style="fill:#D0D8E0;" d="M283.659,266.915l-38.075,38.073c-1.172,1.171-1.172,3.07-0.001,4.242
					c0.586,0.586,1.354,0.879,2.122,0.879c0.768,0,1.536-0.293,2.121-0.879l38.075-38.073c1.172-1.171,1.172-3.07,0-4.242
					C286.73,265.743,284.83,265.743,283.659,266.915z"/>
			</g>
			<g style="opacity:0.72;">
				<path style="fill:#D3ABFE;" d="M287.902,266.915c-1.172-1.172-3.072-1.172-4.243,0c-1.172,1.171-1.172,3.071,0,4.242
					l38.072,38.073c0.586,0.586,1.354,0.879,2.121,0.879c0.768,0,1.536-0.293,2.121-0.879c1.172-1.171,1.172-3.071,0-4.242
					L287.902,266.915z"/>
			</g>
			<g style="opacity:0.6;">
				<path style="fill:#E3C8FE;" d="M359.806,266.915l-38.074,38.073c-1.172,1.171-1.172,3.07,0,4.242
					c0.586,0.586,1.354,0.879,2.121,0.879c0.768,0,1.536-0.293,2.121-0.879l38.074-38.073c1.172-1.171,1.172-3.07,0-4.242
					C362.877,265.743,360.977,265.743,359.806,266.915z"/>
			</g>
			<g style="opacity:0.69;">
				<path style="fill:#DAE0E6;" d="M397.881,266.915l-38.075,38.073c-1.172,1.171-1.172,3.07-0.001,4.242
					c0.586,0.586,1.354,0.879,2.122,0.879c0.768,0,1.536-0.293,2.121-0.879l38.075-38.073c1.172-1.171,1.172-3.07,0-4.242
					C400.952,265.743,399.052,265.743,397.881,266.915z"/>
			</g>
			<g style="opacity:0.36;">
				<path style="fill:#D6DDE4;" d="M435.953,266.915l-38.073,38.073c-1.171,1.171-1.171,3.071,0,4.242
					c0.585,0.586,1.353,0.879,2.121,0.879c0.767,0,1.535-0.293,2.121-0.879l38.072-38.073c1.172-1.171,1.172-3.071,0-4.242
					C439.023,265.743,437.125,265.743,435.953,266.915z"/>
			</g>
			<g style="opacity:0.54;">
				<path style="fill:#E8D2FE;" d="M474.026,266.915l-38.073,38.073c-1.172,1.171-1.172,3.071,0,4.242
					c0.586,0.586,1.353,0.879,2.121,0.879s1.535-0.293,2.121-0.879l38.073-38.073c1.172-1.171,1.172-3.071,0-4.242
					C477.097,265.743,475.198,265.743,474.026,266.915z"/>
			</g>
			<g style="opacity:0.33;">
				<path style="fill:#DAB7FE;" d="M512.099,266.915l-38.072,38.073c-1.172,1.171-1.172,3.071,0,4.242
					c0.586,0.586,1.353,0.879,2.121,0.879c0.768,0,1.535-0.293,2.121-0.879l38.072-38.073c1.172-1.171,1.172-3.071,0-4.242
					C515.169,265.743,513.271,265.743,512.099,266.915z"/>
			</g>
			<g style="opacity:0.92;">
				<path style="fill:#BFCAD5;" d="M516.341,266.915c-1.172-1.172-3.07-1.172-4.242,0c-1.172,1.172-1.172,3.071,0,4.242
					l38.074,38.073c0.586,0.586,1.353,0.879,2.121,0.879c0.768,0,1.535-0.293,2.121-0.879c1.172-1.172,1.172-3.071,0-4.242
					L516.341,266.915z"/>
			</g>
			<g style="opacity:0.49;">
				<path style="fill:#D9DFE6;" d="M588.245,266.915l-38.072,38.073c-1.172,1.171-1.172,3.071,0,4.242
					c0.586,0.586,1.353,0.879,2.121,0.879c0.768,0,1.535-0.293,2.121-0.879l38.072-38.073c1.172-1.171,1.172-3.071,0-4.242
					C591.315,265.743,589.417,265.743,588.245,266.915z"/>
			</g>
			<g style="opacity:0.94;">
				<path style="fill:#90A3B5;" d="M592.487,266.915c-1.172-1.172-3.07-1.172-4.242,0c-1.172,1.172-1.172,3.071,0,4.242
					l38.074,38.073c0.586,0.586,1.354,0.879,2.121,0.879c0.768,0,1.535-0.293,2.121-0.879c1.172-1.172,1.172-3.071,0-4.242
					L592.487,266.915z"/>
			</g>
			<g style="opacity:0.54;">
				<path style="fill:#ECF0F3;" d="M664.394,266.915l-38.074,38.073c-1.172,1.171-1.172,3.07,0,4.242
					c0.586,0.586,1.354,0.879,2.121,0.879c0.768,0,1.535-0.293,2.121-0.879l38.074-38.073c1.172-1.171,1.172-3.07,0-4.242
					C667.464,265.743,665.565,265.743,664.394,266.915z"/>
			</g>
			<g style="opacity:0.79;">
				<path style="fill:#EBD8F2;" d="M668.636,266.915c-1.172-1.172-3.07-1.172-4.242,0c-1.172,1.172-1.172,3.071,0,4.242
					l38.074,38.073c0.586,0.586,1.354,0.879,2.121,0.879c0.768,0,1.535-0.293,2.121-0.879c1.172-1.172,1.172-3.071,0-4.242
					L668.636,266.915z"/>
			</g>
			<g style="opacity:0.9;">
				<path style="fill:#C48DFD;" d="M740.54,266.915l-38.072,38.073c-1.172,1.171-1.172,3.071,0,4.242
					c0.586,0.586,1.354,0.879,2.121,0.879c0.768,0,1.535-0.293,2.121-0.879l38.072-38.073c1.172-1.171,1.172-3.071,0-4.242
					C743.61,265.743,741.712,265.743,740.54,266.915z"/>
			</g>
			<g style="opacity:0.33;">
				<path style="fill:#F2E4F6;" d="M744.782,266.915c-1.172-1.172-3.07-1.172-4.242,0c-1.172,1.172-1.172,3.071,0,4.242
					l38.074,38.073c0.586,0.586,1.354,0.879,2.121,0.879c0.768,0,1.535-0.293,2.121-0.879c1.172-1.172,1.172-3.071,0-4.242
					L744.782,266.915z"/>
			</g>
			<g style="opacity:0.77;">
				<path style="fill:#B6C3CF;" d="M782.856,266.915c-1.172-1.172-3.07-1.172-4.242,0c-1.172,1.171-1.172,3.071,0,4.242L800,292.543
					v-8.484L782.856,266.915z"/>
			</g>
			<g style="opacity:0.65;">
				<path style="fill:#C894FD;" d="M21.386,304.988c-1.171-1.172-3.071-1.172-4.243,0L0,322.132v8.485l21.386-21.387
					C22.558,308.06,22.558,306.159,21.386,304.988z"/>
			</g>
			<g style="opacity:0.5;">
				<path style="fill:#D6DDE4;" d="M21.386,304.988c-1.171-1.172-3.071-1.172-4.243,0c-1.171,1.172-1.171,3.071,0,4.242
					l38.074,38.073c0.585,0.586,1.354,0.879,2.121,0.879c0.767,0,1.536-0.293,2.121-0.879c1.171-1.172,1.171-3.071,0-4.242
					L21.386,304.988z"/>
			</g>
			<g style="opacity:0.95;">
				<path style="fill:#D0D8E0;" d="M93.29,304.988l-38.072,38.073c-1.171,1.171-1.171,3.071,0,4.242
					c0.585,0.586,1.354,0.879,2.121,0.879c0.767,0,1.536-0.293,2.121-0.879l38.072-38.073c1.171-1.171,1.171-3.071,0-4.242
					C96.361,303.816,94.461,303.816,93.29,304.988z"/>
			</g>
			<g style="opacity:0.3;">
				<path style="fill:#F5ECF9;" d="M97.532,304.988c-1.171-1.172-3.071-1.172-4.243,0c-1.171,1.172-1.171,3.071,0,4.242
					l38.074,38.073c0.585,0.586,1.354,0.879,2.121,0.879c0.768,0,1.536-0.293,2.122-0.879c1.171-1.172,1.171-3.071-0.001-4.242
					L97.532,304.988z"/>
			</g>
			<g style="opacity:0.65;">
				<path style="fill:#DFC0FE;" d="M135.607,304.988c-1.171-1.171-3.071-1.173-4.243,0c-1.172,1.171-1.172,3.071-0.001,4.242
					l38.072,38.073c0.586,0.586,1.354,0.879,2.122,0.879c0.768,0,1.536-0.293,2.121-0.879c1.172-1.171,1.172-3.071,0.001-4.242
					L135.607,304.988z"/>
			</g>
			<g style="opacity:0.97;">
				<path style="fill:#BDC9D4;" d="M207.512,304.988l-38.075,38.073c-1.172,1.171-1.172,3.07,0,4.242
					c0.586,0.586,1.354,0.879,2.122,0.879c0.768,0,1.536-0.293,2.121-0.879l38.075-38.073c1.172-1.171,1.172-3.07,0.001-4.242
					C210.583,303.817,208.683,303.815,207.512,304.988z"/>
			</g>
			<g style="opacity:0.48;">
				<path style="fill:#A1B1C1;" d="M245.583,304.988l-38.072,38.073c-1.171,1.171-1.171,3.071,0,4.242
					c0.586,0.586,1.354,0.879,2.121,0.879c0.768,0,1.536-0.293,2.122-0.879l38.072-38.073c1.171-1.171,1.171-3.071-0.001-4.242
					C248.655,303.816,246.755,303.816,245.583,304.988z"/>
			</g>
			<g style="opacity:0.54;">
				<path style="fill:#DAE0E6;" d="M249.826,304.988c-1.171-1.172-3.071-1.172-4.243,0c-1.171,1.172-1.171,3.071,0.001,4.242
					l38.075,38.073c0.585,0.586,1.354,0.879,2.121,0.879c0.768,0,1.536-0.293,2.122-0.879c1.171-1.172,1.171-3.071,0-4.242
					L249.826,304.988z"/>
			</g>
			<g style="opacity:0.53;">
				<path style="fill:#9EAFBF;" d="M321.731,304.988l-38.072,38.073c-1.171,1.171-1.171,3.071,0,4.242
					c0.585,0.586,1.354,0.879,2.121,0.879c0.768,0,1.536-0.293,2.122-0.879l38.072-38.073c1.171-1.171,1.171-3.071,0-4.242
					C324.803,303.816,322.903,303.816,321.731,304.988z"/>
			</g>
			<g style="opacity:0.45;">
				<path style="fill:#CCD5DD;" d="M325.974,304.988c-1.171-1.172-3.071-1.172-4.243,0c-1.171,1.172-1.171,3.071,0,4.242
					l38.074,38.073c0.585,0.586,1.353,0.879,2.121,0.879c0.768,0,1.536-0.293,2.121-0.879c1.171-1.172,1.171-3.071,0-4.242
					L325.974,304.988z"/>
			</g>
			<g style="opacity:0.64;">
				<path style="fill:#D9B6FE;" d="M397.881,304.988l-38.075,38.073c-1.172,1.171-1.172,3.07-0.001,4.242
					c0.586,0.586,1.354,0.879,2.122,0.879c0.768,0,1.536-0.293,2.121-0.879l38.075-38.073c1.172-1.171,1.172-3.07,0-4.242
					C400.952,303.817,399.052,303.815,397.881,304.988z"/>
			</g>
			<g style="opacity:0.96;">
				<path style="fill:#C3CED7;" d="M435.953,304.988l-38.073,38.073c-1.171,1.171-1.171,3.071,0,4.242
					c0.585,0.586,1.353,0.879,2.121,0.879c0.767,0,1.535-0.293,2.121-0.879l38.072-38.073c1.172-1.171,1.172-3.071,0-4.242
					C439.023,303.816,437.125,303.816,435.953,304.988z"/>
			</g>
			<g style="opacity:0.4;">
				<path style="fill:#A9B9C6;" d="M474.026,304.988l-38.073,38.073c-1.172,1.171-1.172,3.071,0,4.242
					c0.586,0.586,1.353,0.879,2.121,0.879s1.535-0.293,2.121-0.879l38.073-38.073c1.172-1.171,1.172-3.071,0-4.242
					C477.097,303.816,475.198,303.816,474.026,304.988z"/>
			</g>
			<g style="opacity:0.62;">
				<path style="fill:#B8C4D0;" d="M512.099,304.988l-38.072,38.073c-1.172,1.171-1.172,3.071,0,4.242
					c0.586,0.586,1.353,0.879,2.121,0.879c0.768,0,1.535-0.293,2.121-0.879l38.072-38.073c1.172-1.171,1.172-3.071,0-4.242
					C515.169,303.816,513.271,303.816,512.099,304.988z"/>
			</g>
			<g style="opacity:0.96;">
				<path style="fill:#EFF2F5;" d="M516.341,304.988c-1.172-1.172-3.07-1.172-4.242,0c-1.172,1.172-1.172,3.071,0,4.242
					l38.074,38.073c0.586,0.586,1.353,0.879,2.121,0.879c0.768,0,1.535-0.293,2.121-0.879c1.172-1.172,1.172-3.071,0-4.242
					L516.341,304.988z"/>
			</g>
			<g style="opacity:0.62;">
				<path style="fill:#ECD9F2;" d="M588.245,304.988l-38.072,38.073c-1.172,1.171-1.172,3.071,0,4.242
					c0.586,0.586,1.353,0.879,2.121,0.879c0.768,0,1.535-0.293,2.121-0.879l38.072-38.073c1.172-1.171,1.172-3.071,0-4.242
					C591.315,303.816,589.417,303.816,588.245,304.988z"/>
			</g>
			<g style="opacity:0.86;">
				<path style="fill:#DFC2FE;" d="M626.319,304.988l-38.074,38.073c-1.172,1.171-1.172,3.07,0,4.242
					c0.586,0.586,1.354,0.879,2.121,0.879c0.768,0,1.535-0.293,2.121-0.879l38.074-38.073c1.172-1.171,1.172-3.07,0-4.242
					C629.39,303.816,627.491,303.816,626.319,304.988z"/>
			</g>
			<g style="opacity:0.78;">
				<path style="fill:#D4ACFE;" d="M630.561,304.988c-1.172-1.172-3.07-1.172-4.242,0c-1.172,1.172-1.172,3.071,0,4.242
					l38.074,38.073c0.586,0.586,1.354,0.879,2.121,0.879c0.768,0,1.535-0.293,2.121-0.879c1.172-1.172,1.172-3.071,0-4.242
					L630.561,304.988z"/>
			</g>
			<g style="opacity:0.64;">
				<path style="fill:#CDD6DE;" d="M702.468,304.988l-38.074,38.073c-1.172,1.171-1.172,3.07,0,4.242
					c0.586,0.586,1.354,0.879,2.121,0.879c0.768,0,1.535-0.293,2.121-0.879l38.074-38.073c1.172-1.171,1.172-3.07,0-4.242
					C705.538,303.816,703.64,303.816,702.468,304.988z"/>
			</g>
			<g style="opacity:0.48;">
				<path style="fill:#F7EFFA;" d="M706.71,304.988c-1.172-1.172-3.07-1.172-4.242,0c-1.172,1.171-1.172,3.071,0,4.242
					l38.072,38.073c0.586,0.586,1.354,0.879,2.121,0.879c0.768,0,1.535-0.293,2.121-0.879c1.172-1.171,1.172-3.071,0-4.242
					L706.71,304.988z"/>
			</g>
			<g style="opacity:0.88;">
				<path style="fill:#CFA2FE;" d="M778.614,304.988l-38.074,38.073c-1.172,1.171-1.172,3.07,0,4.242
					c0.586,0.586,1.354,0.879,2.121,0.879c0.768,0,1.535-0.293,2.121-0.879l38.074-38.073c1.172-1.171,1.172-3.07,0-4.242
					C781.685,303.816,779.786,303.816,778.614,304.988z"/>
			</g>
			<g style="opacity:0.91;">
				<path style="fill:#EFF2F5;" d="M782.856,304.988c-1.172-1.172-3.07-1.172-4.242,0c-1.172,1.171-1.172,3.071,0,4.242L800,330.616
					v-8.484L782.856,304.988z"/>
			</g>
			<g style="opacity:0.85;">
				<path style="fill:#C6D0D9;" d="M21.386,343.061c-1.171-1.172-3.071-1.172-4.243,0L0,360.205v8.486l21.386-21.388
					C22.558,346.132,22.558,344.232,21.386,343.061z"/>
			</g>
			<g style="opacity:0.6;">
				<path style="fill:#D7B2FE;" d="M55.218,343.061l-38.074,38.074c-1.172,1.171-1.172,3.071,0,4.242
					c0.585,0.586,1.354,0.879,2.121,0.879c0.768,0,1.536-0.293,2.121-0.879l38.074-38.074c1.172-1.171,1.172-3.071,0-4.242
					C58.289,341.89,56.389,341.89,55.218,343.061z"/>
			</g>
			<g style="opacity:0.31;">
				<path style="fill:#F2E5F6;" d="M93.29,343.061l-38.072,38.074c-1.171,1.172-1.171,3.071,0,4.242
					c0.585,0.586,1.354,0.879,2.121,0.879c0.767,0,1.536-0.293,2.121-0.879l38.072-38.074c1.171-1.172,1.171-3.071,0-4.242
					C96.361,341.89,94.461,341.89,93.29,343.061z"/>
			</g>
			<g style="opacity:0.75;">
				<path style="fill:#91A5B6;" d="M131.364,343.061L93.29,381.136c-1.172,1.171-1.172,3.071,0,4.242
					c0.586,0.586,1.354,0.879,2.121,0.879c0.768,0,1.536-0.293,2.121-0.879l38.074-38.074c1.172-1.171,1.172-3.071,0-4.242
					C134.436,341.89,132.535,341.89,131.364,343.061z"/>
			</g>
			<g style="opacity:0.79;">
				<path style="fill:#C793FD;" d="M169.436,343.061l-38.072,38.074c-1.171,1.172-1.171,3.071,0.001,4.242
					c0.585,0.586,1.354,0.879,2.121,0.879c0.768,0,1.536-0.293,2.122-0.879l38.072-38.074c1.171-1.172,1.171-3.071-0.001-4.242
					C172.508,341.89,170.608,341.89,169.436,343.061z"/>
			</g>
			<g style="opacity:0.47;">
				<path style="fill:#F5ECF9;" d="M173.679,343.061c-1.171-1.172-3.071-1.172-4.243,0c-1.171,1.172-1.171,3.071,0,4.242
					l38.075,38.074c0.586,0.586,1.354,0.879,2.121,0.879c0.768,0,1.536-0.293,2.122-0.879c1.171-1.172,1.171-3.071-0.001-4.242
					L173.679,343.061z"/>
			</g>
			<g style="opacity:0.33;">
				<path style="fill:#D7DEE5;" d="M245.583,343.061l-38.072,38.074c-1.171,1.172-1.171,3.071,0,4.242
					c0.586,0.586,1.354,0.879,2.121,0.879c0.768,0,1.536-0.293,2.122-0.879l38.072-38.074c1.171-1.172,1.171-3.071-0.001-4.242
					C248.655,341.89,246.755,341.89,245.583,343.061z"/>
			</g>
			<g style="opacity:0.44;">
				<path style="fill:#D0D8E0;" d="M283.659,343.061l-38.075,38.074c-1.172,1.171-1.172,3.07-0.001,4.242
					c0.586,0.586,1.354,0.879,2.122,0.879c0.768,0,1.536-0.293,2.121-0.879l38.075-38.074c1.172-1.171,1.172-3.07,0-4.242
					C286.73,341.89,284.83,341.89,283.659,343.061z"/>
			</g>
			<g style="opacity:0.62;">
				<path style="fill:#F4EAF8;" d="M321.731,343.061l-38.072,38.074c-1.171,1.172-1.171,3.071,0,4.242
					c0.585,0.586,1.354,0.879,2.121,0.879c0.768,0,1.536-0.293,2.122-0.879l38.072-38.074c1.171-1.172,1.171-3.071,0-4.242
					C324.803,341.89,322.903,341.89,321.731,343.061z"/>
			</g>
			<g style="opacity:0.56;">
				<path style="fill:#E2C5EB;" d="M359.806,343.061l-38.074,38.074c-1.172,1.171-1.172,3.071,0,4.242
					c0.586,0.586,1.354,0.879,2.121,0.879c0.768,0,1.536-0.293,2.121-0.879l38.074-38.074c1.172-1.171,1.172-3.071,0-4.242
					C362.877,341.89,360.977,341.89,359.806,343.061z"/>
			</g>
			<g style="opacity:0.94;">
				<path style="fill:#D3AAFE;" d="M364.048,343.061c-1.171-1.172-3.071-1.172-4.243,0c-1.171,1.172-1.171,3.071,0.001,4.242
					l38.075,38.074c0.585,0.586,1.353,0.879,2.121,0.879c0.767,0,1.535-0.293,2.121-0.879c1.172-1.172,1.172-3.071,0-4.242
					L364.048,343.061z"/>
			</g>
			<g style="opacity:0.66;">
				<path style="fill:#D6DDE4;" d="M435.953,343.061l-38.073,38.074c-1.171,1.172-1.171,3.071,0,4.242
					c0.585,0.586,1.353,0.879,2.121,0.879c0.767,0,1.535-0.293,2.121-0.879l38.072-38.074c1.172-1.172,1.172-3.071,0-4.242
					C439.023,341.89,437.125,341.89,435.953,343.061z"/>
			</g>
			<g style="opacity:0.86;">
				<path style="fill:#DDE3E8;" d="M474.026,343.061l-38.073,38.074c-1.172,1.171-1.172,3.071,0,4.242
					c0.586,0.586,1.353,0.879,2.121,0.879s1.535-0.293,2.121-0.879l38.073-38.074c1.172-1.171,1.172-3.071,0-4.242
					C477.097,341.89,475.198,341.89,474.026,343.061z"/>
			</g>
			<g style="opacity:0.89;">
				<path style="fill:#C997FD;" d="M478.269,343.061c-1.172-1.172-3.07-1.172-4.242,0c-1.172,1.171-1.172,3.07,0,4.242
					l38.072,38.074c0.586,0.586,1.354,0.879,2.121,0.879c0.768,0,1.535-0.293,2.121-0.879c1.172-1.171,1.172-3.07,0-4.242
					L478.269,343.061z"/>
			</g>
			<g style="opacity:0.45;">
				<path style="fill:#CFA3FE;" d="M550.173,343.061l-38.074,38.074c-1.172,1.171-1.172,3.071,0,4.242
					c0.586,0.586,1.354,0.879,2.121,0.879c0.768,0,1.535-0.293,2.121-0.879l38.074-38.074c1.172-1.171,1.172-3.071,0-4.242
					C553.243,341.89,551.345,341.89,550.173,343.061z"/>
			</g>
			<g style="opacity:0.95;">
				<path style="fill:#EEDCF3;" d="M588.245,343.061l-38.072,38.074c-1.172,1.172-1.172,3.071,0,4.242
					c0.586,0.586,1.353,0.879,2.121,0.879c0.768,0,1.535-0.293,2.121-0.879l38.072-38.074c1.172-1.172,1.172-3.071,0-4.242
					C591.315,341.89,589.417,341.89,588.245,343.061z"/>
			</g>
			<g style="opacity:0.86;">
				<path style="fill:#91A5B6;" d="M626.319,343.061l-38.074,38.074c-1.172,1.171-1.172,3.071,0,4.242
					c0.586,0.586,1.354,0.879,2.121,0.879c0.768,0,1.535-0.293,2.121-0.879l38.074-38.074c1.172-1.171,1.172-3.071,0-4.242
					C629.39,341.89,627.491,341.89,626.319,343.061z"/>
			</g>
			<g style="opacity:0.94;">
				<path style="fill:#E1C4FE;" d="M664.394,343.061l-38.074,38.074c-1.172,1.171-1.172,3.071,0,4.242
					c0.586,0.586,1.354,0.879,2.121,0.879c0.768,0,1.535-0.293,2.121-0.879l38.074-38.074c1.172-1.171,1.172-3.071,0-4.242
					C667.464,341.89,665.565,341.89,664.394,343.061z"/>
			</g>
			<g style="opacity:0.59;">
				<path style="fill:#D0A4FE;" d="M702.468,343.061l-38.074,38.074c-1.172,1.171-1.172,3.071,0,4.242
					c0.586,0.586,1.354,0.879,2.121,0.879c0.768,0,1.535-0.293,2.121-0.879l38.074-38.074c1.172-1.171,1.172-3.071,0-4.242
					C705.538,341.89,703.64,341.89,702.468,343.061z"/>
			</g>
			<g style="opacity:0.66;">
				<path style="fill:#F6EDF9;" d="M740.54,343.061l-38.072,38.074c-1.172,1.172-1.172,3.071,0,4.242
					c0.586,0.586,1.354,0.879,2.121,0.879c0.768,0,1.535-0.293,2.121-0.879l38.072-38.074c1.172-1.172,1.172-3.071,0-4.242
					C743.61,341.89,741.712,341.89,740.54,343.061z"/>
			</g>
			<g style="opacity:0.55;">
				<path style="fill:#F1E2F5;" d="M744.782,343.061c-1.172-1.172-3.07-1.172-4.242,0c-1.172,1.171-1.172,3.071,0,4.242
					l38.074,38.074c0.586,0.586,1.354,0.879,2.121,0.879c0.768,0,1.535-0.293,2.121-0.879c1.172-1.171,1.172-3.071,0-4.242
					L744.782,343.061z"/>
			</g>
			<g style="opacity:0.83;">
				<path style="fill:#BBC7D2;" d="M778.614,381.136c-1.172,1.172-1.172,3.071,0,4.242c0.586,0.586,1.354,0.879,2.121,0.879
					c0.768,0,1.535-0.293,2.121-0.879L800,368.233v-8.484L778.614,381.136z"/>
			</g>
			<g style="opacity:0.64;">
				<path style="fill:#EEDFFF;" d="M21.386,381.136c-1.171-1.172-3.071-1.172-4.243,0L0,398.279v8.486l21.386-21.388
					C22.558,384.206,22.558,382.307,21.386,381.136z"/>
			</g>
			<g style="opacity:0.9;">
				<path style="fill:#D2A8FE;" d="M55.218,381.136L17.144,419.21c-1.172,1.171-1.172,3.071,0,4.242
					c0.585,0.586,1.354,0.879,2.121,0.879c0.768,0,1.536-0.293,2.121-0.879l38.074-38.074c1.172-1.171,1.172-3.071,0-4.242
					C58.289,379.964,56.389,379.964,55.218,381.136z"/>
			</g>
			<g style="opacity:0.38;">
				<path style="fill:#9EAFBF;" d="M93.29,381.136L55.217,419.21c-1.171,1.172-1.171,3.071,0,4.242
					c0.585,0.586,1.354,0.879,2.121,0.879c0.767,0,1.536-0.293,2.121-0.879l38.072-38.074c1.171-1.172,1.171-3.071,0-4.242
					C96.361,379.964,94.461,379.964,93.29,381.136z"/>
			</g>
			<g style="opacity:0.43;">
				<path style="fill:#EAD6F1;" d="M131.364,381.136L93.29,419.21c-1.172,1.171-1.172,3.071,0,4.242
					c0.586,0.586,1.354,0.879,2.121,0.879c0.768,0,1.536-0.293,2.121-0.879l38.074-38.074c1.172-1.171,1.172-3.071,0-4.242
					C134.436,379.964,132.535,379.964,131.364,381.136z"/>
			</g>
			<g style="opacity:0.95;">
				<path style="fill:#DAE0E6;" d="M169.436,381.136l-38.072,38.074c-1.171,1.172-1.171,3.071,0.001,4.242
					c0.585,0.586,1.354,0.879,2.121,0.879c0.768,0,1.536-0.293,2.122-0.879l38.072-38.074c1.171-1.172,1.171-3.071-0.001-4.242
					C172.508,379.964,170.608,379.964,169.436,381.136z"/>
			</g>
			<g style="opacity:0.7;">
				<path style="fill:#DCBBFE;" d="M207.512,381.136l-38.075,38.074c-1.172,1.171-1.172,3.07,0,4.242
					c0.586,0.586,1.354,0.879,2.122,0.879c0.768,0,1.536-0.293,2.121-0.879l38.075-38.074c1.172-1.171,1.172-3.07,0.001-4.242
					C210.583,379.964,208.683,379.964,207.512,381.136z"/>
			</g>
			<g style="opacity:0.58;">
				<path style="fill:#D9DFE6;" d="M245.583,381.136l-38.072,38.074c-1.171,1.172-1.171,3.071,0,4.242
					c0.586,0.586,1.354,0.879,2.121,0.879c0.768,0,1.536-0.293,2.122-0.879l38.072-38.074c1.171-1.172,1.171-3.071-0.001-4.242
					C248.655,379.964,246.755,379.964,245.583,381.136z"/>
			</g>
			<g style="opacity:0.35;">
				<path style="fill:#A8B7C5;" d="M249.826,381.136c-1.171-1.172-3.071-1.172-4.243,0c-1.171,1.172-1.171,3.071,0.001,4.242
					l38.075,38.074c0.585,0.586,1.354,0.879,2.121,0.879c0.768,0,1.536-0.293,2.122-0.879c1.171-1.172,1.171-3.071,0-4.242
					L249.826,381.136z"/>
			</g>
			<g style="opacity:0.5;">
				<path style="fill:#E5CEFE;" d="M321.731,381.136l-38.072,38.074c-1.171,1.172-1.171,3.071,0,4.242
					c0.585,0.586,1.354,0.879,2.121,0.879c0.768,0,1.536-0.293,2.122-0.879l38.072-38.074c1.171-1.172,1.171-3.071,0-4.242
					C324.803,379.964,322.903,379.964,321.731,381.136z"/>
			</g>
			<g style="opacity:0.58;">
				<path style="fill:#CD9EFE;" d="M325.974,381.136c-1.171-1.172-3.071-1.172-4.242,0c-1.172,1.171-1.172,3.071,0,4.242
					l38.074,38.074c0.585,0.586,1.353,0.879,2.121,0.879c0.768,0,1.536-0.293,2.121-0.879c1.172-1.171,1.172-3.071,0-4.242
					L325.974,381.136z"/>
			</g>
			<g style="opacity:0.78;">
				<path style="fill:#C7D1DA;" d="M364.048,381.136c-1.171-1.172-3.071-1.172-4.243,0c-1.171,1.172-1.171,3.071,0.001,4.242
					l38.075,38.074c0.585,0.586,1.353,0.879,2.121,0.879c0.767,0,1.535-0.293,2.121-0.879c1.172-1.172,1.172-3.071,0-4.242
					L364.048,381.136z"/>
			</g>
			<g style="opacity:0.77;">
				<path style="fill:#DAB7FE;" d="M402.123,381.136c-1.171-1.172-3.071-1.172-4.242,0c-1.172,1.171-1.172,3.07,0,4.242
					l38.073,38.074c0.586,0.586,1.353,0.879,2.121,0.879s1.535-0.293,2.121-0.879c1.172-1.171,1.172-3.07,0-4.242L402.123,381.136z"
					/>
			</g>
			<g style="opacity:0.75;">
				<path style="fill:#90A3B5;" d="M474.026,381.136l-38.073,38.074c-1.172,1.171-1.172,3.071,0,4.242
					c0.586,0.586,1.353,0.879,2.121,0.879s1.535-0.293,2.121-0.879l38.073-38.074c1.172-1.171,1.172-3.071,0-4.242
					C477.097,379.964,475.198,379.964,474.026,381.136z"/>
			</g>
			<g style="opacity:0.48;">
				<path style="fill:#D3DBE2;" d="M512.099,381.136l-38.072,38.074c-1.172,1.172-1.172,3.071,0,4.242
					c0.586,0.586,1.353,0.879,2.121,0.879c0.768,0,1.535-0.293,2.121-0.879l38.072-38.074c1.172-1.172,1.172-3.071,0-4.242
					C515.169,379.964,513.271,379.964,512.099,381.136z"/>
			</g>
			<g style="opacity:0.84;">
				<path style="fill:#FAF4FB;" d="M516.341,381.136c-1.172-1.172-3.07-1.172-4.242,0c-1.172,1.171-1.172,3.071,0,4.242
					l38.074,38.074c0.586,0.586,1.353,0.879,2.121,0.879c0.768,0,1.535-0.293,2.121-0.879c1.172-1.171,1.172-3.071,0-4.242
					L516.341,381.136z"/>
			</g>
			<g style="opacity:0.76;">
				<path style="fill:#E6CFFE;" d="M554.415,381.136c-1.172-1.172-3.07-1.172-4.242,0c-1.172,1.171-1.172,3.07,0,4.242
					l38.072,38.074c0.586,0.586,1.354,0.879,2.121,0.879c0.768,0,1.535-0.293,2.121-0.879c1.172-1.171,1.172-3.07,0-4.242
					L554.415,381.136z"/>
			</g>
			<g style="opacity:0.86;">
				<path style="fill:#D7DEE5;" d="M626.319,381.136l-38.074,38.074c-1.172,1.171-1.172,3.071,0,4.242
					c0.586,0.586,1.354,0.879,2.121,0.879c0.768,0,1.535-0.293,2.121-0.879l38.074-38.074c1.172-1.171,1.172-3.071,0-4.242
					C629.39,379.964,627.491,379.964,626.319,381.136z"/>
			</g>
			<g style="opacity:0.7;">
				<path style="fill:#FBF8FC;" d="M664.394,381.136l-38.074,38.074c-1.172,1.171-1.172,3.071,0,4.242
					c0.586,0.586,1.354,0.879,2.121,0.879c0.768,0,1.535-0.293,2.121-0.879l38.074-38.074c1.172-1.171,1.172-3.071,0-4.242
					C667.464,379.964,665.565,379.964,664.394,381.136z"/>
			</g>
			<g style="opacity:0.4;">
				<path style="fill:#DDBEFE;" d="M668.636,381.136c-1.172-1.172-3.07-1.172-4.242,0c-1.172,1.171-1.172,3.071,0,4.242
					l38.074,38.074c0.586,0.586,1.354,0.879,2.121,0.879c0.768,0,1.535-0.293,2.121-0.879c1.172-1.171,1.172-3.071,0-4.242
					L668.636,381.136z"/>
			</g>
			<g style="opacity:0.57;">
				<path style="fill:#DAB8FE;" d="M706.71,381.136c-1.172-1.172-3.07-1.172-4.242,0c-1.172,1.171-1.172,3.07,0,4.242l38.072,38.074
					c0.586,0.586,1.354,0.879,2.121,0.879c0.768,0,1.535-0.293,2.121-0.879c1.172-1.171,1.172-3.07,0-4.242L706.71,381.136z"/>
			</g>
			<g style="opacity:0.9;">
				<path style="fill:#C289FD;" d="M744.782,381.136c-1.172-1.172-3.07-1.172-4.242,0c-1.172,1.171-1.172,3.071,0,4.242
					l38.074,38.074c0.586,0.586,1.354,0.879,2.121,0.879c0.768,0,1.535-0.293,2.121-0.879c1.172-1.171,1.172-3.071,0-4.242
					L744.782,381.136z"/>
			</g>
			<g style="opacity:0.92;">
				<path style="fill:#E9D4FE;" d="M782.856,381.136c-1.172-1.172-3.07-1.172-4.242,0c-1.172,1.171-1.172,3.07,0,4.242L800,406.765
					v-8.484L782.856,381.136z"/>
			</g>
			<g style="opacity:0.7;">
				<path style="fill:#DAE0E6;" d="M21.386,419.21c-1.171-1.172-3.071-1.172-4.243,0L0,436.353v8.485l21.386-21.387
					C22.558,422.281,22.558,420.381,21.386,419.21z"/>
			</g>
			<g style="opacity:0.98;">
				<path style="fill:#AFBDCA;" d="M21.386,419.21c-1.171-1.172-3.071-1.172-4.243,0c-1.171,1.172-1.171,3.071,0,4.242
					l38.074,38.073c0.585,0.586,1.354,0.879,2.121,0.879c0.767,0,1.536-0.293,2.121-0.879c1.171-1.172,1.171-3.071,0-4.242
					L21.386,419.21z"/>
			</g>
			<g style="opacity:0.66;">
				<path style="fill:#F6EDF9;" d="M59.46,419.21c-1.171-1.171-3.071-1.173-4.243,0c-1.172,1.171-1.172,3.071,0,4.242l38.072,38.073
					c0.586,0.586,1.354,0.879,2.122,0.879c0.768,0,1.536-0.293,2.121-0.879c1.172-1.171,1.172-3.071,0-4.242L59.46,419.21z"/>
			</g>
			<g style="opacity:0.83;">
				<path style="fill:#F3E7F7;" d="M97.532,419.21c-1.171-1.172-3.071-1.172-4.243,0c-1.171,1.172-1.171,3.071,0,4.242
					l38.074,38.073c0.585,0.586,1.354,0.879,2.121,0.879c0.768,0,1.536-0.293,2.122-0.879c1.171-1.172,1.171-3.071-0.001-4.242
					L97.532,419.21z"/>
			</g>
			<g style="opacity:0.86;">
				<path style="fill:#F2E4F6;" d="M135.607,419.21c-1.171-1.171-3.071-1.173-4.243,0c-1.172,1.171-1.172,3.071-0.001,4.242
					l38.072,38.073c0.586,0.586,1.354,0.879,2.122,0.879c0.768,0,1.536-0.293,2.121-0.879c1.172-1.171,1.172-3.071,0.001-4.242
					L135.607,419.21z"/>
			</g>
			<g style="opacity:0.97;">
				<path style="fill:#CCD5DD;" d="M207.512,419.21l-38.075,38.073c-1.172,1.171-1.172,3.07,0,4.242
					c0.586,0.586,1.354,0.879,2.122,0.879c0.768,0,1.536-0.293,2.121-0.879l38.075-38.073c1.172-1.171,1.172-3.07,0.001-4.242
					C210.583,418.039,208.683,418.037,207.512,419.21z"/>
			</g>
			<g style="opacity:0.97;">
				<path style="fill:#AEBCC9;" d="M211.754,419.21c-1.171-1.171-3.071-1.173-4.243,0c-1.172,1.171-1.172,3.071,0,4.242
					l38.072,38.073c0.586,0.586,1.354,0.879,2.122,0.879c0.768,0,1.536-0.293,2.121-0.879c1.172-1.171,1.172-3.071,0.001-4.242
					L211.754,419.21z"/>
			</g>
			<g style="opacity:0.45;">
				<path style="fill:#DDBEFE;" d="M283.659,419.21l-38.075,38.073c-1.172,1.171-1.172,3.07-0.001,4.242
					c0.586,0.586,1.354,0.879,2.122,0.879c0.768,0,1.536-0.293,2.121-0.879l38.075-38.073c1.172-1.171,1.172-3.07,0-4.242
					C286.73,418.039,284.83,418.037,283.659,419.21z"/>
			</g>
			<g style="opacity:0.34;">
				<path style="fill:#EFDFF4;" d="M321.731,419.21l-38.072,38.073c-1.171,1.171-1.171,3.071,0,4.242
					c0.585,0.586,1.354,0.879,2.121,0.879c0.768,0,1.536-0.293,2.122-0.879l38.072-38.073c1.171-1.171,1.171-3.071,0-4.242
					C324.803,418.038,322.903,418.038,321.731,419.21z"/>
			</g>
			<g style="opacity:0.93;">
				<path style="fill:#C3CED7;" d="M325.974,419.21c-1.171-1.172-3.071-1.172-4.243,0c-1.171,1.172-1.171,3.071,0,4.242
					l38.074,38.073c0.585,0.586,1.353,0.879,2.121,0.879c0.768,0,1.536-0.293,2.121-0.879c1.171-1.172,1.171-3.071,0-4.242
					L325.974,419.21z"/>
			</g>
			<g style="opacity:0.82;">
				<path style="fill:#D3DBE2;" d="M364.048,419.21c-1.171-1.172-3.071-1.172-4.243,0c-1.171,1.172-1.171,3.071,0.001,4.242
					l38.075,38.073c0.585,0.586,1.353,0.879,2.121,0.879c0.767,0,1.535-0.293,2.121-0.879c1.172-1.172,1.172-3.071,0-4.242
					L364.048,419.21z"/>
			</g>
			<g style="opacity:0.97;">
				<path style="fill:#FBF6FC;" d="M402.123,419.21c-1.171-1.171-3.071-1.173-4.242,0c-1.172,1.171-1.172,3.071,0,4.242
					l38.073,38.073c0.586,0.586,1.353,0.879,2.121,0.879s1.535-0.293,2.121-0.879c1.172-1.171,1.172-3.071,0-4.242L402.123,419.21z"
					/>
			</g>
			<g style="opacity:0.5;">
				<path style="fill:#869BAF;" d="M474.026,419.21l-38.073,38.073c-1.172,1.171-1.172,3.071,0,4.242
					c0.586,0.586,1.353,0.879,2.121,0.879s1.535-0.293,2.121-0.879l38.073-38.073c1.172-1.171,1.172-3.071,0-4.242
					C477.097,418.038,475.198,418.038,474.026,419.21z"/>
			</g>
			<g style="opacity:0.65;">
				<path style="fill:#E2E8EC;" d="M478.269,419.21c-1.172-1.172-3.07-1.172-4.242,0c-1.172,1.171-1.172,3.071,0,4.242
					l38.072,38.073c0.586,0.586,1.354,0.879,2.121,0.879c0.768,0,1.535-0.293,2.121-0.879c1.172-1.171,1.172-3.071,0-4.242
					L478.269,419.21z"/>
			</g>
			<g style="opacity:0.41;">
				<path style="fill:#EEDCF3;" d="M516.341,419.21c-1.172-1.172-3.07-1.172-4.242,0c-1.172,1.172-1.172,3.071,0,4.242
					l38.074,38.073c0.586,0.586,1.353,0.879,2.121,0.879c0.768,0,1.535-0.293,2.121-0.879c1.172-1.172,1.172-3.071,0-4.242
					L516.341,419.21z"/>
			</g>
			<g style="opacity:0.8;">
				<path style="fill:#EEDCF3;" d="M554.415,419.21c-1.172-1.172-3.07-1.172-4.242,0c-1.172,1.171-1.172,3.071,0,4.242
					l38.072,38.073c0.586,0.586,1.354,0.879,2.121,0.879c0.768,0,1.535-0.293,2.121-0.879c1.172-1.171,1.172-3.071,0-4.242
					L554.415,419.21z"/>
			</g>
			<g style="opacity:0.98;">
				<path style="fill:#B5C2CE;" d="M626.319,419.21l-38.074,38.073c-1.172,1.171-1.172,3.07,0,4.242
					c0.586,0.586,1.354,0.879,2.121,0.879c0.768,0,1.535-0.293,2.121-0.879l38.074-38.073c1.172-1.171,1.172-3.07,0-4.242
					C629.39,418.038,627.491,418.038,626.319,419.21z"/>
			</g>
			<g style="opacity:0.67;">
				<path style="fill:#C997FD;" d="M630.561,419.21c-1.172-1.172-3.07-1.172-4.242,0c-1.172,1.172-1.172,3.071,0,4.242
					l38.074,38.073c0.586,0.586,1.354,0.879,2.121,0.879c0.768,0,1.535-0.293,2.121-0.879c1.172-1.172,1.172-3.071,0-4.242
					L630.561,419.21z"/>
			</g>
			<g style="opacity:0.92;">
				<path style="fill:#DDE3E8;" d="M702.468,419.21l-38.074,38.073c-1.172,1.171-1.172,3.07,0,4.242
					c0.586,0.586,1.354,0.879,2.121,0.879c0.768,0,1.535-0.293,2.121-0.879l38.074-38.073c1.172-1.171,1.172-3.07,0-4.242
					C705.538,418.038,703.64,418.038,702.468,419.21z"/>
			</g>
			<g style="opacity:0.48;">
				<path style="fill:#E9D4FE;" d="M706.71,419.21c-1.172-1.172-3.07-1.172-4.242,0c-1.172,1.171-1.172,3.071,0,4.242l38.072,38.073
					c0.586,0.586,1.354,0.879,2.121,0.879c0.768,0,1.535-0.293,2.121-0.879c1.172-1.171,1.172-3.071,0-4.242L706.71,419.21z"/>
			</g>
			<g style="opacity:0.94;">
				<path style="fill:#BCC8D3;" d="M744.782,419.21c-1.172-1.172-3.07-1.172-4.242,0c-1.172,1.172-1.172,3.071,0,4.242
					l38.074,38.073c0.586,0.586,1.354,0.879,2.121,0.879c0.768,0,1.535-0.293,2.121-0.879c1.172-1.172,1.172-3.071,0-4.242
					L744.782,419.21z"/>
			</g>
			<g style="opacity:0.42;">
				<path style="fill:#8DA1B4;" d="M778.614,457.283c-1.172,1.171-1.172,3.071,0,4.242c0.586,0.586,1.354,0.879,2.121,0.879
					c0.768,0,1.535-0.293,2.121-0.879L800,444.381v-8.484L778.614,457.283z"/>
			</g>
			<g style="opacity:0.46;">
				<path style="fill:#DFC0FE;" d="M21.386,495.357L0,473.97v8.485L17.143,499.6c0.155,0.155,0.324,0.286,0.501,0.4h3.241
					c0.177-0.114,0.346-0.245,0.501-0.4C22.558,498.429,22.558,496.529,21.386,495.357z"/>
			</g>
			<g style="opacity:0.98;">
				<path style="fill:#BD80FD;" d="M59.46,495.357l-38.074-38.074c-1.171-1.172-3.071-1.172-4.242,0
					c-1.172,1.171-1.172,3.071,0,4.242L55.218,499.6c0.155,0.155,0.324,0.286,0.501,0.4h3.24c0.177-0.114,0.346-0.245,0.501-0.4
					C60.632,498.429,60.632,496.528,59.46,495.357z"/>
			</g>
			<g style="opacity:0.89;">
				<path style="fill:#BFCAD5;" d="M97.533,495.357L59.46,457.283c-1.171-1.172-3.071-1.172-4.243,0
					c-1.172,1.171-1.172,3.07,0,4.242L93.29,499.6c0.155,0.155,0.324,0.286,0.501,0.4h3.241c0.177-0.114,0.346-0.245,0.501-0.4
					C98.704,498.429,98.704,496.529,97.533,495.357z"/>
			</g>
			<g style="opacity:0.78;">
				<path style="fill:#BDC9D4;" d="M135.606,495.357l-38.074-38.074c-1.171-1.172-3.071-1.172-4.242,0
					c-1.172,1.171-1.172,3.071,0,4.242l38.074,38.074c0.155,0.155,0.324,0.286,0.501,0.4h3.24c0.177-0.114,0.346-0.245,0.501-0.4
					C136.778,498.429,136.778,496.528,135.606,495.357z"/>
			</g>
			<g style="opacity:0.79;">
				<path style="fill:#C7D1DA;" d="M173.679,461.525c1.171-1.172,1.171-3.071-0.001-4.242c-1.171-1.172-3.071-1.172-4.243,0
					l-38.072,38.074c-1.171,1.172-1.171,3.071,0.001,4.242c0.155,0.155,0.324,0.286,0.501,0.4h3.241
					c0.177-0.114,0.346-0.245,0.501-0.4L173.679,461.525z"/>
			</g>
			<g style="opacity:0.84;">
				<path style="fill:#D7B2FE;" d="M211.754,461.525c1.172-1.171,1.172-3.07,0.001-4.242s-3.071-1.172-4.243,0l-38.075,38.074
					c-1.172,1.171-1.172,3.07,0,4.242c0.155,0.155,0.324,0.286,0.501,0.4h3.241c0.177-0.114,0.346-0.245,0.501-0.4L211.754,461.525z
					"/>
			</g>
			<g style="opacity:0.53;">
				<path style="fill:#A8B7C5;" d="M249.827,495.357l-38.072-38.074c-1.171-1.172-3.071-1.172-4.243,0
					c-1.172,1.171-1.172,3.07,0,4.242l38.072,38.074c0.155,0.155,0.324,0.286,0.501,0.4h3.241c0.177-0.114,0.346-0.245,0.501-0.4
					C250.998,498.429,250.998,496.529,249.827,495.357z"/>
			</g>
			<g style="opacity:0.77;">
				<path style="fill:#EBD8F2;" d="M287.901,461.525c1.172-1.171,1.172-3.07,0-4.242c-1.172-1.172-3.072-1.172-4.243,0
					l-38.075,38.074c-1.172,1.171-1.172,3.07-0.001,4.242c0.155,0.155,0.324,0.286,0.501,0.4h3.241
					c0.177-0.114,0.346-0.245,0.501-0.4L287.901,461.525z"/>
			</g>
			<g style="opacity:0.62;">
				<path style="fill:#CAD4DC;" d="M325.974,461.525c1.171-1.172,1.171-3.071,0-4.242c-1.171-1.172-3.071-1.172-4.243,0
					l-38.072,38.074c-1.171,1.172-1.171,3.071,0,4.242c0.155,0.155,0.324,0.286,0.501,0.4h3.241c0.177-0.114,0.346-0.245,0.501-0.4
					L325.974,461.525z"/>
			</g>
			<g style="opacity:0.32;">
				<path style="fill:#CFD7DF;" d="M364.048,495.357l-38.074-38.074c-1.171-1.172-3.071-1.172-4.242,0
					c-1.172,1.171-1.172,3.071,0,4.242l38.074,38.074c0.155,0.155,0.324,0.286,0.501,0.4h3.24c0.177-0.114,0.346-0.245,0.501-0.4
					C365.22,498.429,365.22,496.528,364.048,495.357z"/>
			</g>
			<g style="opacity:0.51;">
				<path style="fill:#C288FD;" d="M402.123,495.357l-38.075-38.074c-1.171-1.172-3.071-1.172-4.243,0
					c-1.171,1.172-1.171,3.071,0.001,4.242l38.075,38.074c0.155,0.155,0.324,0.286,0.501,0.4h3.24
					c0.177-0.114,0.346-0.245,0.501-0.4C403.295,498.428,403.295,496.528,402.123,495.357z"/>
			</g>
			<g style="opacity:0.49;">
				<path style="fill:#C997FD;" d="M440.195,461.525c1.172-1.172,1.172-3.071,0-4.242c-1.172-1.172-3.07-1.172-4.242,0
					l-38.073,38.074c-1.171,1.172-1.171,3.071,0,4.242c0.155,0.155,0.324,0.286,0.501,0.4h3.24c0.177-0.114,0.346-0.245,0.501-0.4
					L440.195,461.525z"/>
			</g>
			<g style="opacity:0.45;">
				<path style="fill:#D0A4FE;" d="M478.269,495.357l-38.073-38.074c-1.172-1.172-3.07-1.172-4.242,0
					c-1.172,1.171-1.172,3.071,0,4.242l38.073,38.074c0.155,0.155,0.324,0.286,0.501,0.4h3.24c0.177-0.114,0.346-0.245,0.501-0.4
					C479.44,498.429,479.44,496.528,478.269,495.357z"/>
			</g>
			<g style="opacity:0.38;">
				<path style="fill:#EAD6F1;" d="M516.341,495.357l-38.072-38.074c-1.172-1.172-3.07-1.172-4.242,0
					c-1.172,1.171-1.172,3.07,0,4.242l38.072,38.074c0.155,0.155,0.324,0.286,0.501,0.4h3.24c0.177-0.114,0.346-0.245,0.501-0.4
					C517.513,498.429,517.513,496.529,516.341,495.357z"/>
			</g>
			<g style="opacity:0.64;">
				<path style="fill:#D3DBE2;" d="M554.415,461.525c1.172-1.171,1.172-3.071,0-4.242c-1.172-1.172-3.07-1.172-4.242,0
					l-38.074,38.074c-1.172,1.171-1.172,3.071,0,4.242c0.155,0.155,0.324,0.286,0.501,0.4h3.24c0.177-0.114,0.346-0.245,0.501-0.4
					L554.415,461.525z"/>
			</g>
			<g style="opacity:0.3;">
				<path style="fill:#F6EDF9;" d="M592.487,495.357l-38.072-38.074c-1.172-1.172-3.07-1.172-4.242,0
					c-1.172,1.171-1.172,3.07,0,4.242l38.072,38.074c0.155,0.155,0.324,0.286,0.501,0.4h3.24c0.177-0.114,0.346-0.245,0.501-0.4
					C593.659,498.429,593.659,496.529,592.487,495.357z"/>
			</g>
			<g style="opacity:0.86;">
				<path style="fill:#CDD6DE;" d="M630.561,461.525c1.172-1.171,1.172-3.071,0-4.242c-1.172-1.172-3.07-1.172-4.242,0
					l-38.074,38.074c-1.172,1.171-1.172,3.071,0,4.242c0.155,0.155,0.324,0.286,0.501,0.4h3.24c0.177-0.114,0.346-0.245,0.501-0.4
					L630.561,461.525z"/>
			</g>
			<g style="opacity:0.73;">
				<path style="fill:#C690FD;" d="M668.636,461.525c1.172-1.171,1.172-3.071,0-4.242c-1.172-1.172-3.07-1.172-4.242,0
					l-38.074,38.074c-1.172,1.171-1.172,3.071,0,4.242c0.155,0.155,0.324,0.286,0.501,0.4h3.24c0.177-0.114,0.346-0.245,0.501-0.4
					L668.636,461.525z"/>
			</g>
			<g style="opacity:0.79;">
				<path style="fill:#D0A4FE;" d="M706.71,461.525c1.172-1.171,1.172-3.071,0-4.242c-1.172-1.172-3.07-1.172-4.242,0
					l-38.074,38.074c-1.172,1.171-1.172,3.071,0,4.242c0.155,0.155,0.324,0.286,0.501,0.4h3.24c0.177-0.114,0.346-0.245,0.501-0.4
					L706.71,461.525z"/>
			</g>
			<g style="opacity:0.58;">
				<path style="fill:#FAF5FC;" d="M744.782,461.525c1.172-1.172,1.172-3.071,0-4.242c-1.172-1.172-3.07-1.172-4.242,0
					l-38.072,38.074c-1.172,1.172-1.172,3.071,0,4.242c0.155,0.155,0.324,0.286,0.501,0.4h3.24c0.177-0.114,0.346-0.245,0.501-0.4
					L744.782,461.525z"/>
			</g>
			<g style="opacity:0.34;">
				<path style="fill:#DFC2FE;" d="M782.856,495.357l-38.074-38.074c-1.172-1.172-3.07-1.172-4.242,0
					c-1.172,1.171-1.172,3.071,0,4.242l38.074,38.074c0.155,0.155,0.324,0.286,0.501,0.4h3.24c0.177-0.114,0.346-0.245,0.501-0.4
					C784.028,498.429,784.028,496.528,782.856,495.357z"/>
			</g>
			<g style="opacity:0.55;">
				<path style="fill:#EDDBF3;" d="M778.614,495.357c-1.172,1.172-1.172,3.071,0,4.242c0.155,0.155,0.324,0.286,0.501,0.4h3.24
					c0.177-0.114,0.346-0.245,0.501-0.4L800,482.455v-8.484L778.614,495.357z"/>
			</g>
			<g style="opacity:0.89;">
				<path style="fill:#CDD6DE;" d="M17.143,495.357c-1.171,1.172-1.171,3.071,0,4.242l0.4,0.4h8.485l-4.643-4.643
					C20.215,494.185,18.315,494.185,17.143,495.357z"/>
			</g>
			<g style="opacity:0.85;">
				<path style="fill:#AEBCC9;" d="M97.532,495.357c-1.171-1.172-3.071-1.172-4.243,0L88.647,500h8.485l0.4-0.4
					C98.704,498.429,98.704,496.528,97.532,495.357z"/>
			</g>
			<g style="opacity:0.7;">
				<path style="fill:#D6AFFE;" d="M93.29,495.357c-1.171,1.172-1.171,3.071,0,4.242l0.4,0.4h8.484l-4.643-4.643
					C96.361,494.185,94.461,494.185,93.29,495.357z"/>
			</g>
			<g style="opacity:0.72;">
				<path style="fill:#F1E2F5;" d="M173.679,495.357c-1.171-1.172-3.071-1.172-4.243,0L164.794,500h8.485l0.4-0.4
					C174.851,498.429,174.851,496.528,173.679,495.357z"/>
			</g>
			<g style="opacity:0.99;">
				<path style="fill:#D7B2FE;" d="M211.754,495.357c-1.171-1.171-3.071-1.173-4.243,0L202.869,500h8.485l0.4-0.4
					C212.926,498.429,212.926,496.529,211.754,495.357z"/>
			</g>
			<g style="opacity:0.54;">
				<path style="fill:#F8F0FA;" d="M207.512,495.357c-1.172,1.171-1.172,3.071,0,4.242l0.4,0.4h8.485l-4.643-4.643
					C210.583,494.186,208.683,494.185,207.512,495.357z"/>
			</g>
			<g style="opacity:0.73;">
				<path style="fill:#E4CBFE;" d="M245.583,495.357c-1.171,1.172-1.171,3.071,0.001,4.242l0.4,0.4h8.485l-4.643-4.643
					C248.655,494.185,246.755,494.185,245.583,495.357z"/>
			</g>
			<g style="opacity:0.47;">
				<path style="fill:#EDDCFE;" d="M325.974,495.357c-1.171-1.172-3.071-1.172-4.243,0L317.088,500h8.485l0.4-0.4
					C327.145,498.429,327.145,496.528,325.974,495.357z"/>
			</g>
			<g style="opacity:0.78;">
				<path style="fill:#F7EFFA;" d="M321.731,495.357c-1.171,1.172-1.171,3.071,0,4.242l0.4,0.4h8.485l-4.643-4.643
					C324.803,494.185,322.903,494.185,321.731,495.357z"/>
			</g>
			<g style="opacity:0.79;">
				<path style="fill:#EEDCF3;" d="M402.123,495.357c-1.171-1.171-3.071-1.173-4.242,0L393.238,500h8.485l0.4-0.4
					C403.295,498.429,403.295,496.529,402.123,495.357z"/>
			</g>
			<g style="opacity:0.33;">
				<path style="fill:#C0CBD5;" d="M397.881,495.357c-1.172,1.171-1.172,3.071,0,4.242l0.4,0.4h8.485l-4.643-4.643
					C400.952,494.186,399.052,494.185,397.881,495.357z"/>
			</g>
			<g style="opacity:0.37;">
				<path style="fill:#D4DCE3;" d="M435.953,495.357c-1.172,1.171-1.172,3.071,0,4.242l0.4,0.4h8.484l-4.643-4.643
					C439.023,494.185,437.125,494.185,435.953,495.357z"/>
			</g>
			<g style="opacity:0.65;">
				<path style="fill:#D0D8E0;" d="M474.026,495.357c-1.172,1.171-1.172,3.071,0,4.242l0.4,0.4h8.484l-4.643-4.643
					C477.097,494.185,475.198,494.185,474.026,495.357z"/>
			</g>
			<g style="opacity:0.75;">
				<path style="fill:#7D94A9;" d="M554.415,495.357c-1.172-1.172-3.07-1.172-4.242,0L545.53,500h8.484l0.4-0.4
					C555.587,498.429,555.587,496.529,554.415,495.357z"/>
			</g>
			<g style="opacity:0.63;">
				<path style="fill:#CDD6DE;" d="M592.487,495.357c-1.172-1.172-3.07-1.172-4.242,0L583.602,500h8.484l0.4-0.4
					C593.659,498.429,593.659,496.528,592.487,495.357z"/>
			</g>
			<g style="opacity:0.54;">
				<path style="fill:#F1E4FF;" d="M630.561,495.357c-1.172-1.172-3.07-1.172-4.242,0L621.677,500h8.484l0.4-0.4
					C631.733,498.429,631.733,496.529,630.561,495.357z"/>
			</g>
			<g style="opacity:0.73;">
				<path style="fill:#ECDBFE;" d="M626.319,495.357c-1.172,1.172-1.172,3.071,0,4.242l0.4,0.4h8.484l-4.643-4.643
					C629.39,494.185,627.491,494.185,626.319,495.357z"/>
			</g>
			<g style="opacity:0.33;">
				<path style="fill:#EAD4F1;" d="M664.394,495.357c-1.172,1.172-1.172,3.071,0,4.242l0.4,0.4h8.484l-4.643-4.643
					C667.464,494.185,665.565,494.185,664.394,495.357z"/>
			</g>
			<g style="opacity:0.96;">
				<path style="fill:#E1E6EB;" d="M744.782,495.357c-1.172-1.172-3.07-1.172-4.242,0L735.897,500h8.484l0.4-0.4
					C745.954,498.429,745.954,496.528,744.782,495.357z"/>
			</g>
			<g style="opacity:0.85;">
				<path style="fill:#F1E2F5;" d="M740.54,495.357c-1.172,1.172-1.172,3.071,0,4.242l0.4,0.4h8.484l-4.643-4.643
					C743.61,494.185,741.712,494.185,740.54,495.357z"/>
			</g>
		</g>
	</g>
</g>
<g id="Layer_1">
</g>
</svg>
