<?xml version="1.0" encoding="utf-8"?>
<!-- Generator: Adobe Illustrator 27.5.0, SVG Export Plug-In . SVG Version: 6.00 Build 0)  -->
<svg version="1.1" id="Layer_1" xmlns="http://www.w3.org/2000/svg" xmlns:xlink="http://www.w3.org/1999/xlink" x="0px" y="0px"
	 viewBox="0 0 1920 1080" style="enable-background:new 0 0 1920 1080;" xml:space="preserve">
<g>
	<defs>
		<rect id="SVGID_1_" width="1920" height="1080"/>
	</defs>
	<clipPath id="SVGID_00000032639366466273213130000013725088361640450207_">
		<use xlink:href="#SVGID_1_"  style="overflow:visible;"/>
	</clipPath>
	
		<rect style="clip-path:url(#SVGID_00000032639366466273213130000013725088361640450207_);fill-rule:evenodd;clip-rule:evenodd;fill:#FFFFFF;" width="1920" height="1080"/>
	<g style="clip-path:url(#SVGID_00000032639366466273213130000013725088361640450207_);">
		<path style="fill:#009BB6;" d="M27.969,240.663c15.899-4.029,28.154-9.025,35.758-21.19c10.069-16.109-2.95-22.567-19.866-22.183
			c-3.973,0.772-7.947,1.545-11.919,2.318c-12.163,3.62-20.859,8.018-26.488,18.21c-3.624,6.562-3.386,17.626,2.318,21.852
			C12.307,243.029,22.135,242.141,27.969,240.663z"/>
		<path style="fill:#009BB6;" d="M335.887,146.632c-0.221,0-0.441,0-0.662,0c-0.11,0.221-0.221,0.441-0.331,0.662
			c0.11,0.331,0.221,0.662,0.331,0.993c0.331,0,0.662,0,0.993,0C336.108,147.736,335.998,147.184,335.887,146.632z"/>
		<path style="fill:#009BB6;" d="M1804.953,283.043c-4.828,8.058-2.137,23.219-4.635,33.109c1.465,1.439,27.439,5.991,30.792,6.291
			c0.11,0,0.221,0,0.331,0c4.051-7.561,6.521-24.94,6.291-36.089C1830.798,283.133,1813.519,284.01,1804.953,283.043z"/>
		<path style="fill:#009BB6;" d="M1450.351-0.705c-22.181,0-44.369,0-66.55,0c-0.11,0.11-0.221,0.221-0.331,0.331
			c0,0.11,0,0.221,0,0.331c7.301,6.311,51.201,14.179,65.888,14.237C1449.688,9.229,1450.02,4.261,1450.351-0.705z"/>
		<path style="fill:#009BB6;" d="M1605.303,126.104c26.026-0.001,51.711-0.46,75.49-1.987c-0.221-28.251-0.442-56.51-0.662-84.76
			c-7.54-3.468-39.266-1.414-50.657-1.324c-18.539,0.662-37.084,1.324-55.624,1.987c-0.662,8.828-1.324,17.659-1.987,26.488
			c-2.779,18.09-3.017,38.687-2.98,58.604C1579.274,127.826,1593.604,126.104,1605.303,126.104z"/>
		<path style="fill:#009BB6;" d="M328.603,126.435c2.005,4.987,4.143,9.491,3.973,16.886
			C334.841,138.269,331.577,128.758,328.603,126.435z"/>
		<path style="fill:#009BB6;" d="M326.948,129.415c1.348,2.132,2.704,4.086,2.98,7.284c0.221,0.11,0.441,0.221,0.662,0.331
			C330.438,133.777,329.157,130.629,326.948,129.415z"/>
		<path style="fill:#009BB6;" d="M345.489,149.943c0.331,0,0.662,0,0.993,0c-0.529-6.099-2.581-16.177-5.629-20.528
			c1.324,6.732,2.649,13.465,3.973,20.197C345.047,149.722,345.268,149.833,345.489,149.943z"/>
		<path style="fill:#009BB6;" d="M295.163,26.114c-0.221-2.207-0.441-4.415-0.662-6.622c-0.441,0.11-0.883,0.221-1.324,0.331
			c0.441,1.766,0.883,3.532,1.324,5.297c-0.11,0.331-0.221,0.662-0.331,0.993c-0.11,0-0.221,0-0.331,0
			c-0.979-1.031-1.502-2.439-1.655-4.304c-0.221-0.11-0.441-0.221-0.662-0.331c0.331,1.545,0.662,3.09,0.993,4.635
			C293.53,27.36,293.661,26.866,295.163,26.114z"/>
		<path style="fill:#009BB6;" d="M1233.153,1057.473c-8.322,3.193-26.194,2.611-23.177,16.224c0.772,2.097,1.545,4.194,2.318,6.291
			c13.022,0,26.047,0,39.069,0C1254.466,1064.08,1251.067,1057.088,1233.153,1057.473z"/>
		<path style="fill:#009BB6;" d="M602.749,1016.417c-1.876-8.608-3.753-17.218-5.629-25.825c-4.851-2.191-22.812,0.983-28.474,1.987
			c-23.395,2.648-46.797,5.298-70.192,7.946c-2.131,5.049,1.539,17.658,2.649,23.508c2.317,18.65,4.636,37.305,6.953,55.955
			c7.283,0,14.569,0,21.852,0c6.958-3.958,20.503-3.776,29.799-5.96c16.222-3.642,32.449-7.285,48.671-10.926
			c1.812-4.281-1.721-14.595-2.649-19.866C604.736,1034.297,603.742,1025.355,602.749,1016.417z M560.038,1048.864
			c-10.704,1.987-21.412,3.973-32.116,5.96c-2.202-4.8-1.666-26.417-0.662-31.785c8.386-4.655,27.601-4.78,38.407-6.622
			c3.311-0.331,6.622-0.662,9.933-0.993c2.077,1.057,6.321,24.526,6.291,29.136C576.087,1047.657,567.07,1047.352,560.038,1048.864z
			"/>
		<path style="fill:#009BB6;" d="M290.196,4.924c0,0.331,0,0.662,0,0.993c0.11,0,0.221,0,0.331,0
			C290.417,5.586,290.307,5.255,290.196,4.924z"/>
		<path style="fill:#009BB6;" d="M293.176,18.167c0.11,0,0.221,0,0.331,0c0-0.552,0-1.104,0-1.655
			C293.397,17.064,293.286,17.616,293.176,18.167z"/>
		<path style="fill:#009BB6;" d="M1160.974,85.711c1.058,2.225,17.875,3.854,21.852,4.635c16.52,3.245,44.912,8.81,64.232,5.96
			c5.79-0.854,13.606,0.669,18.21-1.656c4.017-2.58,4.399-14.222,5.629-19.535c5.344-23.081,2.604-52.4-0.662-75.821
			c-34.872,0-69.754,0-104.626,0c-1.496,23.657-10.729,49.529-5.96,76.483C1160.091,79.089,1160.533,82.4,1160.974,85.711z
			 M1202.03,6.248c6.962,0.213,25.949,1.647,29.467,4.966c10.348,9.762,8.009,49.419-4.304,54.962
			c-5.268,2.371-15.474,0.228-19.866-0.993c-6.102-1.697-12.811-3.617-15.893-8.277C1183.218,44.48,1195.588,12.985,1202.03,6.248z"
			/>
		<path style="fill:#009BB6;" d="M871.598,15.519c9.049-5.076,18.101-10.154,27.15-15.23c0.11-0.221,0.221-0.441,0.331-0.662
			c-16.443-0.11-32.89-0.221-49.333-0.331c3.421,7.614,6.843,15.231,10.264,22.846C864.911,21.594,868.067,17.676,871.598,15.519z"
			/>
		<path style="fill:#009BB6;" d="M343.171,150.274c-1.058-3.004-2.113-7.453-4.304-10.264c0.179,4.736,3.434,6.993,3.311,10.926
			C342.509,150.716,342.84,150.495,343.171,150.274z"/>
		<path style="fill:#009BB6;" d="M1406.977,952.185c-14.346,14.898-28.696,29.8-43.042,44.698
			c-5.346,5.346-14.483,11.36-17.879,18.21c1.986,8.387,3.973,16.776,5.96,25.163c0.221,0.221,0.441,0.441,0.662,0.662
			c5.849-0.331,11.699-0.662,17.548-0.993c15.891-1.324,31.787-2.649,47.678-3.973c0.331-0.11,0.662-0.221,0.993-0.331
			c-3.642-27.809-7.284-55.627-10.926-83.436C1407.64,952.185,1407.308,952.185,1406.977,952.185z"/>
		<path style="fill:#009BB6;" d="M1744.694,652.213c6.558-28.054,9.774-58.436,16.224-87.74c2.097-11.808,4.194-23.619,6.291-35.427
			c2.006-9.136,4.28-19.741,4.304-30.13c-0.11-0.221-0.221-0.441-0.331-0.662c-10.619-2.426-21.605-4.576-33.109-5.96
			c-0.221,0.11-0.442,0.221-0.662,0.331c-4.277,22.509-1.833,46.61-5.629,70.192c-3.09,28.251-6.181,56.51-9.271,84.76
			c0,0.11,0,0.221,0,0.331c6.842,1.435,13.686,2.87,20.528,4.304C1743.59,652.213,1744.142,652.213,1744.694,652.213z"/>
		<path style="fill:#009BB6;" d="M51.146,1042.573c1.959-4.996-3.233-29.946-3.311-38.738c-0.772-0.11-1.545-0.221-2.318-0.331
			c-3.973,0.883-7.947,1.766-11.919,2.649c-3.973,1.435-7.947,2.87-11.919,4.304c-4.396,7.999,0.377,23.964,0.662,33.109
			C27.021,1045.625,43.599,1042.612,51.146,1042.573z"/>
		<path style="fill:#009BB6;" d="M340.191,150.605c0.331,0.221,0.662,0.441,0.993,0.662c0.11,0,0.221,0,0.331,0
			c-0.343-1.798-1.041-3.419-2.318-4.304C339.529,148.177,339.86,149.391,340.191,150.605z"/>
		<path style="fill:#009BB6;" d="M507.063,49.621c0.441,17.988,0.883,35.981,1.324,53.968c20.747-4.856,41.499-9.713,62.246-14.568
			c3.077-6.783-7.962-41.393-9.271-49.995c-3.281-1.387-10.551,0.719-14.568,1.655c-13.022,2.759-26.047,5.519-39.069,8.277
			C507.504,49.18,507.284,49.401,507.063,49.621z"/>
		<path style="fill:#009BB6;" d="M344.165,612.813c-0.817-3.805-0.048-11.876-3.311-13.244c-5.518,0.883-11.037,1.766-16.555,2.649
			c-10.042,1.435-20.087,2.87-30.13,4.304c-0.221,0.331-0.441,0.662-0.662,0.993c1.104,16.222,2.207,32.449,3.311,48.671
			c16.995,1.104,33.994,2.207,50.989,3.311C349.552,646.236,346.712,624.679,344.165,612.813z"/>
		<path style="fill:#009BB6;" d="M1287.783,751.541c-0.11,0.331-0.221,0.662-0.331,0.993c0.11,0,0.221,0,0.331,0
			C1288.11,751.596,1288.322,752.376,1287.783,751.541z"/>
		<path style="fill:#009BB6;" d="M520.638,797.232c-22.181,1.655-44.369,3.311-66.55,4.966c-2.827,5.932-1.483,15.24-2.649,22.514
			c-2.805,17.508-2.982,36.523-2.649,55.624c4.477,2.017,12.267-0.182,17.879,0.662c18.319,0.221,36.643,0.441,54.962,0.662
			c0.221-0.331,0.441-0.662,0.662-0.993c0.662-5.076,1.324-10.154,1.987-15.23c3.471-20.43,2.703-46.729,0.662-67.874
			C523.507,797.453,522.072,797.343,520.638,797.232z"/>
		<path style="fill:#009BB6;" d="M962.649,702.208c-8.939,0.662-17.88,1.324-26.819,1.987c-1.87,3.853-5.933,38.983-4.635,44.036
			c12.139-1.545,24.281-3.09,36.42-4.635c2.736-6.085-0.606-33.407-1.324-41.056C965.077,702.429,963.863,702.319,962.649,702.208z"
			/>
		<path style="fill:#009BB6;" d="M798.757,531.364c-3.311,0.441-6.622,0.883-9.933,1.324c-10.29,2.736-20.363,8.678-24.17,17.879
			c-2.578,6.232-1.698,16.01,0.331,21.852c7.719,22.219,35.139,39.529,64.232,26.819c15.829-6.915,25.292-27.277,14.237-46.022
			C835.653,539.987,819.917,531.069,798.757,531.364z"/>
		<path style="fill:#009BB6;" d="M754.39,120.145c4.646,0.987,9.209-1.622,11.919-2.98c6.209-3.111,11.263-6.992,13.906-13.575
			c6.118-15.238-5.68-30.237-19.203-30.13c-10.442,3.941-17.554,5.185-22.845,13.906
			C730.343,100.261,743.837,117.902,754.39,120.145z"/>
		<path style="fill:#009BB6;" d="M267.682,495.274c-1.882-3.349-1.609-8.718-2.649-12.913c-1.655-7.504-3.311-15.01-4.966-22.514
			c-4.139-0.977-15.268,1.932-18.872,3.973c-2.263,1.77-0.301,10.505,0.331,13.575c2.759,14.346,5.518,28.696,8.277,43.042
			c23.57,1.359,59.189-9.121,76.152-16.886c1.896-12.255-7.307-44.281-11.588-53.306c-0.684-0.692-0.859-0.625-2.318-0.662
			c-6.952,1.655-13.907,3.311-20.859,4.966c-2.546,10.395,5.784,22.793,2.98,33.44C285.341,490.418,276.51,492.847,267.682,495.274z
			"/>
		<path style="fill:#009BB6;" d="M315.028,1028.005c0.11,0,0.221,0,0.331,0c-0.441-0.883-0.883-1.766-1.324-2.649
			c0.221,0.662,0.441,1.324,0.662,1.987C314.808,1027.564,314.918,1027.784,315.028,1028.005z"/>
		<path style="fill:#009BB6;" d="M388.531,327.741c26.936,5.769,39.696-45.592,4.304-45.029
			c-9.008,3.415-14.923,5.073-18.872,13.244C367.081,310.193,377.53,325.384,388.531,327.741z"/>
		<path style="fill:#009BB6;" d="M425.283,261.853c24.312,4.556,28.06-39.33,3.311-38.738c-5.102,2.113-8.854,2.999-11.919,6.953
			C408.11,241.112,411.096,259.195,425.283,261.853z"/>
		<path style="fill:#009BB6;" d="M572.289,428.724c16.776,13.412,33.247,21.098,59.597,25.825
			c5.199,0.933,13.409,2.047,19.866,0.993c3.752-0.772,7.505-1.545,11.257-2.318c3.821-6.306,3.428-48.957,3.311-60.59
			c-12.265-6.258-42.402-6.518-61.252-6.291c-4.083,0.331-8.167,0.662-12.25,0.993c-12.686,2.155-30.667,3.794-36.42,12.913
			C550.843,409.052,567.842,425.17,572.289,428.724z"/>
		<path style="fill:#009BB6;" d="M1924.147,164.842c0-13.684,0-27.372,0-41.056c-4.194,0.662-8.388,1.324-12.582,1.987
			c-0.11-0.11-0.221-0.221-0.331-0.331c0.221-42.045,0.442-84.102,0.662-126.147c-65.109,0.11-130.237,0.221-195.346,0.331
			c4.193,0.883,8.388,1.766,12.582,2.649c2.537,4.416-0.239,38.139-1.324,45.029c-1.855,11.776,0.332,24.972-1.656,37.745
			c-0.441,18.098-0.883,36.201-1.324,54.299c0,13.463,0,26.93,0,40.393c-1.255,1.596-21.469,0.663-26.156,0.662
			c-23.735-0.002-51.758-1.219-73.503,2.318c-28.771,4.68-56.736,5.04-84.098,10.264c-5.933,1.133-26.802,3.841-31.123,0.662
			c-7.901-5.812-10.337-36.908-7.946-51.651c1.324-16.553,2.649-33.111,3.973-49.664c4.578-28.065,5.107-62.201,4.966-93.038
			c-12.249,0-24.502,0-36.751,0c1.435,10.153,2.87,20.308,4.304,30.461c-9.257,3.057-23.181,0.119-34.765,1.987
			c-8.306,1.339-20.591,1.658-29.136,0.331c-17.416-2.704-34.32,0.79-49.664-3.311c-6.33-2.997-7.821-20.115-7.615-29.467
			c-13.684,0-27.372,0-41.056,0c-3.311,43.81-6.622,87.634-9.933,131.444c-3.862,0.772-7.726,1.545-11.588,2.318
			c-14.15,3.136-29.567,3.474-45.029,6.291c-49.04,8.935-109.956,7.053-162.898,3.642c-1.179-4.482-0.013-11.075,0.662-15.23
			c0.883-11.035,1.766-22.074,2.649-33.109c3.311-31.782,6.622-63.573,9.933-95.355c-12.249,0-24.502,0-36.751,0
			c0,0.11,0,0.221,0,0.331c0.772,2.98,1.545,5.96,2.318,8.94c0,0.11,0,0.221,0,0.331c-25.161,3.642-50.329,7.284-75.49,10.926
			c-2.869-6.842-5.739-13.686-8.608-20.528c-11.366,0-22.736,0-34.103,0c1.766,5.407,3.532,10.816,5.297,16.224
			c-2.944,3.974-20.516,8.294-26.156,10.595c-18.903,7.711-37.305,15.845-55.293,24.501c-6.274,3.019-17.887,11.798-24.832,12.25
			c-9.822-21.188-19.646-42.382-29.467-63.57c-16.663,0-33.332,0-49.995,0c-24.471,7.738-50.308,13.84-75.158,21.521
			c-12.911,3.862-25.827,7.726-38.738,11.588c-0.221-11.035-0.441-22.074-0.662-33.109c-20.857,0-41.72,0-62.577,0
			c4.483,11.531,5.334,24.992,8.277,37.745c5.839,25.298,9.971,51.657,17.548,75.49c-0.221,0.331-0.441,0.662-0.662,0.993
			c-42.265,10.484-84.544,20.97-126.809,31.454c-4.725-8.442-5.193-25.312-7.615-35.758c-4.745-23.285-9.492-46.576-14.237-69.861
			c-1.324-8.277-2.649-16.556-3.973-24.832c2.635-4.063,14.09-3.796,19.535-4.966c14.027-3.016,33.677-9.578,48.34-9.602
			c0.11-0.221,0.221-0.441,0.331-0.662c-79.234,0-158.492,0-237.726,0c0.25,2.637,0.385,7.778,2.649,8.608
			c-0.552-2.097-1.104-4.194-1.656-6.291c0-0.331,0-0.662,0-0.993c1.648,1.231,3.392,4.874,2.649,7.284
			c-0.684,1.134-0.963,1.183-2.649,1.324c-0.544,2.051,1.65,3.354,2.318,5.297c-2.017,4.033,0.279,6.946,0.331,11.588
			c-3.421,2.317-6.843,4.636-10.264,6.953c-11.371,8.577-22.159,19.203-26.819,34.434c-8.037,26.268,7.169,72.434,35.427,67.543
			c12.34-2.136,23.135-5.518,33.772-9.933c3.642-1.876,7.284-3.753,10.926-5.629c-0.262,2.361,6.967,25.471,8.608,29.798
			c-1.847,2.225-5.304,2.923-8.277,3.973c-1.932-1.895-2.594-10.314-2.649-13.575c0.772-0.441,1.545-0.883,2.318-1.324
			c0.772,1.214,1.545,2.428,2.318,3.642c0.11,0.221,0.221,0.441,0.331,0.662c0.11,0,0.221,0,0.331,0
			c-1.927-6.497-4.172-14.297-3.973-21.19c-0.11,0-0.221,0-0.331,0c-1.242,1.405-0.876,2.945-0.662,5.297
			c-1.274-0.517-1.126-0.442-1.655-1.655c-0.221-0.221-0.441-0.441-0.662-0.662c0.913-0.703,0.065-0.199,1.324-0.331
			c0-0.11,0-0.221,0-0.331c-0.331-0.331-0.662-0.662-0.993-0.993c-2.381,3.564,3.189,10.497,2.649,14.899c-0.11,0-0.221,0-0.331,0
			s-0.221,0-0.331,0c-1.324-4.304-2.649-8.609-3.973-12.913c-0.552,0-1.104,0-1.655,0c-0.449,3.584,3.755,7.612,4.304,11.588
			c-0.331,1.214-0.662,2.428-0.993,3.642c0.538,3.778,2.45,7.926,2.649,13.244c-4.43,3.469-11.896,4.16-17.879,5.96
			c-13.857,4.169-28.743,6.731-43.704,10.595c-7.283,1.545-14.569,3.09-21.852,4.635c-2.809-1.93-2.898-9.632-3.973-13.244
			c-2.98-11.366-5.96-22.736-8.94-34.103c-4.193-15.118-8.388-30.241-12.582-45.36c-1.381-4.397-5.65-11.719-4.304-17.548
			c1.87-8.098,9.587-15.066,14.237-20.859c13.832-17.232,31.421-29.504,48.671-43.373c0.221-0.11,0.441-0.221,0.662-0.331
			c-24.94-0.11-49.887-0.221-74.827-0.331c-0.993,1.986-1.987,3.973-2.98,5.96c-0.597,0.668,0.008,0.245-0.993,0.662
			c-1.593-1.347-3.195-4.241-3.642-6.622c-12.911,0-25.827,0-38.738,0c4.083,8.939,8.167,17.88,12.25,26.819
			c6.502,15.58,11.378,31.294,16.886,48.009c2.101,6.377,5.368,13.85,5.629,21.521c-4.745,0.993-9.492,1.987-14.237,2.98
			c-13.132,2.428-26.268,4.856-39.4,7.284c-6.621,1.104-13.244,2.207-19.866,3.311c-1.171-1.388,2.23-23.822,2.98-27.812
			c3.531-27.368,7.064-54.744,10.595-82.111c-10.704,0-21.412,0-32.116,0c-2.759,38.513-5.519,77.039-8.277,115.552
			c-10.153,1.876-20.308,3.753-30.461,5.629c-0.11,0-0.221,0-0.331,0c2.538-40.39,5.077-80.791,7.615-121.181
			c-12.249,0-24.502,0-36.751,0c-0.221,9.932-0.441,19.867-0.662,29.799c-1.655,32.554-3.311,65.119-4.966,97.673
			c-0.11,0.221-0.221,0.441-0.331,0.662c-7.063,1.103-14.127,2.207-21.19,3.311c-2.436-5.437-0.662-30.256-0.662-38.407
			c0.441-31.009,0.883-62.028,1.324-93.038c-6.4,0-12.803,0-19.203,0c3.109,14.825,0.662,37.548,0.662,53.968
			c-0.221,37.631-0.441,75.273-0.662,112.903c6.621-0.993,13.245-1.987,19.866-2.98c33.001-7.683,94.361-16.363,111.91,10.926
			c13.724,21.341,1.782,59.31-5.96,77.476c-18.577,43.591-48.512,87.816-100.322,97.673c-9.287,1.767-18.11-1.365-25.494-1.987
			c0,106.822,0,213.677,0,320.499c21.385,1.521,39.089,10.998,57.61,16.886c5.187,1.545,10.375,3.09,15.561,4.635
			c0.221,0.331,0.441,0.662,0.662,0.993c-6.555,6.491-19.359,9.617-27.812,13.906c-3.2,1.545-6.401,3.09-9.602,4.635
			c-12.139-3.531-24.281-7.064-36.42-10.595c0,31.672,0,63.353,0,95.024c0.672,2.195,1.861,3.935,1.987,7.284
			c-0.662,0.221-1.324,0.441-1.987,0.662c0,63.784,0,127.588,0,191.372c13.919-8.281,35.3-12.077,55.955-13.575
			c3.431,6.561,2.307,17.419,3.973,25.163c1.766,11.035,3.532,22.074,5.297,33.109c1.639,7.852,3.731,16.292,3.642,25.494
			c-6.774,3.8-17.817,2.177-26.819,3.642c-6.842,0.883-13.686,1.766-20.528,2.649c-7.173,1.545-14.348,3.09-21.521,4.635
			c0,2.097,0,4.194,0,6.291c103.07,0,206.172,0,309.242,0c-0.125-1.909,22.8-15.756,26.487-18.21
			c0.331,0.11,0.662,0.221,0.993,0.331c0.993,5.959,1.987,11.92,2.98,17.879c13.463,0,26.93,0,40.393,0
			c0.662-19.533,1.324-39.071,1.987-58.604c3.86-2.132,10.522-1.118,15.561-1.987c8.497-1.545,16.997-3.09,25.494-4.635
			c4.414-0.772,8.83-1.545,13.244-2.318c0.331,0.11,0.662,0.221,0.993,0.331c1.104,9.822,2.207,19.646,3.311,29.467
			c1.967,11.707,3.719,24.918,3.642,37.745c13.794,0,27.593,0,41.387,0c-0.883-8.166-1.766-16.335-2.649-24.501
			c-0.993-9.822-1.987-19.646-2.98-29.467c-2.317-16.443-4.636-32.89-6.953-49.333c0.331-0.221,0.662-0.441,0.993-0.662
			c10.594-1.545,21.191-3.09,31.785-4.635c24.421-4.711,49.487-6.887,75.158-11.588c8.113-1.486,36.253-5.478,44.036-3.311
			c5.569,25.495,8.83,50.548,14.568,76.814c3.124,14.299,7.852,30.793,7.615,46.684c57.053,0,114.123,0,171.176,0
			c-0.11-0.772-0.221-1.545-0.331-2.318c4.226-2.765,10.569-2.894,16.224-4.304c10.824-2.7,45.813-9.5,58.935-3.973
			c2.002,1.38,1.473,7.223,1.324,10.595c13.463,0,26.93,0,40.393,0c0.11-10.594,0.221-21.191,0.331-31.785
			c8.828-0.11,17.659-0.221,26.488-0.331c6.18-0.442,12.361-0.883,18.541-1.324c0.772,11.146,1.545,22.295,2.318,33.441
			c36.748,0,73.507,0,110.254,0c-17.656-1.766-35.319-3.532-52.975-5.297c-2.116-1.656-1.84-19.475-1.987-24.17
			c-0.993-23.064-1.987-46.135-2.98-69.199c2.365-2.046,21.555-0.331,26.156-0.331c25.05,0.11,50.108,0.221,75.158,0.331
			c0.221,0.221,0.442,0.441,0.662,0.662c-2.207,32.665-4.415,65.339-6.622,98.004c14.567,0,29.138,0,43.705,0
			c-0.515-7.024-2.587-15.578-0.662-22.846c6.03-22.768,33.673-33.171,55.955-40.062c11.664-3.608,31.219-8.435,44.367-2.649
			c18.503,8.143,24.361,38.872,23.839,65.557c13.353,0,26.71,0,40.063,0c-8.387-26.154-16.776-52.316-25.163-78.469
			c19.814-19.413,41.445-37.942,58.935-59.597c6.732-7.063,13.465-14.127,20.197-21.19c16.332-19.312,32.67-38.63,49.002-57.942
			c1.104,20.084,2.207,40.175,3.311,60.259c1.324,14.677,2.649,29.359,3.973,44.036c6.229,35.904,8.851,73.739,15.562,107.275
			c-2.661,2.743-33.326,4.717-40.063,4.635c0,0.11,0,0.221,0,0.331c4.592,2.655,30.157,0.662,38.407,0.662
			c33.217,0,66.443,0,99.659,0c122.272,0,244.581,0,366.853,0c0-2.98,0-5.96,0-8.94c-6.29,1.435-12.582,2.87-18.872,4.304
			c-0.331-4.414-0.662-8.83-0.993-13.244c-3.213-21.074-1.344-51.449,6.622-64.563c2.336-3.846,7.736-12.162,13.244-11.257
			c0-37.52,0-75.052,0-112.572c-1.214,3.569-5-13.003-5.298-13.906c-3.862-12.58-7.726-25.164-11.588-37.745c0-0.11,0-0.221,0-0.331
			c5.628-2.428,11.258-4.856,16.886-7.284c0-39.727,0-79.467,0-119.194c-0.221-0.11-0.442-0.221-0.662-0.331
			c-7.657,3.239-26.964,10.742-29.798,17.879c-2.674,6.731,1.031,17.15,2.318,23.177c4.207,19.711,7.923,37.957,13.906,55.624
			c-4.119,4.714-15.884,7.071-21.852,9.602c-0.552,0-1.104,0-1.656,0c-11.394-22.62-20.674-46.101-29.467-71.185
			c-3.605-10.284-7.949-22.068-9.602-33.772c2.977-4.976,12.163-7.924,17.217-10.926c15.346-9.116,36.291-19.528,59.597-19.866
			c0-106.05,0-212.132,0-318.182c-4.931-0.14-11.554-1.543-15.23-3.642c-5.993-4.629-7.297-40.884-7.284-53.637
			c0.03-29.62,4.985-56.857,11.257-81.449c2.639-10.348,9.488-31.94,8.609-42.38
			C1922.451,165.069,1922.043,164.981,1924.147,164.842z M290.527,103.921c-2.041-3.157-6.73-22.871-5.629-27.15
			c2.834-5.99,11.125-8.389,16.224-12.25c3.503,1.151,11.727,28.041,11.919,34.103C307.717,102.053,298.313,103.396,290.527,103.921
			z M1766.877,59.223c0.221-18.65,0.442-37.305,0.662-55.955c17.325-0.221,34.656-0.441,51.982-0.662
			c21.224,0.021,42.473-0.414,62.246,1.324c1.793,6.889,0.694,18.619-0.331,25.494c-0.11,7.283-0.221,14.569-0.331,21.852
			c0.11,8.277,0.221,16.556,0.331,24.832c0,9.711,0,19.425,0,29.136c0.552,13.242,1.104,26.489,1.655,39.731
			c-13.905,0-27.813,0-41.718,0c-6.29-0.11-12.582-0.221-18.872-0.331c-15.45-0.883-30.904-1.766-46.353-2.649
			c-4.855-0.441-9.713-0.883-14.568-1.324C1763.345,113.525,1765.111,86.37,1766.877,59.223z M1703.638,458.523
			c0.552-0.331,1.104-0.662,1.656-0.993c8.166,0.331,16.335,0.662,24.501,0.993c20.62,3.201,42.569,2.522,62.246,6.291
			c6.4,0.772,12.803,1.545,19.203,2.318c0.331,0.331,0.662,0.662,0.993,0.993c-15.66,41.025-22.022,87.353-30.461,135.086
			c-3.632,20.545-3.708,41.898-7.615,61.584c-1.104,6.952-2.207,13.907-3.311,20.859c-0.221,0.221-0.442,0.441-0.662,0.662
			c-30.126-0.883-60.262-1.766-90.389-2.649c-0.221,0-0.441,0-0.662,0c3.752-21.74,7.505-43.486,11.257-65.226
			c1.876-15.781,3.753-31.566,5.629-47.346C1702.168,536.29,1703.976,498.239,1703.638,458.523z M1763.566,430.38
			c-0.511-4.961,4.463-34.146,6.622-38.738c23.836,0.441,47.68,0.883,71.516,1.324c0.331,0.11,0.662,0.221,0.993,0.331
			c-7.725,15.118-15.452,30.241-23.177,45.36C1800.871,435.898,1782.216,433.139,1763.566,430.38z M1834.751,341.978
			c-20.084-0.552-40.175-1.104-60.259-1.655c-2.409-1.931-0.274-14.013,0.331-17.879c1.214-21.96,2.428-43.927,3.642-65.888
			c6.511,1.104,13.024,2.207,19.535,3.311c12.911,1.324,25.827,2.649,38.738,3.973c10.042,0.883,20.087,1.766,30.13,2.649
			c2.095,4.787-2.118,15.667-3.311,20.859c-3.708,16.131-7.253,36.798-7.615,54.299
			C1851.664,343.901,1840.829,341.991,1834.751,341.978z M1858.59,229.737c-3.488,1.814-12.407-0.07-17.548-0.993
			c-9.822-1.435-19.646-2.87-29.467-4.304c-5.813-1.048-12.976-0.202-17.548-2.649c1.766-10.484,3.532-20.97,5.297-31.454
			c0.331-3.642,0.662-7.284,0.993-10.926c2.759-1.876,5.519-3.753,8.277-5.629c11.667,0.068,22.172,2.007,32.447,3.973
			c9.38,1.545,18.763,3.09,28.143,4.635c0.11,0.331,0.221,0.662,0.331,0.993C1864.238,196.798,1860.319,214.345,1858.59,229.737z
			 M1589.079,224.108c38.513,1.364,79.722,1.857,115.552,7.615c14.567,0.993,29.138,1.987,43.704,2.98
			c-2.207,22.291-4.415,44.59-6.622,66.881c-1.51,1.738-5.829-0.917-7.946-1.987c-8.14-4.112-16.81-7.036-25.825-10.595
			c-24.912-9.836-53.644-16.229-81.118-23.177c-12.801-2.207-25.606-4.415-38.407-6.622c-0.221-0.221-0.441-0.441-0.662-0.662
			C1587.278,257.13,1588.02,226.029,1589.079,224.108z M1562.26,302.246c4.194-0.772,8.388-1.545,12.582-2.318
			c57.219-0.134,103.999,20.754,128.796,52.644c13.038,16.768,23.179,43.344,6.291,64.563
			c-13.195,16.579-47.306,22.145-74.165,14.237c-38.503-11.336-68.51-38.5-87.74-69.199c-10.922-17.437-4.059-29.252,4.967-45.029
			C1555.483,312.788,1557.933,304.619,1562.26,302.246z M1529.482,524.742c13.905,0.441,27.813,0.883,41.718,1.324
			c18.981,1.435,37.967,2.87,56.948,4.304c1.214-8.166,2.428-16.335,3.642-24.501c-14.456-2.317-28.917-4.636-43.373-6.953
			c-3.973-0.441-7.947-0.883-11.919-1.324c-0.331-0.221-0.662-0.441-0.993-0.662c1.986-9.711,3.973-19.425,5.96-29.136
			c29.464,3.09,58.938,6.181,88.402,9.271c-2.317,12.36-4.636,24.723-6.953,37.083c-2.097,16.222-4.194,32.449-6.291,48.671
			c-17.546-1.214-35.098-2.428-52.644-3.642c-13.573-0.662-27.151-1.324-40.725-1.987c-25.381-2.207-50.77-4.415-76.152-6.622
			c0-8.497,0-16.997,0-25.494C1491.773,522.959,1522.887,523.717,1529.482,524.742z M1492.4,348.6
			c4.304-1.876,8.609-3.753,12.913-5.629c4.421,0.421,11.527,19.521,13.575,24.17c11.698,25.381,23.398,50.77,35.096,76.152
			c-18.429,10.484-36.864,20.97-55.293,31.454c-0.221-0.11-0.441-0.221-0.662-0.331C1496.152,432.481,1494.276,390.534,1492.4,348.6
			z M1487.433,200.932c1.104,9.932,2.207,19.867,3.311,29.798c4.612,2.106,11.904,0.096,17.879,0.993
			c15.449,0.331,30.904,0.662,46.353,0.993c0.221,0.331,0.441,0.662,0.662,0.993c-33.658,32.223-67.326,64.456-100.984,96.68
			c-0.11,0-0.221,0-0.331,0c-3.531-32.665-7.064-65.339-10.595-98.004c-0.772-7.581-5.603-29.904-3.311-35.427
			C1456.088,198.283,1471.763,199.607,1487.433,200.932z M1284.472,400.581c-4.716,0.913-31.421,2.942-35.427,1.324
			c-3.434-2.427-3.805-33.54-4.966-40.725c-1.766-18.539-3.532-37.084-5.297-55.624c-2.317-19.202-4.636-38.409-6.953-57.61
			c0-0.11,0-0.221,0-0.331c9.795-5.489,28.461-6.255,40.725-8.94c18.856-4.128,38.225-5.412,58.273-9.271
			c8.387-1.214,16.776-2.428,25.163-3.642c1.214,16.884,2.428,33.773,3.642,50.657c1.986,20.636,3.973,41.279,5.96,61.915
			c1.986,15.781,3.973,31.566,5.96,47.346c-5.34,2.834-21.049,4.688-27.812,5.297c-4.161-7.448-4.265-23.804-6.291-33.109
			c-4.083-21.409-8.167-42.824-12.25-64.232c-1.766-8.056-3.532-16.114-5.298-24.17c-1.557-1.583-10.117-0.553-13.575,0
			c-12.911,0.772-25.827,1.545-38.738,2.318C1273.215,314.713,1278.844,357.654,1284.472,400.581z M1266.593,670.092
			c2.632-1.181,7.024-0.128,10.595-0.662c17.436-0.552,34.877-1.104,52.313-1.655c0.11,0,0.221,0,0.331,0
			c0.221,0.331,0.442,0.662,0.662,0.993c-18.319,19.422-36.643,38.85-54.962,58.273c-7.395,9.162-14.929,20.176-28.143,23.508
			c-0.221-0.11-0.442-0.221-0.662-0.331C1253.349,723.511,1259.972,696.798,1266.593,670.092z M1307.649,637.645
			c-13.353-0.331-26.71-0.662-40.062-0.993c-0.331-0.11-0.662-0.221-0.993-0.331c1.214-30.347,2.428-60.704,3.642-91.051
			c-0.11-8.608-0.221-17.218-0.331-25.825c-0.662-23.174-1.324-46.356-1.986-69.53c8.34-3.8,25.173-1.357,35.427-2.98
			c21.82-3.454,46.521-0.462,69.199-3.973c7.063-0.221,14.127-0.441,21.19-0.662c12.47-0.441,24.944-0.883,37.414-1.324
			c10.375-0.099,25.194-1.085,30.13,5.629c4.668,6.35,2.248,38.622,0.662,48.34c-2.869,32.334-5.739,64.677-8.608,97.011
			c-0.883,13.684-1.766,27.372-2.649,41.056c-2.757,3.5-34.496,1.817-42.049,2.98c-15.781,0.441-31.566,0.883-47.347,1.324
			C1343.409,637.424,1325.526,637.535,1307.649,637.645z M1338.441,113.854c1.655-14.567,3.311-29.138,4.966-43.704
			c1.053-6.272-1.228-17.049,2.98-20.197c11.035,0.441,22.074,0.883,33.11,1.324c8.387,0.441,16.776,0.883,25.163,1.324
			c21.96,0.772,43.927,1.545,65.888,2.318c1.874,4.33-0.375,27.908-0.331,35.758c0.125,22.221,4.108,42.583,4.304,63.57
			c-0.11,0.221-0.221,0.441-0.331,0.662c-9.314,2.492-21.581,5.542-32.778,2.98c-1.799-4.052-0.162-13.709,0-18.872
			c0.441-15.45,0.883-30.904,1.324-46.353c-4.171-1.483-9.731-0.215-14.899-0.993c-14.898-0.662-29.8-1.324-44.698-1.987
			c-4.053,8.267-3.44,28.239-4.635,38.738c-6.038,2.754-32.275,1.411-41.387,1.324
			C1335.71,126.223,1338.008,118.429,1338.441,113.854z M1225.207,186.363c37.757-8.003,76.444-12.198,116.545-18.872
			c10.815-0.883,21.633-1.766,32.447-2.649c7.614-0.221,15.231-0.441,22.845-0.662c0.552,0,1.104,0,1.656,0
			c2.204,3.617,1.676,9.279,2.649,14.237c1.986,14.567,3.973,29.138,5.96,43.704c6.401,50.211,12.803,100.437,19.204,150.648
			c0,0.11,0,0.221,0,0.331c-4.937,3.112-21.109,6.289-27.812,6.953c-0.221-0.11-0.441-0.221-0.662-0.331
			c-5.559-25.606-6.104-53.622-10.595-80.456c-1.104-12.029-2.207-24.061-3.311-36.089c-3.09-21.96-6.181-43.927-9.271-65.888
			c-0.331-0.221-0.662-0.441-0.993-0.662c-4.875-1.551-33.94,3.798-40.394,4.966c-18.981,2.428-37.967,4.856-56.948,7.284
			c-14.469,2.716-31.251,5.747-47.015,5.629c-2.791-5.467-4.083-20.496-4.635-27.481
			C1224.986,186.805,1225.096,186.584,1225.207,186.363z M1219.247,410.183c0.993,7.283,1.987,14.569,2.98,21.852
			c-0.11,0.331-0.221,0.662-0.331,0.993c-31.009,5.518-62.028,11.037-93.037,16.555c-0.331-0.221-0.662-0.441-0.993-0.662
			c-0.993-7.614-1.987-15.231-2.98-22.846c4.079-2.049,9.762-1.21,14.568-2.649c14.845-4.443,32.504-6.44,48.34-9.602
			c9.27-1.324,18.542-2.649,27.812-3.973C1216.819,409.962,1218.033,410.073,1219.247,410.183z M1208.652,559.507
			c-34.21,8.718-68.43,17.438-102.639,26.156c-0.11,0-0.221,0-0.331,0c-0.331-7.945-0.662-15.893-0.993-23.839
			c-1.104-21.188-2.208-42.382-3.311-63.57c-0.441-6.621-0.883-13.245-1.324-19.866c0.221-0.441,0.442-0.883,0.662-1.324
			c32.444-2.207,64.898-4.415,97.342-6.622c1.655,0,3.311,0,4.966,0c1.324,20.084,2.649,40.175,3.973,60.259
			C1208.191,538.451,1210.729,551.767,1208.652,559.507z M1210.969,347.937c1.324,9.711,2.649,19.425,3.973,29.136
			c-9.157,4.635-23.509,3.642-34.103,5.96c-20.967,4.414-41.941,8.83-62.908,13.244c-2.207-9.159-4.415-18.322-6.622-27.481
			c3.103-3.715,20.321-5.51,26.488-6.953c15.56-3.311,31.124-6.622,46.684-9.933c8.056-1.435,16.114-2.87,24.17-4.304
			C1209.424,347.717,1210.197,347.827,1210.969,347.937z M1203.685,275.428c1.214,14.677,2.428,29.359,3.642,44.036
			c-8.343,5.164-26.271,4.901-37.414,7.284c-14.011,2.996-28.693,5.343-44.036,8.277c-7.173,1.324-14.348,2.649-21.521,3.973
			c-3.631-10.93-9.805-31.463-9.933-44.367c8.012-4.016,20.286-2.393,29.798-4.304c25.492-4.966,50.991-9.933,76.483-14.899
			C1201.699,275.428,1202.692,275.428,1203.685,275.428z M1189.117,187.688c0.883,0.11,1.766,0.221,2.649,0.331
			c2.538,19.312,5.077,38.63,7.615,57.942c-34.982,5.076-69.975,10.154-104.957,15.23c-3.061-2.349-0.944-10.178-1.656-14.899
			c-0.662-16.553-1.324-33.111-1.987-49.664C1123.557,193.648,1156.342,190.667,1189.117,187.688z M918.282,124.78
			c2.538-26.043,5.077-52.095,7.615-78.138c1.538-1.926,28.889-1.656,34.103-1.655c32.554-0.552,65.119-1.104,97.673-1.655
			c0.441,0.11,0.883,0.221,1.324,0.331c-0.772,9.38-1.545,18.763-2.318,28.143c-1.324,14.346-2.649,28.696-3.973,43.042
			c-0.883,10.484-1.766,20.97-2.649,31.454c-2.453,3.163-23.087,1.374-29.136,2.318c-11.808,0.331-23.619,0.662-35.427,0.993
			c-13.905,0-27.813,0-41.718,0c-8.497-0.11-16.997-0.221-25.494-0.331C916.612,147.964,917.671,128.555,918.282,124.78z
			 M912.985,248.609c1.214-19.533,2.428-39.071,3.642-58.604c27.384-5.162,58.339-1.838,87.409-6.291
			c14.346-0.552,28.696-1.104,43.042-1.655c1.214,0,2.428,0,3.642,0c1.517,3.374-0.138,9.069,0.331,12.913
			c-0.11,16.995-0.221,33.994-0.331,50.989c-16.112,1.545-32.228,3.09-48.34,4.635c-20.305,3.862-40.616,7.726-60.921,11.588
			c-9.821,2.759-19.646,5.518-29.467,8.277c-0.11,0-0.221,0-0.331,0C909.757,265.971,912.424,254.8,912.985,248.609z
			 M923.911,313.504c26.262-10.231,57.154-15.967,86.416-22.845c14.567-2.538,29.138-5.077,43.704-7.615
			c0.883,0.11,1.766,0.221,2.649,0.331c7.725,26.595,15.452,53.198,23.177,79.794c3.752,15.118,7.505,30.241,11.257,45.36
			c-2.235,3.343-29.461,11.22-35.427,13.575c-18.87,7.063-37.747,14.127-56.617,21.19c-13.355,5.337-27.739,11.8-42.38,15.23
			c-3.957-3.216-11.864-25.272-14.568-31.454c-10.136-23.169-19.855-46.664-29.467-70.854c-3.537-8.9-11.337-22.907-11.588-33.44
			C907.717,318.483,916.055,316.564,923.911,313.504z M1080.187,599.569c-4.227,2.752-18.947,8.668-24.501,8.94
			c-4.745-42.597-9.492-85.206-14.237-127.802c0.331-0.221,0.662-0.441,0.993-0.662c8.387-0.883,16.776-1.766,25.163-2.649
			c1.655,0,3.311,0,4.966,0C1075.11,518.116,1077.649,558.849,1080.187,599.569z M997.745,572.419
			c-1.766-28.582-3.532-57.172-5.298-85.753c7.614-1.104,15.231-2.207,22.846-3.311c0.883,0,1.766,0,2.649,0
			c4.154,8.903,2.773,30.238,4.635,41.718c2.98,31.34,5.96,62.69,8.94,94.031c-10.153,3.862-20.308,7.726-30.461,11.588
			c-0.221-0.11-0.441-0.221-0.662-0.331c0-4.083,0-8.167,0-12.25C999.511,602.882,998.628,587.648,997.745,572.419z
			 M911.991,540.965c-5.411-24.391-18.743-42.448-35.758-55.293c-3.468-2.618-20.498-11.49-21.852-13.575
			c37.189,1.655,74.39,3.311,111.579,4.966c1.545,48.225,3.09,96.464,4.635,144.688c-25.492,0.993-50.991,1.987-76.483,2.98
			c-0.965-2.326,7.67-16.972,9.271-20.859C909.973,587.876,917.031,563.681,911.991,540.965z M854.381,619.435
			c-7.717,3.185-42.908-0.032-51.32-1.324c-17.326-1.104-34.656-2.207-51.982-3.311c-2.428-2.428-4.856-4.856-7.284-7.284
			c-12.713-12.712-24.488-29.882-16.555-55.955c7.927-26.055,27.295-44.494,51.651-54.299c6.226-2.507,13.827-1.65,20.859-4.304
			c34.128-0.091,66.285,16.894,75.49,41.056C885.783,561.688,874.28,611.222,854.381,619.435z M869.942,765.116
			c0,0.11,0,0.221,0,0.331c-31.561,8.387-63.132,16.776-94.693,25.163c-5.217,1.579-27.385,9.631-31.454,8.277
			c-1.621-1.01-12.486-27.753-12.913-31.123c3.205-3.551,24.101-9.186,30.13-11.588c18.429-7.283,36.864-14.569,55.293-21.852
			c9.113-3.749,19.584-6.676,27.15-12.25c3.419,1.156,5.135,7.364,6.953,10.264C856.662,742.313,866.37,753.415,869.942,765.116z
			 M740.484,283.374c3.09-0.662,6.181-1.324,9.271-1.987c25.82-0.129,52.435,4.011,63.901,18.541
			c14.988,18.994,12.761,47.49-5.629,60.921c-31.076,22.696-70.824,0.145-85.753-22.183c-5.105-7.634-12.233-22.89-6.953-35.427
			C719.424,293.497,729.941,286.672,740.484,283.374z M715.321,189.674c16.995,3.2,33.994,6.401,50.989,9.602
			c0.11,0.221,0.221,0.441,0.331,0.662c-15.67,11.808-31.345,23.619-47.015,35.427c-0.441,0.221-0.883,0.441-1.324,0.662
			c-0.11-8.608-0.221-17.218-0.331-25.825C717.087,203.36,716.204,196.516,715.321,189.674z M735.518,386.344
			c14.492,5.61,42.284,14.239,62.908,10.595c7.226-1.277,12.473-4.321,18.21-5.96c-4.304,8.166-8.609,16.335-12.913,24.501
			c-4.745,8.939-9.492,17.88-14.237,26.819c-0.919,2.086-0.132,6.294-1.324,8.608c-7.394,8.608-14.79,17.218-22.183,25.825
			c-4.228,2.922-32.576-2.541-40.062-0.662c-0.221-0.331-0.441-0.662-0.662-0.993c-1.545-31.451-3.09-62.911-4.635-94.362
			C725.585,382.592,730.552,384.468,735.518,386.344z M884.51,93.326c0.441,0.221,0.883,0.441,1.324,0.662
			c0.552,19.422,1.104,38.85,1.655,58.273c1.324,39.838,2.649,79.687,3.973,119.525c-0.11,0-0.221,0-0.331,0
			c-15.118-15.118-30.242-30.242-45.36-45.36c-23.174-1.104-46.356-2.207-69.53-3.311c-0.221,0-0.441,0-0.662,0
			C811.887,179.856,848.204,136.585,884.51,93.326z M696.449,88.028c2.207-6.07,4.415-12.141,6.622-18.21
			c8.173-13.898,18.062-27.13,33.44-33.772c4.856-1.435,9.713-2.87,14.568-4.304c2.428-0.221,4.856-0.441,7.284-0.662
			c34.561-0.228,51.605,22.079,59.597,48.34c12.849,42.221-13,71.312-43.373,79.132c-5.77,1.485-14.322,3.635-22.183,2.318
			C719.42,155.341,684.752,131.109,696.449,88.028z M713.666,691.282c1.845-2.668,0.65-9.249,2.318-11.257
			c13.132-12.47,26.268-24.944,39.4-37.414c16.222,1.655,32.449,3.311,48.671,4.966c3.685,2.751,5.06,12.098,6.953,16.555
			c6.29,15.229,12.582,30.462,18.872,45.691c0,0.441,0,0.883,0,1.324c-50.432,7.173-100.878,14.348-151.31,21.521
			c-2.317-2.097-4.636-4.194-6.953-6.291c-0.11-0.331-0.221-0.662-0.331-0.993C685.411,714.018,699.541,702.649,713.666,691.282z
			 M491.17,523.417c-15.339-10.704-30.683-21.412-46.022-32.116c-0.221-0.221-0.441-0.441-0.662-0.662
			c-0.221,0.221-0.441,0.441-0.662,0.662c8.387,30.127,16.776,60.262,25.163,90.389c0,0.11,0,0.221,0,0.331
			c-12.739,7.124-28.668,10.421-43.373,15.23c-3.781-3.463-8.654-33.367-10.595-41.056c-7.669-30.372-13.183-60.854-20.197-92.375
			c-2.428-12.911-4.856-25.827-7.284-38.738c11.035,3.531,22.074,7.064,33.109,10.595c21.12,7.407,40.972,13.979,58.273,24.832
			c36.1,22.647,64.813,53.935,98.997,78.469c15.958,11.453,33.518,19.776,51.982,29.136c3.301-1.081,4.337-8.691,5.629-11.919
			c4.083-10.263,8.167-20.529,12.25-30.792c12.477,1.084,25.171,4.24,39.069,4.966c1.678,6.746-2.569,18.055-3.973,24.501
			c-3.862,20.967-7.726,41.941-11.588,62.908c-1.914,2.156-12.291-3.371-15.23-4.635c-14.456-6.4-28.917-12.803-43.373-19.203
			C568.976,573.046,530.622,548.313,491.17,523.417z M571.957,673.734c-6.088,2.867-19.775,2.044-27.481,1.987
			c-1.104-10.815-2.207-21.633-3.311-32.447c6.842-0.331,13.686-0.662,20.528-0.993c2.759,0.11,5.518,0.221,8.277,0.331
			C570.633,652.985,571.295,663.361,571.957,673.734z M525.604,708.83c-2.195,2.055-14.21,0.332-19.203,0.331
			c-18.319-0.331-36.643-0.662-54.962-0.993c-3.862-18.87-7.726-37.747-11.588-56.617c-1.365-5.707-5.628-15.811-3.973-21.852
			c19.864-6.842,39.733-13.686,59.597-20.528c3.539,0.767,7.221,20.199,8.608,24.832C511.256,658.943,518.431,683.89,525.604,708.83
			z M230.599,694.924c6.511-1.766,13.024-3.532,19.535-5.297c1.214,0.11,2.428,0.221,3.642,0.331
			c4.38,20.096,5.525,40.367,10.595,59.597c3.642,14.567,7.284,29.138,10.926,43.704c0.221,0.221,0.441,0.441,0.662,0.662
			c9.173-0.758,17.561-4.407,24.501-7.946c3.391-1.729,6.505-4.445,10.926-4.966c0.11,0,0.221,0,0.331,0
			c3.973,12.911,7.947,25.827,11.919,38.738c-11.295,7.689-26.159,11.258-40.062,16.224c-5.429,1.939-11.755,5.055-18.21,5.629
			c-4.502-3.886-7.267-26.252-9.271-33.772c-5.8-21.763-10.68-44.189-15.893-66.881c-2.971-12.935-9.554-31.374-9.933-45.36
			C230.378,695.366,230.489,695.145,230.599,694.924z M227.619,669.43c-0.772,0-1.545,0-2.318,0
			c-7.816-10.919-9.529-27.878-13.244-42.711c-9.241-36.895-8.931-82.09-8.608-126.809c4.583,1.827,10.978,27.985,13.244,34.434
			c9.794,27.876,17.614,56.682,23.177,89.064C243.083,642.114,239.744,663.488,227.619,669.43z M295.494,751.541
			c-2.013-3.847-4.504-26.804-4.966-32.116c0.221-0.221,0.441-0.441,0.662-0.662c10.925,0.662,21.853,1.324,32.778,1.987
			c0,11.035,0,22.074,0,33.109C315.511,755.993,304.131,751.944,295.494,751.541z M267.682,692.938
			c-1.655-12.249-3.311-24.502-4.966-36.751c-2.648-29.464-5.298-58.938-7.946-88.402c6.453-2.89,23.644-0.144,32.116-0.662
			c21.96-0.441,43.927-0.883,65.888-1.324c9.601-0.441,19.204-0.883,28.805-1.324c0.772,0,1.545,0,2.318,0
			c2.481,4.696,8.567,24.986,6.953,32.116c-1.986,7.614-3.973,15.231-5.96,22.846c-5.297,25.933-10.596,51.874-15.893,77.807
			c-5.314,2.378-21.017-0.3-28.143-0.331C316.79,696.807,289.395,697.109,267.682,692.938z M696.118,766.11c0.331,0,0.662,0,0.993,0
			c3.686,3.324,12.329,34.935,14.899,42.049c-0.11,0.552-0.221,1.104-0.331,1.655c-18.981,4.856-37.967,9.713-56.948,14.568
			c-2.317-3.752-4.636-7.505-6.953-11.257c-5.881-9.316-16.614-21.764-19.866-32.447c0.11-0.331,0.221-0.662,0.331-0.993
			C650.866,775.16,673.495,770.634,696.118,766.11z M526.929,181.066c27.449-5.779,55.638-7.502,85.422-12.25
			c15.891-0.993,31.787-1.987,47.678-2.98c5.849,0,11.699,0,17.548,0c-0.11,8.277-0.221,16.556-0.331,24.832
			c-1.104,25.602-2.207,51.212-3.311,76.814c-4.63,2.377-10.86,2.343-16.555,3.642c-17.946,4.092-37.216,6.174-56.948,9.271
			c-5.439,0.854-23.685,2.279-28.474,0.331c-3.235-2.095-1.377-27.288-0.662-32.116c1.191-8.044-1.24-20.59,2.649-26.488
			c4.289-6.504,37.956-11.807,50.989-9.933c1.4,2.941,2.412,14.535,1.324,17.548c-2.016,3.262-25.134,7.026-30.13,9.271
			c-1.827,5.007-1.993,12.616-0.331,17.879c9.853,5.751,40.76-8.1,51.651-9.933c2.562-4.416,0.407-12.453,1.324-18.541
			c1.639-10.872,2.604-26.459,1.324-37.414c-21.918-4.181-51.349-2.351-69.199,3.973c-10.491,3.717-20.459,11.465-32.447,12.582
			c-3.478,5.81-2.633,34.327-1.324,42.711c1.988,12.741,1.001,39.826,9.271,45.691c5.91,4.191,13.873,4.732,22.514,6.291
			c35.46,6.398,65.882-7.459,95.024-11.588c0.11,0,0.221,0,0.331,0c2.098,7.956,0.23,27.834-1.655,34.765
			c-10.704,0-21.412,0-32.116,0c-10.042,0.441-20.087,0.883-30.13,1.324c-22.935,3.429-49.991,1.459-74.165,0.993
			c-1.104-6.621-2.207-13.244-3.311-19.866c-5.355-24.796-6.292-54.161-6.291-83.436
			C526.708,209.983,526.818,195.522,526.929,181.066z M524.28,356.546c36.306-0.11,72.624-0.221,108.93-0.331
			c16.774-0.221,33.553-0.441,50.326-0.662c0.441,0.11,0.883,0.221,1.324,0.331c1.962,6.303,1.444,13.231,2.649,20.528
			c6.067,36.731-2.639,76.091-2.649,113.234c-4.155,1.062-10.803-0.605-14.899-1.324c-18.818-3.305-34.95-6.33-50.989-11.257
			c-37.096-11.396-71.905-26.084-102.639-44.367c-17.215-10.373-34.435-20.75-51.651-31.123c0.529-16.15,8.53-29.018,10.595-44.367
			C482.443,353.857,513.58,356.545,524.28,356.546z M338.205,203.911c7.283-12.249,14.569-24.502,21.852-36.752
			c18.448-30.925,38.256-65.802,52.975-99.328c3.2-7.945,6.401-15.893,9.602-23.839c3.106-10.182,3.048-19.443,9.602-25.825
			c8.685,0.062,8.573,16.054,10.264,23.177c5.933,24.997,11.133,51.93,10.595,82.774c-29.139,18.483-54.907,39.845-81.118,60.921
			c-8.105,6.517-24.498,20.832-28.143,30.792c-0.441,0.221-0.883,0.441-1.324,0.662c-0.221-0.11-0.441-0.221-0.662-0.331
			C341.001,212.888,337.153,207.74,338.205,203.911z M326.617,307.875c12.852-43.029,35.67-105.217,74.165-121.18
			c19.995-0.047,44.394,5.433,59.597,11.588c4.801,1.944,12.347,4.534,14.568,8.94c5.862,11.629,6.282,47.486,2.98,62.577
			c-5.531,25.277-11.903,49.513-23.508,68.868c-5.827,9.718-13.011,17.959-19.866,26.488c-4.871,6.059-15.316,18.547-22.183,21.852
			c-5.23,1.778-20.491-4.52-25.494-5.96c-22.071-6.4-44.148-12.803-66.219-19.203C315.08,350.057,323.811,317.269,326.617,307.875z
			 M319.001,397.271c9.537,0.068,28.302,7.68,36.089,11.257c4.745,33.106,9.492,66.222,14.237,99.328
			c-25.774,15.809-54.938,24.651-89.064,32.447c-13.261,3.03-28.835,6.234-44.367,6.291c-4.543-7.877-4.726-20.166-6.953-29.798
			c-4.304-24.83-8.609-49.667-12.913-74.496c20.305-4.193,40.616-8.388,60.921-12.582c2.998-4.99,1.827-17.674,2.318-23.508
			C292.512,403.23,305.759,400.25,319.001,397.271z M272.648,260.197c0.552,0,1.104,0,1.655,0
			c4.062,8.714,1.018,22.028,2.649,32.778c0,18.208,0,36.422,0,54.631c-1.414,9.524,1.246,19.663-0.993,28.143
			c-29.133,0.883-58.275,1.766-87.409,2.649c-0.441-6.401-0.883-12.803-1.324-19.203c-2.623-16.759-2.649-35.062-2.649-53.637
			c-0.11-10.153-0.221-20.308-0.331-30.461c3.829-4.458,17.786-3.337,24.501-4.635C230.045,267.04,251.35,263.618,272.648,260.197z
			 M244.505,202.918c0.221,0.221,0.441,0.441,0.662,0.662c-2.538,9.711-5.077,19.425-7.615,29.136
			c-1.806,2.556-7.457,0.751-11.257,1.324c-9.821,0.441-19.646,0.883-29.467,1.324c0-8.166,0-16.335,0-24.501
			c2.047-2.792,9.951-2.137,13.906-2.98C221.99,206.229,233.249,204.573,244.505,202.918z M202.787,129.415c0.441,0,0.883,0,1.324,0
			c5.076,13.132,10.154,26.268,15.23,39.4c0,0.11,0,0.221,0,0.331c-6.621,0.993-13.245,1.987-19.866,2.98
			c-5.849,1.545-11.699,3.09-17.548,4.635c-0.772-13.242-1.545-26.489-2.318-39.731
			C187.335,134.492,195.063,131.953,202.787,129.415z M146.501,300.922c0.331,0,0.662,0,0.993,0c0.11,0,0.221,0,0.331,0
			c3.642,15.67,7.285,31.345,10.926,47.015c-10.594,0-21.191,0-31.785,0c-1.214-8.277-2.428-16.556-3.642-24.832
			C131.049,315.712,138.777,308.316,146.501,300.922z M55.781,632.016c-11.366-1.655-22.736-3.311-34.103-4.966
			c-1.918-3.736-0.858-9.564-1.655-14.568c-1.104-14.346-2.207-28.696-3.311-43.042c-1.435-21.409-2.87-42.824-4.304-64.232
			c-2.895-18.821-3.934-52.367-0.993-71.847c1.435-14.236,2.87-28.475,4.304-42.711c1.36-2.188,9.635-2.042,12.582-2.649
			c8.967-1.846,19.048-2.141,28.805-3.642c5.076-0.221,10.154-0.441,15.23-0.662c20.864,0.063,42.292-1.112,61.915,1.987
			c9.821,0.993,19.646,1.987,29.467,2.98c2.035,4.198,0.479,10.614,1.324,16.224c0.662,12.47,1.324,24.944,1.987,37.414
			c-33.327-1.986-66.664-3.973-99.99-5.96c-2.103,8.013-0.304,34.062,0.993,42.38c0.662,14.346,1.324,28.696,1.987,43.042
			c1.876,22.733,3.753,45.472,5.629,68.205c4.372,2.153,23.702,1.889,29.467,0.993c7.504-0.331,15.01-0.662,22.514-0.993
			c14.236-1.545,28.475-3.09,42.711-4.635c2.832,5.332,1.067,40.47,0.993,50.657c-5.81,1.824-35.789,0.851-43.373-0.331
			c-15.891-0.552-31.787-1.104-47.678-1.655C72.116,633.341,63.948,632.679,55.781,632.016z M85.911,728.034
			c7.283-2.648,14.569-5.298,21.852-7.946c0.331,0.11,0.662,0.221,0.993,0.331c2.427,1.826,2.63,7.048,3.642,10.264
			c3.09,10.373,6.181,20.75,9.271,31.123c-18.429,5.518-36.864,11.037-55.293,16.555c-9.422,2.908-23.369,9.276-33.772,9.602
			c-3.862-11.808-7.726-23.619-11.588-35.427C42.646,744.369,64.282,736.2,85.911,728.034z M17.375,887.621
			c-0.221-0.11-0.441-0.221-0.662-0.331c-4.414-16.774-8.83-33.553-13.244-50.326c9.911-5.823,22.3-8.279,33.441-12.582
			c29.353-11.336,61.161-19.697,92.044-29.136c11.477-2.98,22.957-5.96,34.434-8.94c0.221,0,0.441,0,0.662,0
			c0.941-5.666-3.975-14.287-5.629-19.535c-5.187-16.443-10.375-32.89-15.561-49.333c-1.89-5.391-7.814-15.4-6.291-21.521
			c12.11-2.944,23.33-8.142,34.103-12.582c5.628-2.207,11.258-4.415,16.886-6.622c0.552,0,1.104,0,1.656,0
			c2.648,14.898,5.298,29.8,7.946,44.698c8.57,38.153,13.791,79.928,28.474,112.572c-2.321,3.203-10.896,3.214-15.23,4.304
			c-11.808,2.98-23.619,5.96-35.427,8.94c-35.424,9.159-70.858,18.322-106.281,27.481C51.589,879.012,34.479,883.317,17.375,887.621
			z M196.497,1047.871c-13.573,1.876-27.151,3.752-40.725,5.629c-3.15-6.422-2.244-16.489-3.642-24.17
			c-2.648-19.533-5.298-39.071-7.946-58.604c-1.437-6.468-5.827-23.228-3.973-30.13c3.09-0.662,6.181-1.324,9.271-1.987
			c0.883,0,1.766,0,2.649,0c5.811,9.482,8.319,20.774,12.582,31.785c5.076,12.47,10.154,24.944,15.23,37.414
			c5.518,13.242,11.037,26.489,16.555,39.731C196.497,1047.65,196.497,1047.76,196.497,1047.871z M268.675,1037.276
			c-13.242,1.766-26.489,3.532-39.731,5.297c-5.297-12.801-10.596-25.606-15.893-38.407c-11.597-28.115-23.342-56.682-34.765-85.422
			c-3.896-9.803-11.322-20.581-12.582-31.785c13.574-1.986,27.151-3.973,40.725-5.96c1.655,0.11,3.311,0.221,4.966,0.331
			c9.443,37.553,20.626,72.026,34.765,104.957c7.504,16.884,15.01,33.773,22.514,50.657
			C268.675,1037.055,268.675,1037.165,268.675,1037.276z M317.015,1028.998c-7.725,0.993-15.452,1.987-23.177,2.98
			c-6.32-10.616-10.463-22.397-15.561-34.103c-16.159-37.097-27.464-75.976-38.738-119.194c3.345-3.42,11.198-2.584,15.893-4.635
			c3.893,0.417,4.327,5.659,5.629,8.608c3.973,8.828,7.947,17.659,11.919,26.488c11.608,26.942,21.615,55.247,32.116,84.098
			c3.973,11.808,7.947,23.619,11.919,35.427C317.015,1028.778,317.015,1028.888,317.015,1028.998z M348.469,1026.019
			c-5.006-8.213-7.166-18.492-10.926-27.812c-10.389-25.753-18.827-53.111-29.136-79.463c-5.168-13.209-10.451-26.302-14.899-40.393
			c-1.359-4.307-4.167-8.429-4.304-13.575c12.029-1.545,24.061-3.09,36.089-4.635c1.104,0,2.207,0,3.311,0
			c2.141,3.871,1.697,9.827,2.649,14.899c1.876,12.58,3.753,25.164,5.629,37.745c6.582,34.225,15.681,71.22,15.23,112.572
			C350.897,1025.577,349.683,1025.798,348.469,1026.019z M375.95,971.719c-2.793-4.726-1.522-13.764-2.649-19.866
			c-1.986-14.236-3.973-28.475-5.96-42.711c-4.732-24.308-6.009-49.262-10.595-74.496c-1.104-9.49-2.207-18.984-3.311-28.474
			c5.767-29.518,17.931-56.712,24.832-85.091c0,7.835,0,15.673,0,23.508c1.435,23.285,2.87,46.576,4.304,69.861
			c2.207,25.933,4.415,51.874,6.622,77.807c2.869,27.368,5.739,54.744,8.608,82.111C390.518,973.485,383.233,972.602,375.95,971.719
			z M577.255,923.71c-5.486,9.025-24.791,5.374-36.751,7.284c-12.911,0.221-25.827,0.441-38.738,0.662
			c-25.769-0.002-52.767-0.28-78.138-0.331c-4.814-14.693-2.01-37.578-4.635-54.299c-1.214-17.325-2.428-34.656-3.642-51.982
			c-1.415-9.184-2.569-22.501-0.993-32.778c1.324-16.112,2.649-32.228,3.973-48.34c1.733-3.092,23.295-2.114,29.798-2.318
			c27.699-0.662,55.406-1.324,83.105-1.987c6.298,0.233,40.947,0.772,44.036,3.642c2.752,2.557,0.953,30.599,1.987,37.083
			c0.662,34.541,1.324,69.092,1.987,103.633C579.563,894.154,581.077,917.424,577.255,923.71z M600.432,640.294
			c9.27,0,18.542,0,27.812,0c0.11,9.49,0.221,18.984,0.331,28.474c-5.102,2.574-21.659,3.096-28.805,2.98
			c-0.993-10.263-1.987-20.529-2.98-30.792C598.003,640.735,599.218,640.514,600.432,640.294z M703.402,1061.446
			c-1.159,1.867-18.194,5.878-21.852,5.96c-1.986-5.628-3.973-11.258-5.96-16.886c-5.959-17.436-11.92-34.877-17.879-52.313
			c-19-53.987-34.289-110.088-49.002-168.527c-5.468-21.717-15.876-69.222-4.304-90.389c0.441,0,0.883,0,1.324,0
			c24.057,79.124,48.121,158.271,72.179,237.395c6.29,20.526,12.582,41.058,18.872,61.584
			C698.163,1042.337,704.412,1058.123,703.402,1061.446z M679.894,862.127c0-0.11,0-0.221,0-0.331
			c16.222-4.855,32.449-9.713,48.671-14.568c0.552,0,1.104,0,1.655,0c10.354,17.145,20.71,34.141,32.116,50.326
			c4.966,7.063,9.933,14.127,14.899,21.19c0,2.759,0,5.518,0,8.277c0,7.955-1.007,19.694,0.993,26.819
			c-0.441,0.221-0.883,0.441-1.324,0.662c-23.726-22.402-47.459-44.81-71.185-67.212
			C700.606,882.32,682.039,867.516,679.894,862.127z M753.397,1058.466c-7.028-26.582-16.866-52.508-25.163-78.138
			c-4.525-15.45-9.05-30.904-13.575-46.353c0.441-0.221,0.883-0.441,1.324-0.662c16.332,23.947,32.67,47.901,49.002,71.847
			c4.952,8.387,6.211,20.094,9.271,30.13c2.207,7.504,4.415,15.01,6.622,22.514C771.719,1058.024,762.556,1058.245,753.397,1058.466
			z M810.345,925.035c-3.09-10.373-6.181-20.75-9.271-31.123c19.897-7.86,43.368-11.343,65.557-16.555
			c10.594-2.097,21.191-4.194,31.785-6.291c0.772,0,1.545,0,2.318,0c4.248,7.85,9.267,35.885,9.602,47.015
			c-23.616,4.083-47.238,8.167-70.854,12.25c-8.387,1.655-16.776,3.311-25.163,4.966
			C811.735,933.688,811.413,928.136,810.345,925.035z M961.655,975.361c-34.982,7.394-69.975,14.79-104.957,22.183
			c-6.357,1.514-34.215,7.751-40.062,5.96c-2.078-1.629-0.672-7.178-0.662-10.264c0.221-10.263,0.441-20.529,0.662-30.792
			c1.076-1.382,27.15-2.525,31.123-3.311c30.722-6.074,61.798-11.214,89.395-18.872c-0.156-35.606-8.216-70.673-16.224-98.997
			c-6.756-2.063-33.479,4.21-41.056,5.96c-31.451,6.621-62.911,13.244-94.362,19.866c-2.538-4.083-5.077-8.167-7.615-12.25
			c3.268-3.408,39.221-8.972,47.015-10.926c31.451-6.511,62.911-13.024,94.362-19.535c12.979-3.23,28.301-3.694,39.731-9.271
			c0.441,0,0.883,0,1.324,0c0.883,10.925,1.766,21.853,2.649,32.778C969.273,888.639,961.697,934.439,961.655,975.361z
			 M966.291,795.577c-49.77,11.808-99.554,23.619-149.324,35.427c-12.249,2.759-24.502,5.518-36.751,8.277
			c-3.226,0.891-10.233,3.972-13.575,2.649c-3.232-1.854-11.689-15.676-13.575-19.535c0.11-0.221,0.221-0.441,0.331-0.662
			c25.492-6.07,50.991-12.141,76.483-18.21c15.229-1.766,30.462-3.532,45.691-5.297c29.575-3.421,59.158-6.843,88.733-10.264
			c0.331,0,0.662,0,0.993,0c0.11,0,0.221,0,0.331,0C966.441,789.657,966.382,792.908,966.291,795.577z M976.886,765.778
			c-25.823,4.304-51.653,8.609-77.476,12.913c-1.933-6.158-0.186-26.87,0.993-34.434c0.11-5.187,0.221-10.375,0.331-15.561
			c2.986-18.541,1.112-38.286,4.304-55.955c29.191,0.115,59.265,1.232,87.409,3.642c1.513,19.733,0.63,39.667,3.973,58.273
			c0.993,8.608,1.987,17.218,2.98,25.825C997.534,763.358,981.666,764.785,976.886,765.778z M1139.453,889.277
			c-0.441,8.608-0.883,17.218-1.324,25.825c-1.98,12.049-4.178,29.181-1.655,41.056c0,0.11,0,0.221,0,0.331
			c-16.392,4.858-35.826,1.167-54.299,3.973c-29.685,1.103-59.379,2.207-89.064,3.311c0.221-8.166,0.441-16.335,0.662-24.501
			c1.104-19.533,2.207-39.071,3.311-58.604c0.11-8.608,0.221-17.218,0.331-25.825c2.473-3.822,14.876-3.057,20.197-3.973
			c15.446-2.659,44.45-5.559,61.915-2.98c6.229,0.92,13.668-1.044,17.879,1.655c3.213,12.468,0.933,31.595-0.993,43.704
			c-0.552,4.635-1.104,9.271-1.656,13.906c-4.566,7.132-38.375,9.759-51.32,7.946c-0.991-2.094-0.662-6.161-0.662-9.271
			c0-2.538,0-5.077,0-7.615c1.503-2.521,25.797-5.64,30.13-8.277c1.631-6.807,0.336-14.183-2.649-18.21
			c-10.241-2.455-39.69,5.706-48.671,8.94c-0.331,6.401-0.662,12.803-0.993,19.203c-1.633,10.762-1.747,23.148-1.655,35.096
			c5.113,2.484,12.467,1.573,18.872,2.649c17.445,2.929,40.024,0.986,54.3-3.311c9.159-2.757,18.185-6.592,28.474-7.946
			c3.874-19.56,0.939-54.826-2.649-71.516c-1.573-7.317-1.938-17.625-6.953-21.521c-3.094-2.404-7.755-3.032-11.919-4.304
			c-31.729-9.694-71.411-0.018-102.308,2.98c-0.11,0-0.221,0-0.331,0c-1.975-4.342,0.443-29.161,2.318-32.778
			c21.188,1.214,42.382,2.428,63.57,3.642c14.898,0.221,29.8,0.441,44.698,0.662c9.38,0.772,18.763,1.545,28.143,2.318
			c3.94,7.647,2.408,19.179,3.973,28.805C1141.849,851.42,1140.946,871.962,1139.453,889.277z M1102.702,675.059
			c-12.801,4.635-25.606,9.271-38.407,13.906c-0.11,0.441-0.221,0.883-0.331,1.324c6.069,10.815,12.141,21.633,18.21,32.447
			c6.731,10.594,13.465,21.191,20.197,31.785c3.642,5.187,7.284,10.375,10.926,15.561c0,0.331,0,0.662,0,0.993
			c-12.249,0-24.502,0-36.751,0c-4.193-5.076-8.388-10.154-12.582-15.23c-13.292-17.318-25.648-35.275-36.089-55.624
			c-2.164-4.218-12.772-21.968-11.588-26.156c2.836-4.64,34.309-17.145,41.718-20.197c33.418-13.765,71.031-23.043,110.917-30.792
			c12.801-1.324,25.606-2.649,38.407-3.973c4.635-0.221,9.271-0.441,13.906-0.662c2.538,0,5.077,0,7.615,0
			c4.673,8.957,3.312,26.223,3.311,38.738c-0.003,32.928-4.718,60.786-14.237,84.098c-2.948,7.221-5.036,18.131-10.595,22.846
			c-8.387,0.993-16.776,1.987-25.163,2.98c1.435-3.862,2.87-7.726,4.304-11.588c2.317-8.277,4.635-16.556,6.953-24.832
			c5.744-23.117,6.652-49.354,6.291-77.807c-0.331-0.221-0.662-0.441-0.993-0.662c-5.03-1.167-30.194,5.404-36.42,6.953
			C1141.332,664.383,1121.858,668.388,1102.702,675.059z M1241.099,977.348c-25.712,6.511-51.433,13.024-77.145,19.535
			c1.876-38.403,3.752-76.818,5.629-115.221c2.097-1.876,4.194-3.753,6.291-5.629c21.74,33.327,43.486,66.664,65.226,99.99
			C1241.099,976.465,1241.099,976.906,1241.099,977.348z M1431.147,827.693c-6.282-1.695-15.029-13.052-20.197-17.217
			c-19.974-17.546-39.954-35.098-59.928-52.644c-7.264,7.469-11.615,18.765-19.866,25.163c1.903,7.091,11.89,12.511,16.224,17.879
			c6.436,7.973,14.547,15.748,22.514,22.183c5.959,5.738,11.92,11.479,17.879,17.217c5.628,4.966,11.258,9.933,16.886,14.899
			c-34.761,33.327-69.533,66.664-104.295,99.99c-5.602-1.264-29.407-26.382-33.772-31.785
			c-11.367-12.249-22.736-24.502-34.103-36.751c-13.573-15.45-27.151-30.904-40.725-46.353c0-0.441,0-0.883,0-1.324
			c24.498-22.512,49.005-45.031,73.503-67.543c7.063-6.952,14.127-13.907,21.19-20.859c11.096-9.557,21.431-20.165,30.792-31.454
			c3.593-4.333,8.677-7.558,11.588-12.582c0.552,0,1.104,0,1.655,0c27.445,24.103,52.534,50.313,79.132,75.158
			c10.373,10.263,20.75,20.529,31.123,30.792C1441.206,814.672,1432.911,825.165,1431.147,827.693z M1481.142,805.179
			c-0.442,0.221-0.883,0.441-1.324,0.662c-28.582-35.313-57.172-70.637-85.753-105.95c0-0.441,0-0.883,0-1.324
			c17.325-12.249,34.656-24.502,51.982-36.751c0.331,0,0.662,0,0.993,0c20.084,30.678,40.175,61.366,60.259,92.044
			c0.425,2.986-5.554,9.655-7.284,12.582c-4.745,9.601-9.492,19.204-14.237,28.805
			C1484.275,798.514,1481.843,801.041,1481.142,805.179z M1525.509,705.188c20.747,3.421,41.499,6.843,62.246,10.264
			c2.879,4.914,0.948,13.367,1.987,20.197c0.221,20.195,0.441,40.396,0.662,60.59c-4.072,1.837-14.777,1.051-19.535,0.331
			c-15.229-0.221-30.462-0.441-45.691-0.662c-1.919-4.728,0.363-16.208,0.662-22.846c0-15.229,0-30.462,0-45.691
			C1524.984,721.947,1523.678,709.466,1525.509,705.188z M1542.395,833.653c15.781,0.11,31.566,0.221,47.347,0.331
			c1.55,5.706,0.842,45.658-1.324,47.678c-33.327-1.655-66.664-3.311-99.99-4.966c-1.804-1.424-1.094-7.804-0.993-10.926
			c0.11-10.042,0.221-20.087,0.331-30.13c0.11-0.221,0.221-0.441,0.331-0.662C1506.193,834.536,1524.297,834.094,1542.395,833.653z
			 M1578.815,1046.546c-26.816,1.104-53.64,2.208-80.456,3.311c-7.931-39.952-12.26-90.301-11.919-136.411
			c20.935-5.503,52.249,1.456,75.158-1.987c5.738-0.11,11.479-0.221,17.217-0.331c4.083,0,8.167,0,12.25,0
			c0.772,11.918,1.545,23.84,2.318,35.758c0.662,10.042,1.324,20.087,1.987,30.13c3.687,23.369,3.248,47.461,9.933,67.543
			C1602.416,1047.583,1584.733,1045.642,1578.815,1046.546z M1583.12,676.052c-11.256-1.104-22.516-2.207-33.772-3.311
			c-25.633-4.875-51.17-8.794-75.49-13.575c-1.374-3.331,1.468-16.331,3.311-20.197c0.656-0.799,22.993-0.656,27.15,0
			c30.458,1.545,60.924,3.09,91.382,4.635c0.331-0.11,0.662-0.221,0.993-0.331c0.662-7.283,1.324-14.569,1.987-21.852
			c-7.85-3.928-20.263-2.667-29.798-4.304c-14.978-2.572-31.702-0.45-48.009-2.98c-12.016-1.864-28.036-2.163-40.063-0.993
			c-0.221-0.331-0.441-0.662-0.662-0.993c1.435-13.132,2.87-26.268,4.304-39.4c41.658,2.834,87.164,3.565,125.816,10.926
			c14.346,2.097,28.696,4.194,43.042,6.291c1.496,1.186,0.551,15.167,0,18.541c-2.207,21.85-4.415,43.707-6.622,65.557
			c-0.11,0.331-0.221,0.662-0.331,0.993C1628.335,678.645,1602.841,679.238,1583.12,676.052z M1625.831,919.406
			c-0.552-15.339-1.104-30.683-1.655-46.022c-1.876-50.432-3.753-100.878-5.629-151.31c45.907-1.655,91.828-3.311,137.735-4.966
			c0.993,0,1.987,0,2.98,0c0,0.11,0,0.221,0,0.331c-31.12,13.242-62.249,26.489-93.369,39.731
			c-1.731,4.23,7.583,38.905,9.271,45.691c9.601,43.7,19.204,87.413,28.805,131.113c-13.246,7.872-39.352,13.417-59.597,8.277
			c-6.319-1.604-11.655-4.719-17.217-6.622C1624.885,931.685,1626.67,924.96,1625.831,919.406z M1715.226,1056.81
			c-1.415,1.794-17.427,1.655-21.521,1.656c-20.747,0.662-41.499,1.324-62.246,1.987c-1.854-1.472-0.993-16.527-0.993-20.528
			c0.221-16.663,0.441-33.332,0.662-49.995c0.762-5.108-0.6-12.184,1.656-15.893c23.947,0.331,47.901,0.662,71.847,0.993
			c4.998,0.471,11.265-0.729,15.23,0.662C1718.316,1002.729,1716.771,1029.774,1715.226,1056.81z M1878.456,1012.444
			c-1.141,6.232-1.71,11.51-4.304,16.224c-12.593,22.879-52.865,31.124-83.436,19.204c-26.234-10.23-45.446-39.463-22.514-67.874
			c8.404-10.412,26.237-16.8,40.725-20.859c5.407-0.993,10.816-1.987,16.224-2.98
			C1861.573,955.865,1885.567,973.597,1878.456,1012.444z M1866.205,824.051c0.552,0.11,1.104,0.221,1.656,0.331
			c2.317,24.719,4.636,49.446,6.953,74.165c1.214,9.711,2.428,19.425,3.642,29.136c-2.15,1.915-7.426,0.427-10.926,0.993
			c-10.373,0.772-20.75,1.545-31.123,2.318c-12.801,1.986-25.606,3.973-38.407,5.96c-19.533,4.635-39.071,9.271-58.604,13.906
			c-0.11,0-0.221,0-0.331,0c-0.11-0.441-0.221-0.883-0.331-1.324c10.373-10.594,20.75-21.191,31.123-31.785
			c23.064-22.843,46.135-45.693,69.199-68.536C1848.104,840.827,1857.156,832.438,1866.205,824.051z M1852.299,802.861
			c-30.899,16.112-61.807,32.228-92.706,48.34c-10.195,6.011-20.919,11.582-32.116,16.555c-3.687,1.638-7.234,5.302-11.919,5.629
			c-5.407-30.789-10.816-61.587-16.224-92.375c7.582-5.94,19.756-8.926,28.805-12.913c30.568-14.346,61.145-28.696,91.713-43.042
			c0.552,0,1.104,0,1.655,0c4.342,4.416,5.814,14.538,8.277,20.528C1837.289,764.673,1844.795,783.77,1852.299,802.861z
			 M1875.145,632.679c-18.76,7.063-37.526,14.127-56.286,21.19c-0.11,0-0.221,0-0.331,0c3.973-20.415,7.947-40.837,11.919-61.252
			c2.383-3.875,11.738-6.107,15.892-8.277c14.898-7.725,29.8-15.452,44.698-23.177c0.552,0,1.104,0,1.655,0
			c2.428,12.36,4.856,24.723,7.284,37.083c1.435,7.725,2.87,15.452,4.304,23.177
			C1896.645,627.125,1884.394,629.021,1875.145,632.679z M1903.288,392.966c0.993,0.11,1.987,0.221,2.98,0.331
			c2.514,5.687-0.885,30.034-1.987,37.083c-0.441,10.042-0.883,20.087-1.324,30.13c-3.029,19.605-2.08,38.905-1.987,59.266
			c-5.527,2.408-14.571-0.611-21.521,0.331c-14.236,0-28.476,0-42.711,0c-1.144-5.161,4.513-20.448,5.96-26.156
			c6.123-24.152,11.626-47.08,18.541-69.861c2.759-10.042,5.519-20.087,8.277-30.13
			C1873.03,390.549,1897.179,395.398,1903.288,392.966z"/>
		<path style="fill:#009BB6;" d="M1177.529,497.923c-0.442-0.221-0.883-0.441-1.324-0.662c-16.443,1.214-32.89,2.428-49.333,3.642
			c-2.851,6.274-0.645,28.797,0,36.42c0.11,4.856,0.221,9.713,0.331,14.568c0,0.221,0,0.441,0,0.662
			c17.386-2.558,33.646-9.705,51.982-11.919c1.823-6.989,0.055-19.126-0.993-26.156
			C1177.97,508.96,1177.75,503.441,1177.529,497.923z"/>
		<path style="fill:#009BB6;" d="M1821.176,995.558c-7.587,2.857-20.166,4.61-17.879,15.561c0.764,3.657,2.451,6.177,5.297,7.615
			c9.642,4.871,23.936-2.084,26.488-8.94C1838.635,1000.252,1830.346,995.229,1821.176,995.558z"/>
		<path style="fill:#009BB6;" d="M1653.974,1035.289c6.904,3.481,27.975,3.858,37.083,4.304c0.221-11.477,0.442-22.957,0.662-34.434
			c-12.47-2.317-24.944-4.636-37.414-6.953C1654.194,1010.566,1654.084,1022.93,1653.974,1035.289z"/>
		<path style="fill:#009BB6;" d="M1405.653,574.737c3.064-16.883,4.193-40.869,1.324-59.266c-0.993-7.725-1.987-15.452-2.98-23.177
			c-6.177-2.781-17.018,0.463-24.501-0.662c-17.436-0.221-34.877-0.441-52.313-0.662c-0.221,0.11-0.441,0.221-0.662,0.331
			c-0.662,11.366-1.324,22.736-1.987,34.103c-0.772,21.85-1.545,43.707-2.318,65.557c26.706,0.441,53.419,0.883,80.125,1.324
			C1404.901,587.641,1404.544,580.848,1405.653,574.737z"/>
		<path style="fill:#009BB6;" d="M1306.656,800.543c-0.883-0.331-1.766-0.662-2.649-0.993c-7.283,7.394-14.569,14.79-21.852,22.183
			c2.078,9.928,19.036,18.093,21.852,27.812c-8.166,8.497-16.335,16.997-24.501,25.494c0.486,2.655,25.679,32.1,28.474,33.772
			c4.351-2.584,7.784-8.348,10.926-12.25c11.698-13.242,23.398-26.489,35.096-39.731c-0.785-5.786-8.084-9.971-11.257-13.906
			c-8.828-10.263-17.659-20.529-26.488-30.792C1313.257,808.385,1308.633,805.208,1306.656,800.543z"/>
		<path style="fill:#009BB6;" d="M1626.824,390.98c6.045,2.482,17.429,4.812,23.508,0.662c6.336-4.326,5.89-17.462,1.987-24.17
			c-7.252-12.462-20.846-21.326-41.056-20.859c-3.139,1.415-6.137,1.721-8.608,3.642c-2.283,1.775-3.102,4.328-3.973,7.615
			C1594.344,374.241,1615.913,386.5,1626.824,390.98z"/>
		<path style="fill:#009BB6;" d="M963.973,394.291c2.538,6.511,5.077,13.024,7.615,19.535c4.8,1.045,18.347-5.515,23.177-7.284
			c15.229-4.856,30.462-9.713,45.691-14.568c6.511-1.655,13.024-3.311,19.535-4.966c0.441-0.331,0.883-0.662,1.324-0.993
			c-3.09-8.056-6.181-16.114-9.271-24.17c-6.923,0.674-13.496,5.138-19.203,7.615c-14.793,6.42-29.428,12.425-43.373,19.535
			c-2.915-0.495-13.703-24.128-14.237-28.805c3.411-3.883,12.098-5.265,17.217-7.284c14.768-5.825,31.96-11.887,49.333-14.237
			c-0.316-6.177-4.542-17.585-8.94-19.866c-1.103-0.11-2.207-0.221-3.311-0.331c-11.256,2.428-22.516,4.856-33.772,7.284
			c-15.891,5.076-31.787,10.154-47.678,15.23c-2.321,4.365,2.666,15.402,4.304,20.197
			C956.247,372.217,960.111,383.255,963.973,394.291z"/>
		<path style="fill:#009BB6;" d="M1567.889,971.719c-1.324-7.725-2.649-15.452-3.973-23.177c-1.083-0.534-2.397-0.721-4.304-0.662
			c-14.125,0.772-28.255,1.545-42.38,2.318c-1.958,4.447,0.483,14.806,1.324,19.866c1.655,15.45,3.311,30.904,4.966,46.353
			c0.11,0.11,0.221,0.221,0.331,0.331c15.119-1.104,30.241-2.207,45.36-3.311c1.867-4.144,0.726-13.553,0-18.21
			C1568.772,987.392,1568.331,979.554,1567.889,971.719z"/>
		<path style="fill:#009BB6;" d="M1055.024,314.828c-0.221,0-0.442,0-0.662,0c0,0.441,0,0.883,0,1.324c0.11,0,0.221,0,0.331,0
			C1054.803,315.711,1054.914,315.269,1055.024,314.828z"/>
		<path style="fill:#009BB6;" d="M1017.279,122.131c2.346-1.799,1.321-8.952,1.324-12.913c0.221-11.587,0.441-23.178,0.662-34.765
			c-4.963-2.255-12.81-0.408-18.872-1.324c-16.001-0.772-32.007-1.545-48.009-2.318c-0.221,0.11-0.441,0.221-0.662,0.331
			c-1.683,8.505-5.156,37.856-2.98,46.353C971.586,119.041,994.436,120.586,1017.279,122.131z"/>
	</g>
</g>
</svg>
